<?xml version="1.0" encoding="utf-8"?>
<!-- Generator: Adobe Illustrator 21.1.0, SVG Export Plug-In . SVG Version: 6.00 Build 0)  -->
<svg version="1.1" id="Layer_1" xmlns="http://www.w3.org/2000/svg" xmlns:xlink="http://www.w3.org/1999/xlink" x="0px" y="0px"
	 viewBox="0 0 1000 1000" style="enable-background:new 0 0 1000 1000;" xml:space="preserve">
<style type="text/css">
	.st0{fill:#FFFFFF;}
</style>
<g>
	<path class="st0" d="M635.4,134.1c46.8,0,90.4,25.2,113.8,65.7l135.4,234.6c23.4,40.5,23.4,90.9,0,131.4L749.2,800.3
		c-23.4,40.5-67,65.7-113.8,65.7H364.6c-46.8,0-90.4-25.2-113.8-65.7L115.4,565.7c-23.4-40.5-23.4-90.9,0-131.4l135.4-234.6
		c23.4-40.5,67-65.7,113.8-65.7H635.4 M635.4,86.3H364.6c-64,0-123.1,34.1-155.1,89.6L74,410.4c-32,55.4-32,123.7,0,179.1
		l135.4,234.6c32,55.4,91.1,89.6,155.1,89.6h270.9c64,0,123.1-34.1,155.1-89.6L926,589.6c32-55.4,32-123.7,0-179.1L790.6,175.9
		C758.6,120.4,699.4,86.3,635.4,86.3L635.4,86.3z"/>
</g>
<g>
	<path class="st0" d="M500,583.6c-19.8,0-35.8-16-35.8-35.8V308.9c0-19.8,16-35.8,35.8-35.8c19.8,0,35.8,16,35.8,35.8v238.9
		C535.8,567.6,519.8,583.6,500,583.6z"/>
</g>
<g>
	<circle class="st0" cx="500" cy="698.3" r="35.8"/>
</g>
</svg>
