<svg width="350" height="350" viewBox="0 0 350 350" fill="none" xmlns="http://www.w3.org/2000/svg">
<circle cx="175" cy="175" r="157.5" fill="#FF66AB"/>
<circle cx="175" cy="175" r="157.5" fill="url(#paint0_linear_71_5)" fill-opacity="0.2"/>
<mask id="mask0_71_5" style="mask-type:alpha" maskUnits="userSpaceOnUse" x="17" y="17" width="316" height="316">
<circle cx="175" cy="175" r="157.5" fill="#FF66AB"/>
<circle cx="175" cy="175" r="157.5" fill="url(#paint1_linear_71_5)" fill-opacity="0.2"/>
</mask>
<g mask="url(#mask0_71_5)">
<path fill-rule="evenodd" clip-rule="evenodd" d="M138.053 48.6851L95.84 121.8L77.2232 89.5552L13.0191 200.76H42.5152L-0.287582 274.897H116.229L101.413 300.559H229.821L197.444 244.482H260.621L253.487 256.838H381.896L366.531 230.225H432.27L368.066 119.02L335.196 175.952L317.691 145.633L305.405 166.914L253.06 76.2487L197.011 173.328L189.252 159.89H202.257L138.053 48.6851ZM262.44 244.482L256.215 255.263H379.168L364.712 230.225H303.862L334.287 177.527L317.691 148.783L306.314 168.489L317.264 187.453H295.365L281.298 211.819L300.155 244.482H262.44ZM280.388 213.394L297.427 242.907H263.349L280.388 213.394ZM279.479 211.819L261.53 242.907H196.535L185.505 223.802L185.638 223.571H226.019L205.829 188.601L206.491 187.453H265.412L279.479 211.819ZM280.388 210.244L293.546 187.453H267.23L280.388 210.244ZM266.321 185.878H294.456L304.496 168.489L253.06 79.3987L197.92 174.903L204.257 185.878H205.582L235.951 133.277L266.321 185.878ZM207.4 185.878H264.502L235.951 136.427L207.4 185.878ZM204.01 188.601L203.348 187.453H188.856L196.102 174.903L187.434 159.89H136.196L127.013 175.794L141.427 200.76H112.599L100.339 221.996H146.771L165.617 189.354L184.462 221.996H184.729L204.01 188.601ZM186.548 221.996H223.291L204.919 190.176L186.548 221.996ZM183.686 223.802L183.553 223.571H147.68L123.084 266.173L128.121 274.897H118.048L104.141 298.984H227.093L195.626 244.482H171.747L183.686 223.802ZM194.716 242.907L184.596 225.377L174.475 242.907H194.716ZM202.438 185.878L197.011 176.478L191.584 185.878H202.438ZM296.274 185.878L305.405 170.064L314.536 185.878H296.274ZM77.2232 92.7052L94.9307 123.375L73.849 159.89H116.012L125.195 175.794L111.69 199.185H84.4085L63.9165 163.692L43.4245 199.185H15.7471L77.2232 92.7052ZM95.84 124.95L76.577 158.315H115.103L95.84 124.95ZM96.7493 123.375L116.922 158.315H135.286L161.815 112.366L188.343 158.315H199.529L138.053 51.8351L96.7493 123.375ZM126.104 174.219L117.831 159.89H134.377L126.104 174.219ZM161.815 115.516L186.524 158.315H137.105L161.815 115.516ZM44.3338 200.76L2.4404 273.322H117.138L121.265 266.173L83.4992 200.76H44.3338ZM45.2432 199.185L63.9165 166.842L82.5899 199.185H45.2432ZM85.3179 200.76L98.0493 222.811L110.781 200.76H85.3179ZM126.104 177.369L113.509 199.185H138.699L126.104 177.369ZM122.175 264.598L98.4879 223.571H145.862L122.175 264.598ZM122.175 267.748L118.957 273.322H125.393L122.175 267.748ZM148.59 221.996L165.617 192.504L182.644 221.996H148.59ZM335.196 179.102L306.59 228.65H363.803L335.196 179.102ZM365.621 228.65L336.106 177.527L368.066 122.17L429.542 228.65H365.621Z" fill="url(#paint2_linear_71_5)"/>
</g>
<path d="M273.056 127.904C277.465 127.904 280.488 131.178 280.488 135.713V177.657C280.488 182.192 277.465 185.467 273.056 185.467C268.521 185.467 265.624 182.192 265.624 177.657V135.713C265.624 131.178 268.521 127.904 273.056 127.904ZM273.056 212.17C267.64 212.17 263.357 207.887 263.357 202.471C263.357 197.181 267.64 192.898 273.056 192.898C278.472 192.898 282.755 197.181 282.755 202.471C282.755 207.887 278.472 212.17 273.056 212.17Z" fill="white"/>
<path d="M245.912 148.183C250.446 148.183 253.343 151.458 253.343 155.866V183.703C253.343 204.234 240.685 212.17 225.318 212.17C209.825 212.17 197.167 204.234 197.167 183.703V155.866C197.167 151.458 200.064 148.183 204.598 148.183C209.007 148.183 212.03 151.458 212.03 155.866V182.696C212.03 193.906 216.753 198.314 225.318 198.314C233.757 198.314 238.48 193.906 238.48 182.696V155.866C238.48 151.458 241.503 148.183 245.912 148.183Z" fill="white"/>
<path d="M155.023 165.187C155.023 169.344 159.306 170.856 167.493 172.745C178.829 175.516 189.662 178.413 189.662 192.394C189.662 205.998 179.585 212.17 165.1 212.17C153.134 212.17 144.443 208.013 140.412 203.227C137.263 199.448 137.641 196.173 140.664 193.276C144.443 189.623 147.717 191.135 149.859 193.024C153.26 196.173 157.416 199.448 165.478 199.448C171.524 199.448 175.302 197.433 175.302 193.402C175.302 189.371 171.272 187.986 160.691 185.089C150.237 182.192 140.916 179.421 140.916 166.951C140.916 152.969 152.252 147.175 164.848 147.175C172.027 147.175 180.215 149.065 185.253 154.481C187.394 156.622 189.032 159.645 185.253 163.802C181.474 167.707 178.703 166.573 176.058 164.558C173.665 162.794 169.508 159.771 163.21 159.771C158.928 159.771 155.023 161.157 155.023 165.187Z" fill="white"/>
<path d="M100.145 212.17C80.9995 212.17 67.27 198.315 67.27 179.673C67.27 160.905 80.9995 147.175 100.145 147.175C119.291 147.175 133.02 160.905 133.02 179.673C133.02 198.315 119.291 212.17 100.145 212.17ZM100.145 198.315C111.23 198.315 118.157 190.253 118.157 179.673C118.157 169.092 111.23 160.905 100.145 160.905C89.0609 160.905 82.1331 169.092 82.1331 179.673C82.1331 190.253 89.0609 198.315 100.145 198.315Z" fill="white"/>
<path d="M332.5 175C332.5 261.985 261.985 332.5 175 332.5C88.0152 332.5 17.5 261.985 17.5 175C17.5 88.0152 88.0152 17.5 175 17.5C261.985 17.5 332.5 88.0152 332.5 175ZM33.25 175C33.25 253.286 96.7136 316.75 175 316.75C253.286 316.75 316.75 253.286 316.75 175C316.75 96.7136 253.286 33.25 175 33.25C96.7136 33.25 33.25 96.7136 33.25 175Z" fill="white"/>
<path d="M90.265 179.848C90.265 185.264 94.5476 189.547 99.9638 189.547C105.38 189.547 109.663 185.264 109.663 179.848C109.663 174.557 105.38 170.275 99.9638 170.275C94.5476 170.275 90.265 174.557 90.265 179.848Z" fill="white"/>
<defs>
<linearGradient id="paint0_linear_71_5" x1="175" y1="17.5" x2="175" y2="332.5" gradientUnits="userSpaceOnUse">
<stop stop-opacity="0"/>
<stop offset="1"/>
</linearGradient>
<linearGradient id="paint1_linear_71_5" x1="175" y1="17.5" x2="175" y2="332.5" gradientUnits="userSpaceOnUse">
<stop stop-opacity="0"/>
<stop offset="1"/>
</linearGradient>
<linearGradient id="paint2_linear_71_5" x1="215.991" y1="48.6851" x2="215.991" y2="300.559" gradientUnits="userSpaceOnUse">
<stop stop-color="#F964A7"/>
<stop offset="1" stop-color="#B6346F"/>
</linearGradient>
</defs>
</svg>
