<?xml version="1.0" encoding="utf-8"?>
<!-- Generator: Adobe Illustrator 22.0.0, SVG Export Plug-In . SVG Version: 6.00 Build 0)  -->
<svg version="1.1" xmlns="http://www.w3.org/2000/svg" xmlns:xlink="http://www.w3.org/1999/xlink" x="0px" y="0px"
	 viewBox="0 0 350 350" style="enable-background:new 0 0 350 350;" xml:space="preserve">
<style type="text/css">
	.st0{fill:#FF66AA;}
	.st1{opacity:0.15;}
	.st2{clip-path:url(#SVGID_2_);}
	.st3{fill:#F1F1F2;}
	.st4{fill:#231F20;}
	.st5{fill:#808184;}
	.st6{fill:#929497;}
	.st7{fill:#636466;}
	.st8{fill:#59595C;}
	.st9{fill:#A7A8AB;}
	.st10{fill:#6D6E70;}
	.st11{fill:#221F1F;}
	.st12{fill:#404041;}
	.st13{fill:#58595B;}
	.st14{fill:#BBBDBF;}
	.st15{fill:#FFFFFF;}
	.st16{fill:#A6A8AB;}
	.st17{fill:#E6E7E8;}
	.st18{fill:#D0D2D3;}
</style>
<g id="Cookie">
	<circle class="st0" cx="175" cy="175" r="143.7"/>
</g>
<g id="Triangles">
	<g class="st1">
		<defs>
			<circle id="SVGID_1_" class="st1" cx="175" cy="175" r="150"/>
		</defs>
		<clipPath id="SVGID_2_">
			<use xlink:href="#SVGID_1_"  style="overflow:visible;"/>
		</clipPath>
		<g class="st2">
			<polygon class="st3" points="-81.2,336.9 175,-106.9 431.2,336.9 			"/>
			<polygon class="st4" points="68.8,443.7 325,0 581.2,443.7 			"/>
			<polygon class="st5" points="-409.8,363.4 -153.6,-80.3 102.6,363.4 			"/>
			<polygon class="st6" points="61.4,158.2 317.6,-285.6 573.8,158.2 			"/>
			<polygon class="st7" points="-222.4,380 33.8,-63.7 290,380 			"/>
			<polygon class="st8" points="-100.1,646.9 156.1,203.1 412.3,646.9 			"/>
			<polygon class="st9" points="-164.9,147.2 -67.6,-21.3 29.7,147.2 			"/>
			<polygon class="st9" points="-83.4,523.8 13.9,355.3 111.2,523.8 			"/>
			<polygon class="st10" points="134.3,220.8 231.6,52.3 328.9,220.8 			"/>
			<polygon class="st9" points="298.7,485.7 396,317.2 493.2,485.7 			"/>
			<polygon class="st8" points="108.4,621.4 157,537.2 205.7,621.4 			"/>
			<polygon class="st11" points="278.7,305.9 327.3,221.7 375.9,305.9 			"/>
			<polygon class="st11" points="46.2,400 143.5,231.5 240.8,400 			"/>
			<polygon class="st5" points="108.8,-86.6 36.5,38.6 231.1,38.6 158.8,-86.6 			"/>
			<polygon class="st5" points="322,-86.6 298.4,-45.7 395.7,-45.7 372,-86.6 			"/>
			<polygon class="st12" points="35.3,332.5 132.6,164 229.9,332.5 			"/>
			<polygon class="st5" points="236.1,369.2 333.3,200.7 430.6,369.2 			"/>
			<polygon class="st8" points="-51.9,428.8 -3.8,345.5 44.3,428.8 			"/>
			<polygon class="st13" points="123.2,104.8 171.3,21.5 219.4,104.8 			"/>
			<polygon class="st11" points="283,90.2 331.1,6.9 379.2,90.2 			"/>
			<polygon class="st5" points="-61.9,331.6 -37.8,289.9 -13.8,331.6 			"/>
			<polygon class="st8" points="132.5,621.6 156.5,579.9 180.6,621.6 			"/>
			<polygon class="st8" points="216.7,465.6 240.7,423.9 264.7,465.6 			"/>
			<polygon class="st12" points="197.1,259.7 245.2,176.4 293.3,259.7 			"/>
			<polygon class="st3" points="283,239.3 331.1,156 379.2,239.3 			"/>
			<polygon class="st9" points="-49.5,78.8 -1.4,-4.5 46.7,78.8 			"/>
			<polygon class="st9" points="-97.9,225.4 -49.8,142.1 -1.7,225.4 			"/>
			<polygon class="st5" points="288.2,-20 312.2,-61.6 336.3,-20 			"/>
			<polygon class="st14" points="187.2,116.2 211.3,74.6 235.3,116.2 			"/>
			<polygon class="st15" points="231.9,63.8 238.3,52.8 244.7,63.8 			"/>
			<polygon class="st10" points="28.9,117.8 77,34.5 125.1,117.8 			"/>
			<polygon class="st16" points="110.8,331.9 158.9,248.6 207,331.9 			"/>
			<polygon class="st4" points="107,263.1 125.1,231.7 143.1,263.1 			"/>
			<polygon class="st9" points="214,285.3 238,243.6 262.1,285.3 			"/>
			<polygon class="st9" points="208.6,167.2 232.6,125.6 256.7,167.2 			"/>
			<polygon class="st3" points="226,102.8 274.1,19.5 322.1,102.8 			"/>
			<polygon class="st16" points="1.2,143.6 49.3,60.3 97.4,143.6 			"/>
			<polygon class="st8" points="14,272.2 32.3,240.4 50.6,272.2 			"/>
			<polygon class="st16" points="265.4,230.6 283.7,198.8 302,230.6 			"/>
			<polygon class="st15" points="156.7,84.8 175,53.1 193.3,84.8 			"/>
			<polygon class="st13" points="156.7,282.1 175,250.3 193.3,282.1 			"/>
			<polygon class="st8" points="-19.7,88 -1.4,56.2 17,88 			"/>
			<polygon class="st8" points="238.4,360.2 256.7,328.5 275,360.2 			"/>
			<polygon class="st5" points="307.5,135.6 325.8,103.8 344.1,135.6 			"/>
			<polygon class="st14" points="45.3,233.1 63.6,201.3 82,233.1 			"/>
			<polygon class="st3" points="72.3,295.1 90.6,263.3 109,295.1 			"/>
			<polygon class="st3" points="27.6,167.7 46,136 64.3,167.7 			"/>
			<polygon class="st8" points="113.7,123.7 122.8,107.9 132,123.7 			"/>
			<polygon class="st14" points="50.8,152.9 59.9,137.1 69.1,152.9 			"/>
			<polygon class="st17" points="107.7,84.4 116.9,68.5 126.1,84.4 			"/>
			<polygon class="st11" points="69,360.2 87.3,328.5 105.6,360.2 			"/>
			<polygon class="st8" points="112.2,419.2 130.5,387.4 148.8,419.2 			"/>
			<polygon class="st8" points="516.7,288.1 535.1,256.3 553.4,288.1 			"/>
			<polygon class="st5" points="187.7,61.9 206,30.1 224.4,61.9 			"/>
			<polygon class="st15" points="283.4,128.2 301.7,96.5 320,128.2 			"/>
			<polygon class="st8" points="316.6,622.1 325.8,606.2 335,622.1 			"/>
			<polygon class="st9" points="262.4,411.2 271.6,395.4 280.7,411.2 			"/>
			<polygon class="st8" points="577.5,394.4 586.7,378.5 595.9,394.4 			"/>
			<polygon class="st5" points="-97.4,339.9 -79.1,308.2 -60.7,339.9 			"/>
			<polygon class="st5" points="277.7,315.5 296.1,283.7 314.4,315.5 			"/>
			<polygon class="st9" points="286.9,268.6 296.1,252.7 305.2,268.6 			"/>
			<polygon class="st18" points="210.1,128.5 221,109.6 231.9,128.5 			"/>
			<polygon class="st5" points="94.9,-41.1 104,-57 113.2,-41.1 			"/>
			<polygon class="st8" points="386.7,121.9 405,90.2 423.4,121.9 			"/>
			<polygon class="st8" points="463,336.8 472.2,320.9 481.4,336.8 			"/>
		</g>
	</g>
</g>
</svg>
