<svg width="350" height="350" viewBox="0 0 350 350" fill="none" xmlns="http://www.w3.org/2000/svg">
<path d="M273.056 127.904C277.465 127.904 280.488 131.178 280.488 135.713V177.657C280.488 182.192 277.465 185.467 273.056 185.467C268.521 185.467 265.624 182.192 265.624 177.657V135.713C265.624 131.178 268.521 127.904 273.056 127.904ZM273.056 212.17C267.64 212.17 263.357 207.887 263.357 202.471C263.357 197.181 267.64 192.898 273.056 192.898C278.472 192.898 282.755 197.181 282.755 202.471C282.755 207.887 278.472 212.17 273.056 212.17Z" fill="white"/>
<path d="M245.912 148.183C250.447 148.183 253.344 151.458 253.344 155.866V183.703C253.344 204.234 240.685 212.17 225.318 212.17C209.825 212.17 197.167 204.234 197.167 183.703V155.866C197.167 151.458 200.064 148.183 204.599 148.183C209.007 148.183 212.03 151.458 212.03 155.866V182.696C212.03 193.906 216.753 198.314 225.318 198.314C233.757 198.314 238.48 193.906 238.48 182.696V155.866C238.48 151.458 241.503 148.183 245.912 148.183Z" fill="white"/>
<path d="M155.023 165.187C155.023 169.344 159.306 170.856 167.493 172.745C178.829 175.516 189.662 178.413 189.662 192.394C189.662 205.998 179.585 212.17 165.1 212.17C153.134 212.17 144.443 208.013 140.412 203.227C137.263 199.448 137.641 196.173 140.664 193.276C144.443 189.623 147.717 191.135 149.859 193.024C153.26 196.173 157.416 199.448 165.478 199.448C171.524 199.448 175.302 197.433 175.302 193.402C175.302 189.371 171.272 187.986 160.691 185.089C150.237 182.192 140.916 179.421 140.916 166.951C140.916 152.969 152.252 147.175 164.848 147.175C172.027 147.175 180.215 149.065 185.253 154.481C187.394 156.622 189.032 159.645 185.253 163.802C181.474 167.707 178.703 166.573 176.058 164.558C173.665 162.794 169.508 159.771 163.21 159.771C158.928 159.771 155.023 161.157 155.023 165.187Z" fill="white"/>
<path d="M100.145 212.17C80.9995 212.17 67.27 198.315 67.27 179.673C67.27 160.905 80.9995 147.175 100.145 147.175C119.291 147.175 133.02 160.905 133.02 179.673C133.02 198.315 119.291 212.17 100.145 212.17ZM100.145 198.315C111.23 198.315 118.157 190.253 118.157 179.673C118.157 169.092 111.23 160.905 100.145 160.905C89.0609 160.905 82.1332 169.092 82.1332 179.673C82.1332 190.253 89.0609 198.315 100.145 198.315Z" fill="white"/>
<path d="M332.5 175C332.5 261.985 261.985 332.5 175 332.5C88.0152 332.5 17.5 261.985 17.5 175C17.5 88.0152 88.0152 17.5 175 17.5C261.985 17.5 332.5 88.0152 332.5 175ZM33.25 175C33.25 253.286 96.7136 316.75 175 316.75C253.286 316.75 316.75 253.286 316.75 175C316.75 96.7136 253.286 33.25 175 33.25C96.7136 33.25 33.25 96.7136 33.25 175Z" fill="white"/>
<path d="M90.265 179.848C90.265 185.264 94.5476 189.547 99.9638 189.547C105.38 189.547 109.663 185.264 109.663 179.848C109.663 174.557 105.38 170.275 99.9638 170.275C94.5476 170.275 90.265 174.557 90.265 179.848Z" fill="white"/>
</svg>
