<svg
	version="1.1" id="Layer_1" xmlns="http://www.w3.org/2000/svg" xmlns:xlink="http://www.w3.org/1999/xlink"
	x="0px" y="0px"
	width="190px" height="125px"
	viewBox="0 0 432 256" style="enable-background:new 0 0 432 256;"
	xml:space="preserve"
>
	<style type="text/css">
		<![CDATA[
		.sh2{fill:#FF66AA;}
		.sh3{fill:#FFFFFF;}
		.sh4{opacity:0.5;fill:#FFFFFF;}
		.sh5{opacity:0.2;fill:#FFFFFF;}
		.sh6{fill:#FF66AA;}
		.sh7{fill:#8866EE;}
		.sh8{fill:#66CCFF;}
		.sh9{fill:#A5CC00;}
		.sh10{fill:#FFCC22;}
		.sh11{fill:#FF66AA;}

		svg .L1 {
			animation: RotateR 10.0s infinite linear;
			-webkit-animation: RotateR 10.0s infinite linear;
		}

		svg .L2 {
			animation: RotateR 15.0s infinite linear;
			-webkit-animation: RotateR 15.0s infinite linear;
		}

		svg .L3 {
			animation: RotateR 20.0s infinite linear;
			-webkit-animation: RotateR 20.0s infinite linear;
		}

		svg .L4 {
			animation: RotateR 25.0s infinite linear;
			-webkit-animation: RotateR 25.0s infinite linear;
		}

		svg .L5 {
			animation: RotateR 30.0s infinite linear;
			-webkit-animation: RotateR 30.0s infinite linear;
		}

		svg .L6 {
			animation: RotateR 35.0s infinite linear;
			-webkit-animation: RotateR 35.0s infinite linear;
		}

		svg .L7 {
			animation: RotateR 40.0s infinite linear;
			-webkit-animation: RotateR 40.0s infinite linear;
		}

		svg .L8 {
			animation: RotateR 45.0s infinite linear;
			-webkit-animation: RotateR 45.0s infinite linear;
		}

		svg .correct {
		-webkit-transform: translate(128px,128px);
		-moz-transform: translate(128px,128px);
		transform: translate(128px,128px);
		}

		svg path {
		-webkit-transform: translate(-128px,-128px);
		-moz-transform: translate(-128px,-128px);
		transform: translate(-128px,-128px);

		-webkit-transform-origin: 0 0;
		-moz-transform-origin: 0 0;
		transform-origin: 0 0;
		}

		@keyframes RotateR {
			0% {
			transform: rotate(0deg);
			}

			100% {
			transform: rotate(360deg);
			}
		}

		@-webkit-keyframes RotateR {
			0% {
			-webkit-transform: rotate(0deg);
			}

			100% {
			-webkit-transform: rotate(360deg);
			}
		}
		]]>
	</style>

	<g class="correct">

		<g class="L8">
			<path id="S8" class="sh11" d="M124.9,12.1C62.4,12.1,11.4,63,11.4,125.5c0,62.6,50.9,113.5,113.5,113.5
			c62.6,0,113.5-50.9,113.5-113.5C238.4,63,187.5,12.1,124.9,12.1z M127.8,222.6c-52.2,0-94.6-42.4-94.6-94.6s42.4-94.6,94.6-94.6
			s94.6,42.4,94.6,94.6S180,222.6,127.8,222.6z"/>
		</g>

		<g class="L7">
			<path id="S7" class="sh10" d="M241.3,68.8l-18.9,57.9c-0.7-51.6-42.8-93.3-94.6-93.3c-30.5,0-57.6,14.5-75,36.9L71.6,13
			c17-8.4,36.1-13,56.3-13C177.1,0,219.9,28,241.3,68.8z M127.8,222.6c-51.4,0-93.3-41.1-94.6-92.2l-18.7,57.2
			C36.1,228.3,78.8,256,127.8,256c20.4,0,39.6-4.8,56.7-13.3l18.9-58C186.2,207.7,158.7,222.6,127.8,222.6z"/>
		</g>

		<g class="L6">
			<path id="S6_1_" class="sh9" d="M237.8,62.6l-27.8,18.6c-2.1-3.7-4.5-7.2-7-10.6L230.8,52C233.3,55.5,235.7,59,237.8,62.6z
			M244.7,75.7L213.6,88c1.8,3.8,3.3,7.8,4.6,11.8l31.1-12.3C247.9,83.5,246.4,79.6,244.7,75.7z M46.1,175.6l-27.8,18.6
			c2.2,3.6,4.6,7.1,7.1,10.5l27.8-18.6C50.6,182.8,48.3,179.3,46.1,175.6z M37.8,157.2L6.7,169.5c1.4,4,3,8,4.7,11.8L42.6,169
			C40.7,165.2,39.2,161.3,37.8,157.2z"/>
		</g>

		<g class="L5">
			<path id="S5_1_" class="sh8" d="M196.6,235.9c-2.1,1.3-4.2,2.6-6.3,3.8L173.1,211c2.2-1.2,4.3-2.4,6.3-3.8L196.6,235.9z
			M255.6,119.5l-33.8-2.6c0.4,3.6,0.7,7.4,0.7,11.1c0,9.2-1.3,18.2-3.8,26.6l33.8,2.6c2.2-9.4,3.4-19.2,3.4-29.2
			C255.8,125.1,255.7,122.3,255.6,119.5z M64.8,16.6c-2.1,1.2-4.2,2.5-6.3,3.8l17.2,28.6c2-1.4,4.1-2.6,6.3-3.8L64.8,16.6z
			M36.7,102.5L2.9,99.9c-2,9-3.1,18.4-3.1,28.1c0,3.3,0.1,6.5,0.4,9.7l33.8,2.6c-0.5-4-0.8-8.2-0.8-12.3
			C33.2,119.2,34.4,110.6,36.7,102.5z"/>
		</g>

		<g class="L4">
			<path id="S4_1_" class="sh7" d="M79.4,46.8c-16.1,9.6-29,23.8-37.1,40.8L16.8,64.3c9.3-16.1,22-30.1,37.2-40.8L79.4,46.8z
			M213,169.2c-8.2,16.9-21.3,31-37.5,40.5l25.4,23.3c15.2-10.6,28-24.5,37.4-40.5L213,169.2z"/>
		</g>

		<g class="L3">
			<path id="S3_1_" class="sh6" d="M229,49.6l-20.3,29.3c-13.6-22.4-36.3-38.7-62.9-43.8L166,5.8C191.2,13.7,213.1,29.2,229,49.6z
			M47.4,177.7L27.2,207c16,20.3,37.9,35.7,63.2,43.4l20.3-29.3C83.9,216.1,61.2,200,47.4,177.7z"/>
		</g>

		<g class="L2">
			<path id="S2_1_" class="sh5" d="M106.5,220.2c-7.5,3.8-16,5.9-25,5.9c-30.8,0-55.7-24.9-55.7-55.7c0-10.7,3-20.7,8.3-29.2
			C39.6,180.1,68.8,211.5,106.5,220.2z M219.9,149.8c-5.3,22.5-18.8,42-37.1,55.1c2.5,0.5,5,0.8,7.7,0.8c19.7,0,35.7-16,35.7-35.7
			C226.2,162.6,223.9,155.6,219.9,149.8z M133.6,11.8c-30.2,0-56.1,18.3-67.2,44.4c16.6-14.2,38-22.8,61.5-22.8
			c32.4,0,61,16.4,78.1,41.3C201,39.1,170.5,11.8,133.6,11.8z"/>
		</g>

		<g class="L1">
			<path id="S1_1_" class="sh4" d="M121.4,250.9c0,1.7-0.1,3.3-0.4,4.9c-19.4-1-37.6-6.4-53.8-15.1c4.1-10.5,14.2-17.9,26.1-17.9
			C108.9,222.9,121.4,235.4,121.4,250.9z M241.3,159.7c-15.5,0-28.1,12.6-28.1,28.1c0,9.6,4.8,18,12.1,23.1c12-14.1,21-30.9,26-49.3
			C248.2,160.4,244.9,159.7,241.3,159.7z M132.6,0.1C131,0,129.4,0,127.8,0c-17.7,0-34.6,3.6-50,10.2c3.6,11.3,14.2,19.5,26.7,19.5
			c15.5,0,28.1-12.6,28.1-28.1C132.6,1.1,132.6,0.6,132.6,0.1z"/>
		</g>

		<path id="White" class="sh3" d="M276.5,202.4c-40.8,0-73.9-33.1-73.9-73.9c0-40.8,33.1-73.9,73.9-73.9s73.9,33.1,73.9,73.9
		C350.4,169.4,317.3,202.4,276.5,202.4z"/>

		<path id="Text" class="sh2" d="M229.5,128.6c-5.2-1.4-7.2-3.8-7.2-9c0-7.2,3.7-8.9,12.5-8.8c4.1,0.1,9.6,0.5,13.4,1.1l-0.5,4.5
		c-3.9-0.1-8-0.3-12-0.3c-5.6,0-7.4,0.1-7.4,3.5c0,3,1.5,3.3,4.5,4.1l8.9,2.2c5.1,1.4,7.4,3.4,7.4,8.9c0,7.8-4.3,9.1-13.7,9.1
		c-2.1,0-7-0.1-12.5-0.9l0.5-4.7c2.9,0.3,6.7,0.3,10.8,0.3c6.9,0,8.9-0.6,8.9-3.9c0-2.9-1.8-3.2-4.8-4L229.5,128.6z M275.1,142.9
		c-2.1,0.6-5.8,0.8-7.4,0.8c-5.4,0-8.2-3.2-8.2-8.9v-18.4h-5.8V112l5.8-0.3v-9.3h6.2v9.2h9.8v4.9h-9.8v17.6c0,3,1.1,4,4.1,4h4.6
		L275.1,142.9z M310.7,127.5c0,12-4.1,16.5-15.1,16.5c-11,0-15.1-4.5-15.1-16.5c0-12.1,4.1-16.7,15.1-16.7
		C306.6,110.8,310.7,115.4,310.7,127.5z M287.1,127.5c0,8.7,2,11.3,8.5,11.3c6.5,0,8.5-2.6,8.5-11.3c0-8.9-2-11.4-8.5-11.4
		C289.1,116.1,287.1,118.6,287.1,127.5z M338.4,116.7h-1.9c-3.4,0-6.5,1.4-11.3,3.6v22.9h-6.3v-31.5h4.8l0.6,4.8
		c4.5-3.6,9.1-5.6,13.3-5.6h1.5L338.4,116.7z M349.5,130.4c0.6,6.9,3.4,8.3,9.4,8.3c3.2,0,7.6-0.4,11.1-0.8l0.6,4.1
		c-3.1,1.4-8.7,1.9-12.5,1.9c-11,0-15.2-4.5-15.2-16.6c0-12.5,4.4-16.5,14.6-16.5c9.8,0,13.8,3.7,13.8,10.6c0,5.7-2.4,9.1-7.7,9.1
		H349.5z M362,125.6c2.7,0,3.1-2.3,3.1-4.2c-0.1-3.8-1.9-5.3-7.2-5.3c-6.1,0-8.2,2-8.4,9.5H362z"/>

	</g>
</svg>
