<?xml version="1.0" encoding="UTF-8" standalone="no"?>
<svg
   xmlns:dc="http://purl.org/dc/elements/1.1/"
   xmlns:cc="http://creativecommons.org/ns#"
   xmlns:rdf="http://www.w3.org/1999/02/22-rdf-syntax-ns#"
   xmlns:svg="http://www.w3.org/2000/svg"
   xmlns="http://www.w3.org/2000/svg"
   viewBox="0 0 562.5 562.5"
   height="562.5"
   width="562.5"
   xml:space="preserve"
   version="1.1"
   id="svg4155"><metadata
     id="metadata4161"><rdf:RDF><cc:Work
         rdf:about=""><dc:format>image/svg+xml</dc:format><dc:type
           rdf:resource="http://purl.org/dc/dcmitype/StillImage" /><dc:title></dc:title></cc:Work></rdf:RDF></metadata><defs
     id="defs4159" /><g
     transform="matrix(1.25,0,0,-1.25,0,562.5)"
     id="g4163"><g
       id="g4165" /><g
       id="g4167"><path
         id="path4169"
         style="fill:#441188;fill-opacity:1;fill-rule:evenodd;stroke:none"
         d="m 410.8631,145.698 c 43.7972,43.7973 43.7972,114.8067 0,158.604 0,0 -106.5611,106.5611 -106.5611,106.5611 -43.7973,43.7972 -114.8067,43.7972 -158.604,0 0,0 -106.56109,-106.5611 -106.56109,-106.5611 -43.797259,-43.7973 -43.797259,-114.8067 0,-158.604 0,0 106.56109,-106.56109 106.56109,-106.56109 43.7973,-43.797259 114.8067,-43.797259 158.604,0 0,0 106.5611,106.56109 106.5611,106.56109 z" /><path
         id="path4171"
         style="fill:#ffdd55;fill-opacity:1;fill-rule:nonzero;stroke:none"
         d="m 331.25,225 c 0,-58.5938 -47.6563,-106.25 -106.25,-106.25 -58.5938,0 -106.25,47.6562 -106.25,106.25 0,58.5938 47.6562,106.25 106.25,106.25 58.5937,0 106.25,-47.6562 106.25,-106.25 z M 375,225 C 375,307.8125 307.8125,375 225,375 142.1875,375 75,307.8125 75,225 75,142.1875 142.1875,75 225,75 c 82.8125,0 150,67.1875 150,150 z" /><path
         id="path4173"
         style="fill:#ffdd55;fill-opacity:1;fill-rule:evenodd;stroke:none"
         d="m 178.3058,157.4747 c 0,0 -0.9539,0.0227 -0.9539,0.0227 0,0 -0.9517,0.0683 -0.9517,0.0683 0,0 -0.9473,0.1135 -0.9473,0.1135 0,0 -0.9408,0.1586 -0.9408,0.1586 0,0 -0.9322,0.2033 -0.9322,0.2033 0,0 -0.9215,0.2475 -0.9215,0.2475 0,0 -0.9086,0.2911 -0.9086,0.2911 0,0 -0.8937,0.3342 -0.8937,0.3342 0,0 -0.8767,0.3764 -0.8767,0.3764 0,0 -0.8578,0.4178 -0.8578,0.4178 0,0 -0.8369,0.4582 -0.8369,0.4582 0,0 -0.814,0.4977 -0.814,0.4977 0,0 -0.7895,0.5358 -0.7895,0.5358 0,0 -0.7629,0.573 -0.7629,0.573 0,0 -0.7348,0.6086 -0.7348,0.6086 0,0 -0.7049,0.643 -0.7049,0.643 0,0 -0.6734,0.6759 -0.6734,0.6759 0,0 -0.6404,0.7072 -0.6404,0.7072 0,0 -0.606,0.737 -0.606,0.737 0,0 -0.5701,0.7651 -0.5701,0.7651 0,0 -0.533,0.7913 -0.533,0.7913 0,0 -0.4947,0.8159 -0.4947,0.8159 0,0 -0.4552,0.8385 -0.4552,0.8385 0,0 -0.4146,0.8593 -0.4146,0.8593 0,0 -0.3732,0.8781 -0.3732,0.8781 0,0 -0.331,0.8949 -0.331,0.8949 0,0 -0.2878,0.9097 -0.2878,0.9097 0,0 -0.2442,0.9223 -0.2442,0.9223 0,0 -0.1998,0.933 -0.1998,0.933 0,0 -0.1552,0.9414 -0.1552,0.9414 0,0 -0.1101,0.9477 -0.1101,0.9477 0,0 -0.0647,0.9519 -0.0647,0.9519 0,0 -0.0193,0.954 -0.0193,0.954 0,0 0.0262,0.9537 0.0262,0.9537 0,0 0.0717,0.9514 0.0717,0.9514 0,0 0.117,0.947 0.117,0.947 0,0 0.162,0.9402 0.162,0.9402 0,0 0.2067,0.9315 0.2067,0.9315 0,0 0.2508,0.9205 0.2508,0.9205 0,0 0.2945,0.9076 0.2945,0.9076 0,0 0.3374,0.8924 0.3374,0.8924 0,0 46.8116,115.4124 46.8116,115.4124 0,0 0.3771,0.8701 0.3771,0.8701 0,0 0.418,0.8512 0.418,0.8512 0,0 0.4579,0.8304 0.4579,0.8304 0,0 0.4967,0.8078 0.4967,0.8078 0,0 0.5344,0.7834 0.5344,0.7834 0,0 0.571,0.7571 0.571,0.7571 0,0 0.6062,0.7292 0.6062,0.7292 0,0 0.6401,0.6997 0.6401,0.6997 0,0 0.6725,0.6685 0.6725,0.6685 0,0 0.7035,0.6359 0.7035,0.6359 0,0 0.7328,0.6018 0.7328,0.6018 0,0 0.7606,0.5665 0.7606,0.5665 0,0 0.7865,0.5297 0.7865,0.5297 0,0 0.8107,0.4919 0.8107,0.4919 0,0 0.8332,0.4529 0.8332,0.4529 0,0 0.8537,0.4128 0.8537,0.4128 0,0 0.8723,0.372 0.8723,0.372 0,0 0.8889,0.3302 0.8889,0.3302 0,0 0.9036,0.2877 0.9036,0.2877 0,0 0.9162,0.2445 0.9162,0.2445 0,0 0.9268,0.2008 0.9268,0.2008 0,0 0.9353,0.1567 0.9353,0.1567 0,0 0.9416,0.1121 0.9416,0.1121 0,0 0.9459,0.0674 0.9459,0.0674 0,0 0.948,0.0225 0.948,0.0225 0,0 0.948,-0.0225 0.948,-0.0225 0,0 0.9459,-0.0674 0.9459,-0.0674 0,0 0.9416,-0.1121 0.9416,-0.1121 0,0 0.9353,-0.1567 0.9353,-0.1567 0,0 0.9268,-0.2008 0.9268,-0.2008 0,0 0.9162,-0.2445 0.9162,-0.2445 0,0 0.9036,-0.2877 0.9036,-0.2877 0,0 0.8889,-0.3302 0.8889,-0.3302 0,0 0.8723,-0.372 0.8723,-0.372 0,0 0.8537,-0.4128 0.8537,-0.4128 0,0 0.8332,-0.4529 0.8332,-0.4529 0,0 0.8107,-0.4919 0.8107,-0.4919 0,0 0.7866,-0.5297 0.7866,-0.5297 0,0 0.7605,-0.5665 0.7605,-0.5665 0,0 0.7328,-0.6018 0.7328,-0.6018 0,0 0.7035,-0.6359 0.7035,-0.6359 0,0 0.6725,-0.6685 0.6725,-0.6685 0,0 0.6401,-0.6997 0.6401,-0.6997 0,0 0.6062,-0.7292 0.6062,-0.7292 0,0 0.571,-0.7571 0.571,-0.7571 0,0 0.5344,-0.7834 0.5344,-0.7834 0,0 0.4967,-0.8078 0.4967,-0.8078 0,0 0.4579,-0.8304 0.4579,-0.8304 0,0 0.418,-0.8512 0.418,-0.8512 0,0 0.3771,-0.8701 0.3771,-0.8701 0,0 46.8116,-115.4124 46.8116,-115.4124 0,0 0.3374,-0.8924 0.3374,-0.8924 0,0 0.2945,-0.9076 0.2945,-0.9076 0,0 0.2508,-0.9205 0.2508,-0.9205 0,0 0.2067,-0.9315 0.2067,-0.9315 0,0 0.162,-0.9402 0.162,-0.9402 0,0 0.117,-0.947 0.117,-0.947 0,0 0.0717,-0.9514 0.0717,-0.9514 0,0 0.0262,-0.9537 0.0262,-0.9537 0,0 -0.0192,-0.954 -0.0192,-0.954 0,0 -0.0648,-0.9519 -0.0648,-0.9519 0,0 -0.1101,-0.9477 -0.1101,-0.9477 0,0 -0.1551,-0.9414 -0.1551,-0.9414 0,0 -0.1999,-0.933 -0.1999,-0.933 0,0 -0.2442,-0.9223 -0.2442,-0.9223 0,0 -0.2878,-0.9097 -0.2878,-0.9097 0,0 -0.3309,-0.8949 -0.3309,-0.8949 0,0 -0.3732,-0.8781 -0.3732,-0.8781 0,0 -0.4147,-0.8593 -0.4147,-0.8593 0,0 -0.4552,-0.8385 -0.4552,-0.8385 0,0 -0.4946,-0.8159 -0.4946,-0.8159 0,0 -0.533,-0.7913 -0.533,-0.7913 0,0 -0.5702,-0.7651 -0.5702,-0.7651 0,0 -0.6059,-0.737 -0.6059,-0.737 0,0 -0.6405,-0.7072 -0.6405,-0.7072 0,0 -0.6734,-0.6759 -0.6734,-0.6759 0,0 -0.7049,-0.643 -0.7049,-0.643 0,0 -0.7348,-0.6086 -0.7348,-0.6086 0,0 -0.7629,-0.573 -0.7629,-0.573 0,0 -0.7894,-0.5358 -0.7894,-0.5358 0,0 -0.8141,-0.4977 -0.8141,-0.4977 0,0 -0.8369,-0.4582 -0.8369,-0.4582 0,0 -0.8578,-0.4178 -0.8578,-0.4178 0,0 -0.8767,-0.3764 -0.8767,-0.3764 0,0 -0.8937,-0.3342 -0.8937,-0.3342 0,0 -0.9086,-0.2911 -0.9086,-0.2911 0,0 -0.9214,-0.2475 -0.9214,-0.2475 0,0 -0.9322,-0.2033 -0.9322,-0.2033 0,0 -0.9409,-0.1586 -0.9409,-0.1586 0,0 -0.9473,-0.1135 -0.9473,-0.1135 0,0 -0.9517,-0.0683 -0.9517,-0.0683 0,0 -0.9538,-0.0227 -0.9538,-0.0227 0,0 -93.6231,0 -93.6231,0 z m 0,20 c 0,0 93.6231,0 93.6231,0 0,0 -46.8116,115.4124 -46.8116,115.4124 0,0 -46.8115,-115.4124 -46.8115,-115.4124 z" /><g
         transform="matrix(0.75,0,0,-0.75,0,450)"
         id="g4175"><path
           id="path4177"
           style="fill:none;stroke:#ffdd55;stroke-width:26.66666985;stroke-linecap:round;stroke-linejoin:round;stroke-miterlimit:1.41421402;stroke-dasharray:none;stroke-opacity:1"
           d="m 307.0915,367.5999 c 0,0 -84.6338,-106.4347 -84.6338,-106.4347" /></g></g></g></svg>