<?xml version="1.0" encoding="UTF-8" standalone="no"?>
<svg
   xmlns:dc="http://purl.org/dc/elements/1.1/"
   xmlns:cc="http://creativecommons.org/ns#"
   xmlns:rdf="http://www.w3.org/1999/02/22-rdf-syntax-ns#"
   xmlns:svg="http://www.w3.org/2000/svg"
   xmlns="http://www.w3.org/2000/svg"
   viewBox="0 0 562.5 562.5"
   height="562.5"
   width="562.5"
   xml:space="preserve"
   version="1.1"
   id="svg4155"><metadata
     id="metadata4161"><rdf:RDF><cc:Work
         rdf:about=""><dc:format>image/svg+xml</dc:format><dc:type
           rdf:resource="http://purl.org/dc/dcmitype/StillImage" /><dc:title></dc:title></cc:Work></rdf:RDF></metadata><defs
     id="defs4159" /><g
     transform="matrix(1.25,0,0,-1.25,0,562.5)"
     id="g4163"><g
       id="g4165" /><g
       id="g4167"><path
         id="path4169"
         style="fill:#441188;fill-opacity:1;fill-rule:evenodd;stroke:none"
         d="m 410.8631,145.698 c 43.7972,43.7973 43.7972,114.8067 0,158.604 0,0 -106.5611,106.5611 -106.5611,106.5611 -43.7973,43.7972 -114.8067,43.7972 -158.604,0 0,0 -106.56109,-106.5611 -106.56109,-106.5611 -43.797259,-43.7973 -43.797259,-114.8067 0,-158.604 0,0 106.56109,-106.56109 106.56109,-106.56109 43.7973,-43.797259 114.8067,-43.797259 158.604,0 0,0 106.5611,106.56109 106.5611,106.56109 z" /><path
         id="path4171"
         style="fill:#ffdd55;fill-opacity:1;fill-rule:nonzero;stroke:none"
         d="m 331.25,225 c 0,-58.5938 -47.6563,-106.25 -106.25,-106.25 -58.5938,0 -106.25,47.6562 -106.25,106.25 0,58.5938 47.6562,106.25 106.25,106.25 58.5937,0 106.25,-47.6562 106.25,-106.25 z M 375,225 C 375,307.8125 307.8125,375 225,375 142.1875,375 75,307.8125 75,225 75,142.1875 142.1875,75 225,75 c 82.8125,0 150,67.1875 150,150 z" /><g
         transform="matrix(0.75,0,0,-0.75,0,450)"
         id="g4173"><path
           id="path4175"
           style="fill:none;stroke:#ffdd55;stroke-width:26.66666985;stroke-linecap:round;stroke-linejoin:round;stroke-miterlimit:1.41421402;stroke-dasharray:none;stroke-opacity:1"
           d="m 300,218.7598 c 44.8677,0 81.2402,36.3725 81.2402,81.2402 0,44.8677 -36.3725,81.2402 -81.2402,81.2402 -44.8677,0 -81.2402,-36.3725 -81.2402,-81.2402 0,-44.8677 36.3725,-81.2402 81.2402,-81.2402 z" /></g></g></g></svg>