<?xml version="1.0" standalone="no"?>
<!DOCTYPE svg PUBLIC "-//W3C//DTD SVG 1.1//EN" "http://www.w3.org/Graphics/SVG/1.1/DTD/svg11.dtd" >
<svg>
<metadata>
Created by FontForge 20120731 at Wed May  6 08:33:15 2015
 By RBRat3,,,
Created by RBR, with FontForge 2.0 (http://fontforge.sf.net)
</metadata>
<defs>
<font id="osu!font" horiz-adv-x="2048" >
  <font-face 
    font-family="osu!font"
    font-weight="500"
    font-stretch="normal"
    units-per-em="2048"
    panose-1="2 0 6 3 0 0 0 0 0 0"
    ascent="1638"
    descent="-410"
    bbox="0 -346.109 1984.27 1574.03"
    underline-thickness="102"
    underline-position="-204"
    stemh="144"
    stemv="144"
    unicode-range="U+0020-E049"
  />
<missing-glyph horiz-adv-x="1024" 
d="M102 0v1092h820v-1092h-820zM204 102h616v888h-616v-888z" />
    <glyph glyph-name=".notdef" horiz-adv-x="1024" 
d="M102 0v1092h820v-1092h-820zM204 102h616v888h-616v-888z" />
    <glyph glyph-name="space" unicode=" " horiz-adv-x="1024" 
 />
    <glyph glyph-name="Mode_osu" unicode="&#xe000;" horiz-adv-x="1824" 
d="M1824 614c0 -503.7 -408.3 -912 -912 -912s-912 408.3 -912 912s408.3 912 912 912s912 -408.3 912 -912zM911 1370.2c-417.6 0 -756.2 -338.601 -756.2 -756.2s338.601 -756.2 756.2 -756.2s756.2 338.601 756.2 756.2c0.0996094 417.6 -338.5 756.2 -756.2 756.2z
M912 1196.4c321.6 0 582.3 -260.801 582.3 -582.4s-260.7 -582.3 -582.3 -582.3c-321.7 0 -582.4 260.7 -582.4 582.3c0 321.7 260.801 582.4 582.4 582.4z" />
    <glyph glyph-name="Mode_Mania" unicode="&#xe001;" horiz-adv-x="1824" 
d="M1007 126.7c0 -52.5 -42.5 -95 -95 -95s-95 42.5 -95 95v974.7c0 52.5 42.5 95 95 95s95 -42.5 95 -95v-974.7zM676.4 823v-418c0 -52.5 -42.5 -95 -95 -95s-95 42.5 -95 95v418c0 52.5 42.5 95 95 95s95 -42.5 95 -95zM1337.6 823v-418c0 -52.5 -42.5 -95 -95 -95
s-95 42.5 -95 95v418c0 52.5 42.5 95 95 95s95 -42.5 95 -95zM912 1526c503.7 0 912 -408.3 912 -912s-408.3 -912 -912 -912s-912 408.3 -912 912s408.3 912 912 912zM1667.3 614c0 417.6 -338.6 756.2 -756.2 756.2c-417.6 0 -756.199 -338.601 -756.199 -756.2
s338.6 -756.2 756.199 -756.2c417.601 0 756.2 338.601 756.2 756.2z" />
    <glyph glyph-name="Mode_CTB" unicode="&#xe002;" horiz-adv-x="1824" 
d="M712.5 735.6c0 -80.7998 -65.5 -146.3 -146.3 -146.3s-146.3 65.5 -146.3 146.3c0 80.8008 65.5 146.301 146.3 146.301s146.3 -65.5 146.3 -146.301zM1257.8 881.9c80.7998 0 146.3 -65.5 146.3 -146.301c0 -80.7998 -65.5 -146.3 -146.3 -146.3
s-146.3 65.5 -146.3 146.3c0 80.8008 65.5 146.301 146.3 146.301zM912 395.5c80.7998 0 146.3 -65.5 146.3 -146.3s-65.5 -146.3 -146.3 -146.3s-146.3 65.5 -146.3 146.3s65.5 146.3 146.3 146.3zM912 1526c503.7 0 912 -408.3 912 -912s-408.3 -912 -912 -912
s-912 408.3 -912 912s408.3 912 912 912zM1667.3 614c0 417.6 -338.6 756.2 -756.2 756.2c-417.6 0 -756.199 -338.601 -756.199 -756.2s338.6 -756.2 756.199 -756.2c417.601 0 756.2 338.601 756.2 756.2z" />
    <glyph glyph-name="Mode_Taiko" unicode="&#xe003;" horiz-adv-x="1824" 
d="M912 1196.4c321.7 0 582.3 -260.801 582.3 -582.4s-260.6 -582.3 -582.3 -582.3s-582.4 260.6 -582.4 582.3s260.801 582.4 582.4 582.4zM485.5 614c0 -209 150.2 -382.8 348.6 -419.5v838.9c-198.3 -36.6006 -348.6 -210.4 -348.6 -419.4zM989.9 194.6
c198.399 36.6006 348.6 210.4 348.6 419.4c0 208.9 -150.2 382.8 -348.6 419.4v-838.801zM1824 614c0 -503.7 -408.3 -912 -912 -912s-912 408.3 -912 912s408.3 912 912 912s912 -408.3 912 -912zM911 1370.2c-417.6 0 -756.2 -338.601 -756.2 -756.2
s338.601 -756.2 756.2 -756.2s756.2 338.601 756.2 756.2c0.0996094 417.6 -338.5 756.2 -756.2 756.2z" />
    <glyph glyph-name="Mode_BG" unicode="&#xe004;" horiz-adv-x="1683" 
d="M841.7 1455.7c464.8 0 841.7 -376.9 841.7 -841.7s-376.9 -841.7 -841.7 -841.7s-841.7 376.9 -841.7 841.7s376.9 841.7 841.7 841.7z" />
    <glyph glyph-name="CirX" unicode="&#xe005;" horiz-adv-x="1824" 
d="M1824 614c0 -503.7 -408.3 -912 -912 -912s-912 408.3 -912 912s408.3 912 912 912s912 -408.3 912 -912zM911 1370.2c-417.6 0 -756.2 -338.601 -756.2 -756.2s338.601 -756.2 756.2 -756.2s756.2 338.601 756.2 756.2c0.0996094 417.6 -338.5 756.2 -756.2 756.2z
M1046.3 614l277.7 -277.7c37.0996 -37 37.0996 -97.2002 0 -134.3c-37 -37.0996 -97.2002 -37.0996 -134.3 0l-277.7 277.7l-277.7 -277.7c-37 -37.0996 -97.2002 -37.0996 -134.3 0c-37.0996 37 -37.0996 97.2002 0 134.3l277.7 277.7l-277.7 277.7
c-37.0996 37 -37 97.2002 0 134.3s97.2002 37.0996 134.3 0l277.7 -277.7l277.7 277.7c37 37.0996 97.2002 37.0996 134.3 0c37.0996 -37 37.0996 -97.2002 0 -134.3z" />
    <glyph glyph-name="Cir_osu" unicode="&#xe006;" horiz-adv-x="1824" 
d="M1824 614c0 -503.7 -408.3 -912 -912 -912s-912 408.3 -912 912s408.3 912 912 912s912 -408.3 912 -912zM911 1370.2c-417.6 0 -756.2 -338.601 -756.2 -756.2s338.601 -756.2 756.2 -756.2s756.2 338.601 756.2 756.2c0.0996094 417.6 -338.5 756.2 -756.2 756.2z
M504.8 440.8c-95.2998 0 -155.2 62.9004 -155.2 168.601c0 103.199 58.2002 170.3 155.2 170.3c84 0 155.601 -51.4004 155.601 -170.3c0 -112.9 -66.4004 -168.601 -155.601 -168.601zM504.8 508.1c63.7998 0 65.6006 67.8008 65.6006 100.301
c0 32.5996 -3.90039 100.8 -65.6006 100.8c-62.2998 0 -65.2002 -68.2002 -65.2002 -100.8c0 -32.5 2.90039 -100.301 65.2002 -100.301zM738 618.3c-24.5 25.7998 -32.9004 98.2002 14.2002 133.4c66.7002 49.8994 167.399 17.0996 188.6 9.5
c-1.7002 -19.6006 -9.2002 -48.4004 -18.5 -64.2998c-9.7998 4.2998 -65.8994 27.0996 -104.2 9.39941c-12.8994 -6.2002 -17.7998 -28.7002 -3.39941 -40.2998c9.89941 -8 59.5996 -21.5 59.5996 -21.5c11.6006 -3.40039 36.6006 -9.7998 55.7998 -30
c19.3008 -20.4004 20.8008 -49.2998 21 -64.4004c0.5 -41.1992 -26.0996 -83.5 -82.7998 -101.199c-17.5996 -5.5 -45.5996 -11.2002 -86.5996 -7.7002c-37.9004 3.2002 -62.2002 12.7998 -71.2002 16.2998c1.5 22.3008 9.7002 49 18 67.4004
c15 -6.2998 73.2002 -26.5996 115.3 -8.59961c29.5 12.5996 21.9004 41.6992 11.6006 49.2998c-22.7002 16.7998 -88.4004 22.1992 -117.4 52.6992zM1011.9 771.4c24.7998 4.7998 59.5 5.19922 88.6992 0v-171.101c0 -72.2998 21.5 -95.7002 105 -81.5v253.101
c25.4004 5.2998 65.4004 4.69922 88.3008 0v-311c-13.3008 -4.7002 -62.4004 -19.7002 -121.301 -19.7002c-64.6992 0 -161.199 4.09961 -161.199 157.399v172.801h0.5zM1378.9 448c-6.10059 34.2998 -3.90039 71.5 0 91.7998c29 5.2998 63.1992 4.90039 91.7998 0
c4.7998 -26.8994 5.2002 -64.7998 0 -91.7998c-25.6006 -4.59961 -60 -5 -91.7998 0zM1376.3 898c33.2002 5.5 63.1006 4.7998 96.9004 0l-6.40039 -305.8c-25 -4.7002 -58.5 -6.10059 -84.3994 0z" />
    <glyph glyph-name="Direct" unicode="&#xe007;" horiz-adv-x="1824" 
d="M1824 614c0 -503.7 -408.3 -912 -912 -912s-912 408.3 -912 912s408.3 912 912 912s912 -408.3 912 -912zM911 1370.2c-417.6 0 -756.2 -338.601 -756.2 -756.2s338.601 -756.2 756.2 -756.2s756.2 338.601 756.2 756.2c0.0996094 417.6 -338.5 756.2 -756.2 756.2z
M979.2 59.5c-18.6006 -18.5996 -43 -27.7998 -67.2998 -27.7998c-24.3008 0 -48.7002 9.2998 -67.2002 27.7998l-339.2 339.2c-37.0996 37.0996 -37.0996 97.2998 0 134.399c37.0996 37.1006 97.2998 37.1006 134.4 0l272 -272l272 272
c37.0996 37.1006 97.2998 37.1006 134.399 0c37.1006 -37.0996 37.1006 -97.2998 0 -134.399zM979.2 557.3c-18.6006 -18.5996 -43 -27.7998 -67.2998 -27.7998c-24.3008 0 -48.7002 9.2998 -67.2002 27.7998l-339.2 339.2c-37.0996 37.0996 -37.0996 97.2998 0 134.4
c37.0996 37.0996 97.2998 37.0996 134.4 0l272 -272l272 272c37.0996 37.0996 97.2998 37.0996 134.399 0c37.1006 -37.1006 37.1006 -97.3008 0 -134.4z" />
    <glyph glyph-name="BAT" unicode="&#xe008;" 
d="M521.5 784.2c-90.1 -0.799988 -185.696 97.201 -217.597 228.6c-27.2 112.7 -12.4 259.7 35 391.8c11.701 31.1 29.5 30.3 63.701 15.5c96.4 -40.4 196.6 -167.1 242.5 -249.5c76.901 49.8 216 55.2001 289.1 25.7001c149.196 103.4 405.596 189.7 540.006 189.7
c31.9 0 50.5 3.09998 32.5901 -54.4c-28.8 -92.5 -67.5901 -520.099 -428.09 -580.799l-10.9099 -16.3c7.79993 0 17.1 -3.89996 22.5 -7c305.41 -5.39996 557.11 187.399 707.91 352.999c22.5 24.9 45.0901 8.5 61.39 -18.7c212.9 -353.7 136 -736.2 -104.9 -972.6
c-6.19995 -6.2002 -39.6 -0.799805 -25.6 25.6998c-54.4 66.1 -225.3 146.2 -340.3 152.4l-31.1001 -24.901c-20.2 -15.5 -44.2999 10.901 -24.1 28l31.1 28c-28.7999 32.701 -125.9 71.5 -218.3 56.8c-20.2001 -36.5 -60.6 -87.099 -85.5 -111.899
c-6.20007 -157.8 -160.797 -126.7 -184.198 -59.901c-45.8 -9.299 -171.7 -13.2 -215.2 27.201c-14 -37.3 -60.6 -68.4 -117.3 -64.499c-10.9 -8.59999 -16.301 -26.4 -16.301 -26.4s17.1 -21.8006 21.8 -29.4998c8.60004 -14 -5.39996 -36.5 -28.801 -19.4004
l-24.9 16.2998c-58.3 -59.0996 -92.5 -156.3 -99.5 -234.8c-3.89999 -43.5 -25.601 -82.402 -69.9 -25.7c-318.7 414.099 -288.4 984.799 -212.3 1149.6c20.2 43.5 67.6 65.3 121.2 -2.29999c104.9 -133.7 285.9 -268.2 377.601 -316.4c0 0 -9.29999 9.29999 -8.5 15.5
c-44.201 11.7 -83.901 71.5 -83.101 111.2z" />
    <glyph glyph-name="Bubble" unicode="&#xe009;" 
d="M1053.8 1573c153.1 0 227.3 -143.9 227.3 -143.9s168.6 126.8 349.5 0c106.7 -75 86.6 -208.1 86.6 -208.1s215.7 -27.8 249 -223.501c35.6001 -212.7 -190.2 -273 -190.2 -273s69.6 -139.2 -70.4 -241.3c-121.4 -88.2 -337.9 35.6 -337.9 35.6s0 -157 -164.7 -192.6
c-169.3 -36.4 -298.501 75 -298.501 75s-125.3 -92.8 -247.399 -47.2c-125.3 47.2 -145.4 168.601 -145.4 168.601s-181.7 -41 -302.3 109.099c-85.799 106.7 2.3 292.401 2.3 292.401s-184.8 99 -119.9 273.8c64.2002 171.7 278.4 141.5 278.4 141.5s17 206.5 219.6 232
c191 23.2 247.4 -121.4 247.4 -121.4s39.5 123 216.6 123zM793.999 231.899c122.1 -30.2 146.099 -169.401 23.299 -255.301c-136.1 -95.8997 -375.8 -19.2998 -376.6 82.8007c-0.799988 106 129.101 90.4996 172.401 113.701c56.4 29.4 68 86.6 180.9 58.8z
M534.898 -121.602c78.901 -19.299 171.7 -75.001 140.7 -161.001c-21.6 -61.799 -141.5 -72.7 -201 -57.2c-51.8 13.2 -176.3 75.101 -159.3 135.401c24 87.4 145.4 100.6 219.6 82.8z" />
    <glyph glyph-name="Mod_4k" unicode="&#xe00b;" 
d="M519.7 37.2002l2.698 -214.599c-123.299 4.599 -240.399 11.599 -350.599 19.299c-24.7 1.901 -48.7 3.5 -72.3 5.401l-35.5 212.7l504.4 1346.3l108.201 -7c32.5 -1.90002 65.299 -3.5 98.2 -4.6001zM1984 38.7012l-25.9 -193.4
c-135.3 -8.901 -277.5 -16.601 -426.8 -21.7l12.7999 188.7l-108.6 623.8l114 1.89996l10.8 129.6l-165.1 635.399c22 1.5 43.7001 3.09998 65.3 4.59998l67.3 6.20007l251.3 -766.199zM1391.8 635.501l108.6 -625.401l-12.4 -188
c-140.3 -4.60001 -286.4 -7.3 -438.7 -8.10001v197.2l10.3999 614.2l48.3 -0.799011l-15.5 766.499c38.3 0.800049 76.9 1.5 114.8 2.70007l80 -629.199l-7.70007 -131.5zM832.498 628.9l184.402 -3.099l-10.8 -614.2v-197.6h-23.603l-416.7 8.5l-2.29999 211.2
l255.4 1359.8c25.901 -0.800049 51.801 -1.5 78.101 -1.90002l-55.7 -628.9z" />
    <glyph glyph-name="Mod_5k" unicode="&#xe00c;" 
d="M436.9 147.8l2.29901 -170.5c-98.3 3.7998 -191.599 9.2002 -279.199 15.4004c-19.6 1.20019 -38.8 2.70019 -57.6 4.20019l-28.4 169l401.3 1070.6l86.4 -5.40002c25.7 -1.5 51.8 -3.09998 78.3 -3.79993zM1951 27.2002l1.5 -0.399399
c-106 -11.0996 -217.7 -21.0996 -336 -29.5996l20.7 154.8l-163.2 483.5l122.9 9.20001l13.7999 110.6l-238.8 499.999c7.69995 0.799927 15.4 1.8999 23 2.69995l589.1 -1071.4zM685.699 618.201l146.7 -2.29999l-8.39996 -488.9v-157h-18.8l-331.8 6.5l-2.29898 168.2
l203.5 1081c20.4 -0.799927 41.1 -1.19995 62.2 -1.5l-44.2 -500.399zM1130.8 623.201l86.3999 -497.299l-9.59998 -149.4c-111.7 -3.7999 -228.102 -6.0997 -349.102 -6.5v157.1l8.40002 488.5l38.401 -0.799988l-12.699 609.398
c30.699 0.400024 61.099 1.20007 91.399 2.30005l63.401 -500.398l-6.09998 -104.5zM1438.7 633.202l163.2 -484.3l-20.4 -153.6c-107.9 -7.29976 -220.8 -13.0997 -339.5 -17.2998l10 149.8l-86.4 496.2l90.6 1.20001l8.80005 102.901l-131.7 505.797
c17.7 1.19995 34.8999 2.29993 52.2 3.5l209.3 -607.898z" />
    <glyph glyph-name="Mod_6k" unicode="&#xe00d;" 
d="M1489.8 1153l494.2 -897l-27.6 -133.6l1.19995 -0.400002c-88.7 -9.3 -182.7 -17.5 -281.9 -24.5l17.1001 129.7l-136.9 404.6l103 7.79999l11.7 92.799l-200.2 418.201c7 1.20007 13.2 2 19.4 2.40002zM1526.7 630.3l136.9 -405.4l-17.1 -128.9
c-90.6 -6.2002 -185.1 -10.9004 -284.6 -14.4004l8.19995 125.4l-72.2999 415.5l75.7999 1.20001l7.40002 86.2l-110.4 423.3c14.8 0.800049 29.2001 1.90002 43.5 3.1001l175.4 -509.1zM1268.6 621.801l72.7001 -416.301l-8.20007 -125
c-93.7 -3.0996 -191.3 -5 -292.8 -5.4004v131.3l7 408.901l32.2999 -0.401001l-10.5 510.7c25.7001 0.400024 51.3 1.20007 76.6 1.90002l53.3 -418.999l-5.09998 -87.4zM717.598 80.4004l-1.60004 140.601l170.3 905.599c17.099 -0.400024 34.599 -1.19995 52.099 -1.19995
l-36.9 -419l-5.79999 -88.5l122.903 -1.90002l-7.39996 -409.3v-131.7h-15.602zM382.398 238.901l151.301 398.401l101.5 -8.901l156.3 502.099c21.8 -1.19995 43.5 -2.30005 65.3 -3.5l-170.3 -903.599l1.89996 -142.9c-82.4 3.0996 -160.6 7.7998 -234.1 12.7998
c-16.3 1.2002 -32.3 2.2998 -48.2 3.5zM639.799 1142.9l-185.802 -408.097l5.79999 -90.901l43.9 -3.89996l-150.9 -398l21.4 -142.5c-102.599 8.5 -195.199 18.3 -276.499 28.3l-33.7998 139l500 885.798c-0.299011 0.400024 63.101 -8.5 75.901 -9.69995z" />
    <glyph glyph-name="Mod_7k" unicode="&#xe00e;" 
d="M1558.5 1071l425.5 -773.6l-23.7 -115.2l1.19995 -0.399994c-76.2 -8.2 -157.1 -15.2 -242.7 -21.401l14.7999 111.701l-118 349.9l88.7001 6.59998l10.1 80.2l-172.7 360.7c5.90002 0.400024 11.3 1.19995 16.8 1.5zM1590 620l117.9 -349.8l-14.8 -110.9
c-77.7999 -5.10001 -159.5 -9.3 -245.1 -12.4l7 108.201l-62.2 358.4l65.2999 1.20001l6.20007 74.3l-94.5 364.999c12.7999 0.800049 25.2999 1.59998 37.7 2.69995l150.9 -439zM1367.9 613l62.6 -359.2l-7 -107.8c-80.5 -2.7 -164.5 -4.3 -252.1 -4.7v113.2l6.19995 352.6
l27.6 -0.401001l-8.8999 440.101c22.2 0.399902 44.2999 0.799927 65.7 1.59998l45.9 -361.1l-4.30005 -75.5zM893.299 146.1l-1.60004 121.4l147.001 780.6c14.8 -0.400024 29.6001 -0.799927 44.7001 -1.19995l-31.9 -361.1l-5.09998 -76.3l105.8 -1.90002l-6.19995 -353
v-113.6h-13.6zM605.1 282.6l130.301 343.6l87.5 -7.40002l134.6 433.2c18.7 -1.19995 37.3 -1.90002 56.399 -2.69995l-146.599 -779.401l1.599 -123.4c-71.2 2.70001 -138.1 6.60101 -201.501 10.9c-14 1.201 -28 1.901 -41.599 3.101zM330.802 307.2l187.5 342.099
l38.099 -4.70001l237.3 421.401c10.901 -1.19995 21.801 -2.30005 32.701 -3.5l-159.9 -352.201l5.09998 -78.2l37.7 -3.5l-129.901 -343.201l18.3 -122.599c-88.3 7.40001 -168 15.6 -238.099 24.501zM644.702 1086.2l-245.401 -347.099l7.39999 -77.1l84.8 -10.1
l-187.1 -341.299l28.8 -120.201c-6.599 0.800003 -12.8 1.89999 -19.399 2.7c-48.6 6.599 -91.8 12.799 -129.1 19.099c-33.099 5.401 -61.8 10.5 -85.9999 14.8l-34.7001 116.4l575.3 743.6c1.90002 0 3.5 -0.400024 5.40002 -0.800049z" />
    <glyph glyph-name="Mod_8k" unicode="&#xe00f;" 
d="M1520.6 1033l463.4 -668.802l-30.8 -104.5c-50.2 -7.39999 -102.8 -14.4 -158.9 -21c-14 -1.599 -28.4 -3.099 -42.8 -4.69901l21.4 102.5l-373 679.401c41.2999 5 81.7999 10.9 120.7 17.1zM1376.6 1012.7l373.8 -679.802l-21 -100.9l1.19995 -0.399994
c-67 -7 -138.2 -13.3 -213 -18.701l13.2001 98.201l-104 307.099l77.8999 5.79999l8.6001 70.2l-151.5 316.903c5 0.900024 10.1 1.20001 14.7999 1.60004zM1404.2 616.299l103.6 -307.098l-12.8 -97.4c-68.5 -4.7 -140.2 -8.2 -215.3 -10.901l6.20007 95.1l-54.9 314.5
l57.6 0.799988l5.40002 65.5l-83.3 320.8c11.3 0.799011 22.2001 1.599 33.1001 2.29901l132.8 -385.9zM1209.1 610.102l54.9 -315.702l-6.19995 -94.7c-70.9 -2.3 -144.5 -3.899 -221.6 -4.3v99.401l5.5 309.9l24.5 -0.399963l-7.79993 387
c19.5 0.399963 38.9 0.800964 58 1.59998l40.1 -317.7l-3.90002 -66.3zM792.499 199.7l-1.20105 106.801l128.9 686c12.901 -0.399963 26.101 -0.800964 39.301 -1.20099l-28 -317.7l-4.30005 -67l93.101 -1.59998l-5.5 -310.3v-99.8h-12.1zM538.998 320.101l114.5 302.101
l76.7 -6.599l118.401 380.799c16.4 -1.19995 32.7 -1.89996 49.5 -2.29999l-128.901 -684.8l1.59998 -108.401c-62.3 2.3 -121.5 5.8 -176.8 9.701c-12.5 0.798996 -24.5 1.899 -36.6 2.69899zM298.398 341.603l164.701 300.5l33.5 -3.901l208.7 370.298
c9.29999 -1.20001 19.099 -2.29999 28.399 -3.09998l-140.5 -309.498l4.29999 -69l33.1 -3.099l-114.1 -301.7l16 -108c-77.5 6.2 -147.6 13.6 -209.1 21.4zM574.099 1026.4l-215.699 -305.199l6.60001 -67.8l74.8 -9l-164.8 -300.099l25.3 -105.6
c-5.79999 0.800003 -11.3 1.60001 -17.1 2.3c-42.4 5.8 -80.6 11.3 -113.301 16.8c-29.2 4.70001 -54.1 9.39999 -75.4996 13.302l-30.4004 102.399l505.4 653.197c1.60004 0.100098 3.10004 -0.299927 4.70001 -0.299927z" />
    <glyph glyph-name="Mod_Rand" unicode="&#xe011;" 
d="M1896.9 1215.9c15 -6.09998 23.7999 -21.5 21.9 -37.6l-117.1 -936.099c-1.19995 -9.599 -6.09998 -18.399 -13.7999 -24.199l-733.1 -556.7c-6.5 -5 -14.2001 -7.29999 -21.9 -7.29999c-7.70007 0 -15 2.29999 -21.5 7.29999l-750.399 556.7
c-8.10001 5.8 -13.1 14.6 -14.199 24.6l-117.5 935.698c-1.901 16.1 6.899 31.8999 21.899 38l867.799 355.1c8.80005 3.5 18.8 3.5 27.6 0zM1739.8 261.4l99.1 846.2l-774.2 -459.2v-888.4zM1025.5 711.001l785.7 460.299l-778.8 327.5l-795.597 -327.8zM992.502 -239.999
l0.000976562 888.4l-783.4 459.199l99.099 -846.199zM1516.7 265.602c5.40002 66.4 55.7001 152.799 110.7 191.5c53.7 37.7 90.2 13.5 82.9 -51.401c-7.30005 -63.3 -54.2001 -144.7 -106 -183.5c-53 -39.5 -93 -21.099 -87.6001 43.401zM1336.6 354.7
c3.80005 73.3 58.4 167.401 120.5 207.7c60.7001 39.1 103.3 11.1 97.2001 -60.3c-6.1001 -69.901 -56.8 -157.401 -114.8 -198.5c-59.5 -41.8 -106.4 -19.9 -102.9 51.1zM1127.3 459.501c1.19995 81 61.1 183.9 131.7 226.101c68.7 41.099 119.4 7.69904 115.2 -71.401
c-4.19995 -77.2 -59.5 -172.4 -125.2 -215.4c-67.6 -44.1 -122.5 -18.4 -121.7 60.7zM876.204 1232.4c90.2 41.5 231.496 41.1 319.796 -0.700073c90.7 -43 95.3 -115.2 5.80005 -161.3c-92.5 -48 -246.096 -48.4 -337.496 -0.400024c-89.1 46.4 -81.4 119.4 11.9 162.4z
M764.403 695.602c83 -49.901 153.601 -170.1 154.801 -264.9c1.20001 -91.3 -63 -120.5 -141.7 -68.3c-76.4 50.3 -140.9 160.8 -146.7 250.3c-5.79999 92.1 53 130.9 133.599 82.9zM460.305 503.303c68.7 -46.5 130.5 -151.7 136.299 -232.2
c5.79999 -78.3 -44.5 -100.6 -110.2 -53c-63.8 46.4 -121.399 143.9 -129.8 221.1c-8.79901 79.1 36.901 109 103.701 64.1z" />
    <glyph glyph-name="osu_Easy" unicode="&#xe015;" 
d="M900.7 1458.2c52.6 106 198.1 98.8 245.9 -0.0999756l222.4 -450.8l497.6 -72.299c110.5 -15.9 158.7 -153.4 76 -234.4l-359.8 -350.901l84.8999 -495.4c19.8 -114.7 -100.2 -196.601 -199 -144.901l-444.9 234l-444.901 -234
c-104.799 -55.099 -217.299 37.801 -199 144.901l84.901 495.4l-359.8 350.901c-77.9004 76.299 -40.5 217.399 76 234.399l497.3 72.3zM785.602 859.602l-0.101013 -0.000976562v-798.2h461.999c5.19995 23.2998 11.6 86.5996 0 137.7h-299.398v210.9h231.498
c7.80005 33 9.40002 100.2 0 138.8h-231.499v173.2h291.699c5 20.7 11.3999 85.4 0 137.601h-454.198z" />
    <glyph glyph-name="osu_Normal" unicode="&#xe016;" 
d="M900.7 1458.2c52.6 106 198.1 98.8 245.9 -0.0999756l222.4 -450.8l497.6 -72.299c110.5 -15.9 158.7 -153.4 76 -234.4l-359.8 -350.901l84.8999 -495.4c19.8 -114.7 -100.2 -196.601 -199 -144.901l-444.9 234l-444.901 -234
c-104.799 -55.099 -217.299 37.801 -199 144.901l84.901 495.4l-359.8 350.901c-77.9004 76.299 -40.5 217.399 76 234.399l497.3 72.3zM731.801 853.301h0.098999v-785.7c43 -9.8994 109.6 -6.6992 140.7 0v499.4l305.5 -499.3c47.4 -9.1006 96.4 -7.5 129.8 0v785.6
c-32.7001 8.19995 -100 8.5 -140.8 0v-500.401l-303.299 500.401c-33.2 7.099 -91.401 9.5 -132 0z" />
    <glyph glyph-name="osu_Hard" unicode="&#xe017;" 
d="M900.7 1458.2c52.6 106 198.1 98.8 245.9 -0.0999756l222.4 -450.8l497.6 -72.299c110.5 -15.9 158.7 -153.4 76 -234.4l-359.8 -350.901l84.8999 -495.4c19.8 -114.7 -100.2 -196.601 -199 -144.901l-444.9 234l-444.901 -234
c-104.799 -55.099 -217.299 37.801 -199 144.901l84.901 495.4l-359.8 350.901c-77.9004 76.299 -40.5 217.399 76 234.399l497.3 72.3zM731.801 853.001v-785.099c52.3 -9.2002 114.899 -7.8007 160.399 0v339.6h262.9v-339.6c65 -9.9003 114.4 -7.4003 160.3 0v785.1
c-49.7001 8 -108.1 9 -160.3 0v-307.9h-262.9v307.9c-44.099 6.59998 -95.599 10.699 -160.399 -0.0010376z" />
    <glyph glyph-name="osu_Insane" unicode="&#xe018;" 
d="M900.7 1458.2c52.6 106 198.1 98.8 245.9 -0.0999756l222.4 -450.8l497.6 -72.299c110.5 -15.9 158.7 -153.4 76 -234.4l-359.8 -350.901l84.8999 -495.4c19.8 -114.7 -100.2 -196.601 -199 -144.901l-444.9 234l-444.901 -234
c-104.799 -55.099 -217.299 37.801 -199 144.901l84.901 495.4l-359.8 350.901c-77.9004 76.299 -40.5 217.399 76 234.399l497.3 72.3zM935.401 853.301v-785.5c51.3 -8.7998 118.199 -8.2998 168.999 0v785.5c-41.1 7.69995 -123.499 9 -168.999 0z" />
    <glyph glyph-name="osu_Expert" unicode="&#xe019;" 
d="M900.7 1458.2c52.6 106 198.1 98.8 245.9 -0.0999756l222.4 -450.8l497.6 -72.299c110.5 -15.9 158.7 -153.4 76 -234.4l-359.8 -350.901l84.8999 -495.4c19.8 -114.7 -100.2 -196.601 -199 -144.901l-444.9 234l-444.901 -234
c-104.799 -55.099 -217.299 37.801 -199 144.901l84.901 495.4l-359.8 350.901c-77.9004 76.299 -40.5 217.399 76 234.399l497.3 72.3zM866.201 479.901l-172.801 -411.7c56.901 -8.6006 107.301 -10 167.301 1.09959l156.399 407.3l-124.699 376.7
c-35 6.89996 -118.2 9.30096 -167.299 1.09998zM1024.8 476.701l154.2 -407.3c63.2 -10.5 113.3 -8.9004 167.3 -1.1006l-170.6 411.7l138.9 374.5c-31.7999 4.90002 -113.6 9 -167.3 -1.09998z" />
    <glyph glyph-name="Taiko_Easy" unicode="&#xe01a;" 
d="M1024 -346c-530.2 0 -960 429.9 -960 960c0 530.3 429.8 960 960 960c530.1 0 960 -429.8 960 -960c0 -530.1 -429.9 -960 -960 -960zM724 102l591.6 0.000999451c6.70007 29.8 14.8 111 0 176.6h-383.501v270.599h296.501c9.90002 42.3 12.1 128.5 0 178h-296.5v222.2
h373.5c6.5 26.6 14.6 109.6 0 176.6h-581.6v-1024z" />
    <glyph glyph-name="Taiko_Normal" unicode="&#xe01b;" 
d="M1024 -346c-530.2 0 -960 429.9 -960 960c0 530.3 429.8 960 960 960c530.1 0 960 -429.8 960 -960c0 -530.1 -429.9 -960 -960 -960zM656 110.1c55 -12.6996 140 -8.5 179.8 0v640.599l390.3 -640.599c60.6 -11.6996 123.2 -9.6 165.9 0v1007.8
c-41.7 10.5 -127.7 10.9 -179.8 0v-642.001l-387.501 642.001c-42.5 9.09998 -116.8 12.2999 -168.599 0v-1007.8h-0.0999756z" />
    <glyph glyph-name="Taiko_Hard" unicode="&#xe01c;" 
d="M1024 -346c-530.2 0 -960 429.9 -960 960c0 530.3 429.8 960 960 960c530.1 0 960 -429.8 960 -960c0 -530.1 -429.9 -960 -960 -960zM648 110.3c67.4 -11.8 148 -10.001 206.6 -0.000999451v435.7h338.8v-435.7c83.7999 -12.7004 147.4 -9.5 206.6 0v1007.3
c-64.1 10.3 -139.3 11.6 -206.6 0v-395.001h-338.8v395.001c-56.8 8.40002 -123.1 13.8 -206.6 0v-1007.3z" />
    <glyph glyph-name="Taiko_Insane" unicode="&#xe01d;" 
d="M1024 -346c-530.2 0 -960 429.9 -960 960c0 530.3 429.8 960 960 960c530.1 0 960 -429.8 960 -960c0 -530.1 -429.9 -960 -960 -960zM920 110.2c63.1 -11.2996 145.5 -10.6004 208 0v1007.8c-50.6 9.80005 -151.9 11.6 -208 0v-1007.8z" />
    <glyph glyph-name="Taiko_Expert" unicode="&#xe01e;" 
d="M1024 -346c-530.2 0 -960 429.9 -960 960c0 530.3 429.8 960 960 960c530.1 0 960 -429.8 960 -960c0 -530.1 -429.9 -960 -960 -960zM604 110.7c73.2 -10.9998 138.1 -12.7986 215.3 1.501l201.2 522.5l-160.4 483.199c-45.1 8.79993 -152.1 11.9 -215.3 1.40002
l181.5 -480.4zM1228.7 112.201c81.3 -13.4998 145.8 -11.401 215.3 -1.501l-219.5 528.2l178.7 480.4c-40.7999 6.3999 -146.2 11.6 -215.2 -1.40002l-157.6 -483.199z" />
    <glyph glyph-name="CTB_Easy" unicode="&#xe01f;" 
d="M1913.4 225.4c-92.1 -259.2 -241.3 -416.996 -446.6 -516.595c-36.7001 -17.6 -71.4 -40.3 -104.4 -43c-69.5 -5.79999 -153.7 17.7 -249.6 17.7c-121.901 0 -224.401 -29.6 -299.801 -29.6c-27.9 0 -58.801 15.8 -90.9 26.5c-229.401 78.3 -396.901 277.3 -458.401 391
c-60.4 114.1 -114.7 268.1 -114.7 440.9c0 190.5 43.2 322.5 100.601 437c-102.6 43 -137.8 24.799 -176.7 31.5c67.9996 94.905 254.6 202.805 357.5 223.905c102.5 21 181.5 24.79 242.201 20c126.2 13.9 242 -15.1 309 -48.2999c7.40002 45.7999 22.5 113.89 49.4 175.39
c18.4 41.3999 19.9 90.2 34.8 133.6c13.3999 38.7999 37.8999 52.6 73.3999 72.6c42.8 24.2 102.1 25.4 119.6 -28c34.7999 -106 53.5 -151.7 -82.6001 -222.7c-11.7999 -6.20007 -54.2999 -39.9 -74.2 -95.3c-2.19995 -6 -3.90002 -12.2 -5.5 -18.6
c90 60.7 227 65.5 273.5 65.5c85.3 0 229 -31.5 370.8 -149.4c122.3 -101.4 227.8 -292.599 232.9 -467.799c5.40002 -176.7 -5.29993 -261.1 -60.2999 -416.301zM724.299 -89.9961h591.001c6.69995 29.7998 14.7999 111 0 176.6h-383.101v270.601h296.201
c9.90002 42.3 12 128.5 0 178h-296.201v222.2h373.101c6.5 26.6 14.6 109.6 0 176.6h-581.001v-1024z" />
    <glyph glyph-name="CTB_Normal" unicode="&#xe020;" 
d="M1913.4 225.4c-92.1 -259.2 -241.3 -416.996 -446.6 -516.595c-36.7001 -17.6 -71.4 -40.3 -104.4 -43c-69.5 -5.79999 -153.7 17.7 -249.6 17.7c-121.901 0 -224.401 -29.6 -299.801 -29.6c-27.9 0 -58.801 15.8 -90.9 26.5c-229.401 78.3 -396.901 277.3 -458.401 391
c-60.4 114.1 -114.7 268.1 -114.7 440.9c0 190.5 43.2 322.5 100.601 437c-102.6 43 -137.8 24.799 -176.7 31.5c67.9996 94.905 254.6 202.805 357.5 223.905c102.5 21 181.5 24.79 242.201 20c126.2 13.9 242 -15.1 309 -48.2999c7.40002 45.7999 22.5 113.89 49.4 175.39
c18.4 41.3999 19.9 90.2 34.8 133.6c13.3999 38.7999 37.8999 52.6 73.3999 72.6c42.8 24.2 102.1 25.4 119.6 -28c34.7999 -106 53.5 -151.7 -82.6001 -222.7c-11.7999 -6.20007 -54.2999 -39.9 -74.2 -95.3c-2.19995 -6 -3.90002 -12.2 -5.5 -18.6
c90 60.7 227 65.5 273.5 65.5c85.3 0 229 -31.5 370.8 -149.4c122.3 -101.4 227.8 -292.599 232.9 -467.799c5.40002 -176.7 -5.29993 -261.1 -60.2999 -416.301zM656.399 -81.8965c54.901 -12.6992 139.901 -8.5 179.601 0v640.6l389.9 -640.6
c60.6 -11.6992 123.1 -9.5996 165.7 0v1007.9c-41.6 10.5 -127.6 10.9 -179.7 0v-642l-387.099 642c-42.401 9.09998 -116.601 12.3 -168.501 0v-1007.9h0.098999z" />
    <glyph glyph-name="CTB_Hard" unicode="&#xe021;" 
d="M1913.4 225.4c-92.1 -259.2 -241.3 -416.996 -446.6 -516.595c-36.7001 -17.6 -71.4 -40.3 -104.4 -43c-69.5 -5.79999 -153.7 17.7 -249.6 17.7c-121.901 0 -224.401 -29.6 -299.801 -29.6c-27.9 0 -58.801 15.8 -90.9 26.5c-229.401 78.3 -396.901 277.3 -458.401 391
c-60.4 114.1 -114.7 268.1 -114.7 440.9c0 190.5 43.2 322.5 100.601 437c-102.6 43 -137.8 24.799 -176.7 31.5c67.9996 94.905 254.6 202.805 357.5 223.905c102.5 21 181.5 24.79 242.201 20c126.2 13.9 242 -15.1 309 -48.2999c7.40002 45.7999 22.5 113.89 49.4 175.39
c18.4 41.3999 19.9 90.2 34.8 133.6c13.3999 38.7999 37.8999 52.6 73.3999 72.6c42.8 24.2 102.1 25.4 119.6 -28c34.7999 -106 53.5 -151.7 -82.6001 -222.7c-11.7999 -6.20007 -54.2999 -39.9 -74.2 -95.3c-2.19995 -6 -3.90002 -12.2 -5.5 -18.6
c90 60.7 227 65.5 273.5 65.5c85.3 0 229 -31.5 370.8 -149.4c122.3 -101.4 227.8 -292.599 232.9 -467.799c5.40002 -176.7 -5.29993 -261.1 -60.2999 -416.301zM648.399 -81.6963c67.3 -11.7998 147.901 -10.001 206.401 -0.00100708v435.7h338.4v-435.7
c83.7001 -12.7002 147.3 -9.5 206.4 0v1007.3c-64.1 10.299 -139.2 11.599 -206.4 0v-395h-338.4v395c-56.7 8.39996 -123 13.8 -206.401 0.000976562v-1007.3z" />
    <glyph glyph-name="CTB_Insane" unicode="&#xe022;" 
d="M1913.4 225.4c-92.1 -259.2 -241.3 -416.996 -446.6 -516.595c-36.7001 -17.6 -71.4 -40.3 -104.4 -43c-69.5 -5.79999 -153.7 17.7 -249.6 17.7c-121.901 0 -224.401 -29.6 -299.801 -29.6c-27.9 0 -58.801 15.8 -90.9 26.5c-229.401 78.3 -396.901 277.3 -458.401 391
c-60.4 114.1 -114.7 268.1 -114.7 440.9c0 190.5 43.2 322.5 100.601 437c-102.6 43 -137.8 24.799 -176.7 31.5c67.9996 94.905 254.6 202.805 357.5 223.905c102.5 21 181.5 24.79 242.201 20c126.2 13.9 242 -15.1 309 -48.2999c7.40002 45.7999 22.5 113.89 49.4 175.39
c18.4 41.3999 19.9 90.2 34.8 133.6c13.3999 38.7999 37.8999 52.6 73.3999 72.6c42.8 24.2 102.1 25.4 119.6 -28c34.7999 -106 53.5 -151.7 -82.6001 -222.7c-11.7999 -6.20007 -54.2999 -39.9 -74.2 -95.3c-2.19995 -6 -3.90002 -12.2 -5.5 -18.6
c90 60.7 227 65.5 273.5 65.5c85.3 0 229 -31.5 370.8 -149.4c122.3 -101.4 227.8 -292.599 232.9 -467.799c5.40002 -176.7 -5.29993 -261.1 -60.2999 -416.301zM920.1 -81.7959c63 -11.2998 145.3 -10.6006 207.8 0v1007.8c-50.5 9.79999 -151.8 11.6 -207.8 0v-1007.8z
" />
    <glyph glyph-name="CTB_Expert" unicode="&#xe023;" 
d="M1913.4 225.4c-92.1 -259.2 -241.3 -416.996 -446.6 -516.595c-36.7001 -17.6 -71.4 -40.3 -104.4 -43c-69.5 -5.79999 -153.7 17.7 -249.6 17.7c-121.901 0 -224.401 -29.6 -299.801 -29.6c-27.9 0 -58.801 15.8 -90.9 26.5c-229.401 78.3 -396.901 277.3 -458.401 391
c-60.4 114.1 -114.7 268.1 -114.7 440.9c0 190.5 43.2 322.5 100.601 437c-102.6 43 -137.8 24.799 -176.7 31.5c67.9996 94.905 254.6 202.805 357.5 223.905c102.5 21 181.5 24.79 242.201 20c126.2 13.9 242 -15.1 309 -48.2999c7.40002 45.7999 22.5 113.89 49.4 175.39
c18.4 41.3999 19.9 90.2 34.8 133.6c13.3999 38.7999 37.8999 52.6 73.3999 72.6c42.8 24.2 102.1 25.4 119.6 -28c34.7999 -106 53.5 -151.7 -82.6001 -222.7c-11.7999 -6.20007 -54.2999 -39.9 -74.2 -95.3c-2.19995 -6 -3.90002 -12.2 -5.5 -18.6
c90 60.7 227 65.5 273.5 65.5c85.3 0 229 -31.5 370.8 -149.4c122.3 -101.4 227.8 -292.599 232.9 -467.799c5.40002 -176.7 -5.29993 -261.1 -60.2999 -416.301zM604.399 -81.2959c73.201 -11 138 -12.7998 215.1 1.5l201.001 522.5l-160.301 483.2
c-45 8.79999 -152 12 -215.099 1.401l181.299 -480.401zM1228.5 -79.7959c81.2 -13.5 145.7 -11.4014 215 -1.501l-219.3 528.2l178.5 480.401c-40.7999 6.39996 -146 11.6 -215 -1.40002l-157.4 -483.2z" />
    <glyph glyph-name="Mania_Easy" unicode="&#xe024;" 
d="M1984 166c0 -70.7002 -57.3 -128 -128 -128h-1664c-70.7 0 -128 57.2998 -128 128v896c0 70.7 57.3 128 128 128h1664c70.7 0 128 -57.3 128 -128v-896zM760 166h520.6c5.90002 26.1 13.1 97.1 0 154.5h-337.4v236.8h260.9c8.70007 37 10.6 112.4 0 155.801h-260.9v194.4
h328.7c5.69995 23.3 12.7999 95.899 0 154.499h-511.9v-896z" />
    <glyph glyph-name="Mania_Normal" unicode="&#xe025;" 
d="M1984 166c0 -70.7002 -57.3 -128 -128 -128h-1664c-70.7 0 -128 57.2998 -128 128v896c0 70.7 57.3 128 128 128h1664c70.7 0 128 -57.3 128 -128v-896zM704 173c47.8 -11.1 121.799 -7.5 156.398 0v560.6l339.402 -560.6c52.7 -10.2 107.1 -8.39999 144.3 0v882
c-36.2 9.19995 -111.1 9.5 -156.4 0v-561.8l-337.1 561.8c-36.901 8 -101.5 10.7 -146.6 0v-882z" />
    <glyph glyph-name="Mania_Hard" unicode="&#xe026;" 
d="M1984 166c0 -70.7002 -57.3 -128 -128 -128h-1664c-70.7 0 -128 57.2998 -128 128v896c0 70.7 57.3 128 128 128h1664c70.7 0 128 -57.3 128 -128v-896zM695 173.3c58.9 -10.4 129.5 -8.7 180.8 0v381.3h296.4v-381.3c73.3 -11.1 129 -8.3 180.8 0v881.3
c-56.1 9 -121.9 10.2001 -180.8 0v-345.6h-296.4v345.6c-49.7 7.40002 -107.7 12 -180.8 0v-881.3z" />
    <glyph glyph-name="Mania_Insane" unicode="&#xe027;" 
d="M1984 166c0 -70.7002 -57.3 -128 -128 -128h-1664c-70.7 0 -128 57.2998 -128 128v896c0 70.7 57.3 128 128 128h1664c70.7 0 128 -57.3 128 -128v-896zM928 173.2c58.2 -9.89999 134.3 -9.3 192 0v881.8c-46.7 8.59998 -140.3 10.1 -192 0v-881.8z" />
    <glyph glyph-name="Mania_Expert" unicode="&#xe028;" 
d="M1984 166c0 -70.7002 -57.3 -128 -128 -128h-1664c-70.7 0 -128 57.2998 -128 128v896c0 70.7 57.3 128 128 128h1664c70.7 0 128 -57.3 128 -128v-896zM656 173.6c64.2 -9.60001 121.001 -11.201 188.601 1.299l176.299 457.201l-140.5 422.8
c-39.5 7.69995 -133.299 10.5 -188.599 1.19995l159.099 -420.401zM1203.4 174.898c71.2 -11.799 127.8 -10.002 188.6 -1.30099l-192.3 462.2l156.5 420.403c-35.7999 5.6001 -128.1 10.1001 -188.6 -1.19995l-138.1 -422.802z" />
    <glyph glyph-name="PS_Mouse" unicode="&#xe029;" 
d="M1666.4 398.3c90.1 -212.3 63 -455.601 -54.4 -571.601c-234.9 -231.099 -905.301 -229.599 -1139.1 0c-107.299 105.4 -141.7 352.6 -54 568.8l39.901 18.4c121.4 56.401 345.4 65 467.5 65c50.9 0 84.2 -1.599 84.6 -1.599l30.5 -1.59998v-0.400024l4.29993 0.400024
l4.30005 -0.400024v0.400024l30.5 1.59998c0.400024 0 33.7 1.599 84.6 1.599c122.6 0 346.1 -8.599 467.5 -65zM1046.2 854.299c49.3 0 89.7001 -43.8 89.7001 -97.9c0 -54 -40 -97.9 -89.7001 -97.9c-49.4 0 -89.7 43.8 -89.7 97.899c0 54 40 97.901 89.7 97.901z
M1173.4 746.199c0 9 -1.09998 18 -2.40002 26.6c244.7 -34.1 395.5 -163.4 478.1 -325.199c-182.1 84.599 -570.1 67 -570.1 67v101.5c54.5 15.299 94.4 67.799 94.4 130.099zM918.899 746.199c0 -62.3 39.599 -114.8 94.001 -130.099v-101.5s-388.002 18 -570.101 -67
c82.599 161.799 233.8 291.099 478.5 325.199c-1.60004 -8.60004 -2.40002 -17.6 -2.40002 -26.6zM1301.5 1209.7c115.5 12.9 184.4 3.1001 223.9 -31.7c16.7999 -14.9 36.4 -42.4 32.1 -87.8c-3.5 -39.8999 -23.5 -91.6039 -96.3 -112.005
c-44.2 -12.2 -96.7 -11.4 -152.3 -10.2c-77.6 1.20001 -157.4 2.70001 -196.2 -34.5c-12.6 -12.099 -21.2 -28.599 -25.5 -50.099c-12.8999 5 -26.6 7.40002 -41.1 7.40002c-11.7999 0 -23.5 -2 -34.5 -5.10004c6.30005 41.901 22.4 75.601 48.6 100.7
c61.1001 59.104 161.7 57.204 250.2 55.604c125.3 -2.30005 179.7 10.6 175.4 58.4c-3.90002 41.9 -67.7001 56.7999 -184.4 43.9c-88.8 -9.80005 -194.2 -35.3 -308.899 -59.2001c-142.9 -29.4 -285.9 -54 -404.5 -60.7c-55.2 -3.10004 -210.2 -13.7 -248.601 90.1
c-32.5 88.9 7.80002 134 77.5 186.1c68.5 50.9 224.401 145.3 205.201 273.4c1.599 -6.30005 42.699 -161 -145.601 -299.3c-75.9 -55.6 -92.4 -90.8999 -77.101 -137.9c32.1 -98.7001 350.4 -32.5 582.999 15.7c116.302 24.3 226.302 47 319.102 57.2z" />
    <glyph glyph-name="PS_Tablet" unicode="&#xe02a;" 
d="M986.1 522.6c0 0 111.6 84.9 206 202.9c78.5 98.2 134.3 209.3 134.3 209.3c49.4 2.099 177.2 -98.2 177.2 -148c0 0 -97 -82.8 -182.8 -190c-94 -117.5 -166.5 -242.3 -166.5 -242.3c-51 -6.89999 -166.5 116.699 -168.2 168.1zM1838.4 1472.6
c52.4 5.20007 101.7 -49.2999 106.8 -90l-420.1 -546c-18 29.599 -46.7999 56.199 -66.5 72.499c-17.1 13.7 -52.7999 41.1 -88.7999 55.3zM1109.7 335.199c0 0 -139.002 -69.899 -176.002 -92.599c-13.7 13.7 -40.8 -32.201 -51.5 -23.201
c-11.599 9.8 25.301 49.3 16.301 58.3c18.5 44.6 68.7 207.6 68.7 207.6c1.30005 -51.901 91.001 -157 142.501 -150.1zM1873.2 1485.9c27.9 22.2999 75.1001 57.9 101.2 34.2999c24.9 -22.7 -4.70007 -71.6 -22.7001 -101.2c-9.3999 31.7 -42.8999 63.5 -78.5 66.9z
M1588.2 578.401l306 -808.497c14.6001 -38.2 -15.5 -69.9 -67.3999 -69.9h-1692.2c-51.8997 0 -81.5003 31.7 -66.8997 69.9l312.9 808.8c6 16.3 37.799 29.2 70.399 29.2h575.404c-37.303 -33.4 -63.504 -53.6 -63.9041 -54.001
c-9.79999 -7.79901 -15.399 -19.799 -14.999 -32.2v-3c-7.29999 -4.20001 -12.899 -10.7 -16.3 -18.4h-359.2c-25.3 0 -48.899 -8.60001 -53.199 -19.3l-192.7 -498.3c-8.60001 -21.9004 14.6 -39.9004 51.501 -39.9004h1207.6c36.9 0 60.1001 18 51.9 39.9004l-189.3 498.4
c-4.30005 10.7 -27.9 19.299 -53.2001 19.299h-98.7c17.1 23.6 35.6 48.5 54.9 72.5c9.8999 12 19.2999 23.6 29.2 34.7h137.8c32.6 0 64.3999 -12.901 70.3999 -29.201zM589.997 639.704l-0.0010376 0.102051h-78.1c0 32.599 -70.799 29.599 -110.7 33
c-24.5 2.099 -140.8 1.29895 -143.8 90.5c-5.2 141.5 332.1 122.599 464.3 122.199c170.8 -0.901001 463.504 -8.20001 463.504 82.3c0 40.795 -93.1 56.195 -236.903 56.195c-102.5 0 -474.2 13.3 -509.7 283.9c0 0 50.7 -223.5 518 -223.5
c188.403 0 284.103 -27.4 288.803 -116.196c1.69995 -29.2 -11.2001 -55.8 -32.2001 -76.8c-75.8999 -75.9 -278.102 -75 -491.803 -74.599c-103 0.400024 -380.7 -5.09998 -380.7 -50.6c0 -55.7 249.3 12.899 249.3 -126.501z" />
    <glyph glyph-name="PS_Keyboard" unicode="&#xe02b;" 
d="M1920.7 -346v0.100006h-1793.4c-75.8996 0 -68.0002 48 -54.7004 79.4c1 2.60001 1.9004 5.10001 2.9004 7.70001c43 114.6 86.1 229.2 129.1 343.8c16.6 44.3 30.3 100.2 73.1 126.4c25.5 15.6 54.2 14.4 82.6 14.4h690.5h650.7c106 0 126.6 -100 157.2 -181.6
l116.7 -310.8c13.2 -31.4 21.2 -79.4 -54.7001 -79.4zM192.9 -292c4.20001 0 8.10001 2.60001 9.5 6.79999l23 68.9c2.40001 11.1 -1.7 17.4 -12.5 19.1h-56.4c-12.9 0 -12.9 -20 0 -20h47.5l-20.6 -61.6c-2.2 -6.5 3 -13.2 9.5 -13.2zM289.2 -292
c4.29999 0 8.29999 2.79999 9.59998 7.10001l20.3 68.9c2.10001 10.9 -2.20001 17.1 -12.8 18.7h-56.4c-12.9 0 -12.9 -20 0 -20h48l-18.3 -61.9c-1.89999 -6.39999 3.19998 -12.8 9.60001 -12.8zM385.5 -292c4.39999 0 8.5 3 9.79999 7.5l17.6 68.9
c1.60001 10.8 -2.79999 16.9 -13.2 18.4h-56.4c-12.9 0 -12.9 -20 0 -20h48.5l-16 -62.3c-1.59998 -6.39999 3.40002 -12.5 9.70001 -12.5zM1494.4 -292c6.09998 0 11 5.70001 9.79993 11.8l-13.1 68.9c-1.5 8 -8.29993 14 -15.9 14h-85.5c-12.8999 0 -12.8999 -20 0 -20
h82.2001l12.7 -66.6c0.900024 -4.80002 5.09998 -8.10001 9.80005 -8.10001zM1368.1 -292c6 0 10.8 5.29999 9.90002 11.3l-9.59998 68.9c-1.20007 8.3 -7.90002 14.5 -15.7001 14.5h-95.2c-12.9 0 -12.9 -20 0 -20h91.5l9.19995 -66.1
c0.700073 -5 5 -8.60001 9.90002 -8.60001zM1231.9 -292c5.79993 0 10.4 5 9.79993 10.9l-5.79993 68.9c-0.700073 8.39999 -7.5 15 -15.4 15h-56.4c-12.9 0 -12.9 -20 0 -20h52.2001l5.59998 -65.6c0.5 -5.30002 4.90002 -9.20001 10 -9.20001zM1135.6 -292
c5.70007 0 10.3 4.70001 9.90002 10.4l-3.19995 68.9c-0.400024 8.59999 -7.1001 15.4 -15.2001 15.4h-56.4c-12.8999 0 -12.8999 -20 0 -20h51.9l3 -65.2c0.300049 -5.29999 4.70007 -9.5 10 -9.5zM1041.7 -292c5.6001 0 10.1001 4.5 10.1001 10.1l-0.600098 68.9
c0 8.7 -6.79993 15.8 -15 15.8h-599.6c-12.9 0 -12.9 -20 0 -20h594.6l0.5 -64.9c0 -5.5 4.5 -9.89999 10 -9.89999zM1816.1 -287.2c6.40002 0 11.6 6.60001 9.59998 13l-22 68.6c-2.3999 7.40001 -9.29993 12.8 -16.3999 12.8h-56.3c-12.9 0 -12.9 -20 0 -20h54l21.6 -67.5
c1.30005 -4.20001 5.30005 -6.90002 9.5 -6.90002zM1912.1 -287.2c6.70007 0 11.8 6.90002 9.40002 13.4l-24.7 68.6c-2.6001 7.2 -9.5 12.5 -16.5 12.5h-56.3c-12.9 0 -12.9 -20 0 -20h54.3l24.3999 -67.9c1.5 -4.10001 5.30005 -6.60001 9.40002 -6.60001zM1720 -287.2
c6.30005 0 11.4 6.30002 9.59998 12.7l-19.2999 68.6c-2.1001 7.7 -8.90002 13.2 -16.2001 13.2h-56.2999c-12.9 0 -12.9 -20 0 -20h53.7l18.9 -67.2c1.19995 -4.39999 5.19995 -7.30002 9.59998 -7.30002zM1623.9 -287.2c6.19995 0 11.2 6.10001 9.79993 12.3l-16.7 68.6
c-1.90002 7.8 -8.69995 13.5 -16.1 13.5h-56.3c-12.9 0 -12.9 -20 0 -20h53.4l16.2 -66.8c1.1001 -4.5 5.20007 -7.60001 9.70007 -7.60001zM277.9 -180.4c4.30002 0 8.20001 2.7 9.5 7l19.7 62.9c2.10001 10.7002 -2.10001 16.7998 -12.6 18.4004h-100.3
c-12.9 0 -12.9 -20.0004 0 -20.0004h91.5l-17.3 -55.3c-2.10001 -6.5 3 -13 9.5 -13zM369.9 -180.4c4.39999 0 8.39999 2.89999 9.70001 7.29999l17.3 62.9c1.70001 10.4998 -2.60001 16.4998 -12.9 17.9998h-54c-12.9 0 -12.9 -19.9998 0 -19.9998h45.6l-15.3 -55.6
c-1.79999 -6.3 3.20001 -12.6 9.60001 -12.6zM461.8 -180.4c4.60001 0 8.70001 3.09999 9.70001 7.7l14.9 62.9c1.39999 10.3996 -3 16.3 -13.2 17.7004h-54c-12.9 0 -12.9 -20.0004 0 -20.0004h46.1l-13.2 -56c-1.5 -6.29999 3.5 -12.3 9.69998 -12.3zM1473.2 -180.4
c6.1001 0 11 5.7 9.80005 11.9l-12 62.9c-1.5 7.6996 -8.19995 13.5004 -15.6 13.5004h-128.2c-12.8999 0 -12.8999 -20.0004 0 -20.0004h124.7l11.5 -60.2c0.900024 -4.8 5.09998 -8.09999 9.79993 -8.09999zM553.8 -180.4c4.60004 0 8.79999 3.29999 9.79999 8.09999
l12.4 62.9c1 10.1998 -3.5 15.9996 -13.5 17.3004h-54c-12.9 0 -12.9 -20.0004 0 -20.0004h46.6l-11.1 -56.4c-1.20001 -6.2 3.70001 -11.9 9.79999 -11.9zM645.7 -180.4c4.79999 0 9.09998 3.5 9.89996 8.39999l10 62.9c0.600037 10.1 -4 15.8002 -13.8 17.0004h-54
c-12.9 0 -12.9 -20.0004 0 -20.0004h47l-9 -56.7c-1 -6.09999 3.90002 -11.6 9.90002 -11.6zM737.7 -180.4c4.89996 0 9.29999 3.7 9.89996 8.79999l7.5 62.9c0.300049 9.9002 -4.39996 15.4002 -14 16.6004h-54c-12.9 0 -12.9 -20.0004 0 -20.0004h47.5l-6.79999 -57.1
c-0.799988 -6 4 -11.2 9.90002 -11.2zM1289.3 -180.4c5.8999 0 10.6 5.2 10 11.1l-7.1001 62.9c-0.899902 7.9996 -7.59998 14.3004 -15.2999 14.3004h-54c-12.9 0 -12.9 -20.0004 0 -20.0004h49.7999l6.70007 -59.4c0.599976 -5.10001 4.90002 -8.89999 9.90002 -8.89999z
M829.6 -180.4c5.10004 0 9.5 4 10 9.2l5.10004 62.9c-0.100037 9.7004 -4.79999 15.0998 -14.3 16.2004h-54c-12.9 0 -12.9 -20.0004 0 -20.0004h47.9l-4.70001 -57.5c-0.5 -5.79999 4.20001 -10.8 10 -10.8zM1197.3 -180.4c5.79993 0 10.5 4.89999 10 10.8l-4.70007 62.9
c-0.599976 8.2 -7.19995 14.6004 -15.1 14.6004h-54c-12.9 0 -12.9 -20.0004 0 -20.0004h49.4l4.40002 -59c0.399902 -5.29999 4.79993 -9.29999 10 -9.29999zM921.5 -180.4c5.40002 0 9.79999 4.2 9.90002 9.59999l2.69995 62.9
c-0.399963 9.4996 -5.19995 14.8004 -14.5 15.8004h-54c-12.9 0 -12.9 -20.0004 0 -20.0004h48.3l-2.40002 -57.9c-0.200012 -5.7 4.29999 -10.4 10 -10.4zM1105.4 -180.4c5.69995 0 10.2 4.7 9.90002 10.3l-2.20007 62.9c-0.299927 8.4002 -6.79993 14.9998 -14.9 14.9998
h-54c-12.8999 0 -12.8999 -19.9998 0 -19.9998h49.1001l2.09998 -58.6c0.199951 -5.39999 4.59998 -9.59999 10 -9.59999zM1013.5 -180.4c5.5 0 9.90002 4.5 10 10l0.200012 62.9c-0.700012 9.2998 -5.60004 14.4004 -14.7 15.4004h-54c-12.9 0 -12.9 -20.0004 0 -20.0004
h48.7l-0.200012 -58.3c0 -5.5 4.5 -10 10 -10zM1873 -178.2c6.59998 0 11.7 6.89999 9.5 13.3l-22.6 62.8c-2.5 7.0004 -9.30005 12.0004 -16.1 12.0004h-53.9c-12.9 0 -12.9 -20.0004 0 -20.0004h51.6l22.1 -61.5c1.5 -4.09999 5.30005 -6.59999 9.40002 -6.59999z
M1781.1 -178.2c6.5 0 11.6 6.59999 9.5 13.1l-20.1 62.8c-2.30005 7.0998 -9 12.3 -16 12.3h-53.9c-12.9 0 -12.9 -20 0 -20h51.4l19.6 -61.3c1.30005 -4.2 5.30005 -6.89999 9.5 -6.89999zM1689.3 -178.2c6.29993 0 11.3999 6.3 9.59998 12.7l-17.7001 62.8
c-2.09998 7.4002 -8.79993 12.7 -15.8999 12.7h-53.9c-12.9 0 -12.9 -20 0 -20h51.1l17.2 -60.9c1.20007 -4.40001 5.20007 -7.3 9.6001 -7.3zM1597.4 -178.2c6.29993 0 11.2999 6.09999 9.79993 12.4l-15.2999 62.8c-1.80005 7.4004 -8.59998 13 -15.8 13h-53.9
c-12.8999 0 -12.8999 -20 0 -20h50.8l14.7 -60.6c1.1001 -4.5 5.20007 -7.59999 9.70007 -7.59999zM1749.1 -78.4004c6.5 0 11.6 6.6006 9.59998 13l-18.5 57.7002c-2.19995 6.9004 -8.79993 11.9004 -15.7 11.9004h-51.7c-12.9 0 -12.9 -20 0 -20h49l17.7999 -55.7002
c1.30005 -4.2002 5.30005 -6.9004 9.5 -6.9004zM355.6 -78.4004c4.39999 0 8.29999 2.8008 9.69998 7.1006l16.9 57.7002c1.79999 10.3994 -2.40002 16.2998 -12.7 17.7998h-140.6c-12.9 0 -12.9 -20 0 -20h131.7l-14.6 -49.7998
c-1.89999 -6.4004 3.20001 -12.8008 9.60001 -12.8008zM1837.1 -78.4004c6.59998 0 11.8 6.9004 9.5 13.3008l-20.7 57.6992c-2.5 6.7002 -9.09998 11.6006 -15.8 11.6006h-51.7c-12.9 0 -12.9 -20 0 -20h49.2l20.1 -56c1.5 -4.1006 5.30005 -6.6006 9.40002 -6.6006z
M1661.1 -78.4004c6.40002 0 11.5 6.3008 9.59998 12.7002l-16.2 57.7002c-2 7.09961 -8.59998 12.2002 -15.6 12.2002h-51.7001c-12.8999 0 -12.8999 -20 0 -20h48.7001l15.6 -55.2998c1.19995 -4.4004 5.19995 -7.3008 9.59998 -7.3008zM440.2 -78.4004
c4.5 0 8.5 3 9.69998 7.5l14.8 57.7002c1.39999 10.2002 -2.90002 16 -13 17.4004h-51.7c-12.9 0 -12.9 -20 0 -20h43.3l-12.8 -50.1006c-1.60001 -6.3994 3.39999 -12.5 9.70001 -12.5zM1573.2 -78.4004c6.20007 0 11.2001 6.1006 9.70007 12.3008l-14 57.6992
c-1.80005 7.20019 -8.40002 12.6006 -15.5 12.6006h-51.7001c-12.8999 0 -12.8999 -20 0 -20h48.4l13.4 -55c1.09998 -4.5 5.19995 -7.6006 9.69995 -7.6006zM528.2 -78.4004c4.59998 0 8.70001 3.2002 9.79999 7.8008l12.5 57.6992
c1 10.1006 -3.40002 15.8008 -13.3 17.1006h-51.7c-12.9 0 -12.9 -20 0 -20h43.9l-11 -50.5c-1.30005 -6.2002 3.59998 -12.1006 9.79999 -12.1006zM1453.7 -78.4004c6.1001 0 11.1001 5.7002 9.80005 11.8008l-11 57.6992c-1.40002 7.5 -8 13.1006 -15.3 13.1006h-96.1
c-12.9 0 -12.9 -20 0 -20h92.4l10.4 -54.5c0.900024 -4.7998 5.09998 -8.1006 9.79993 -8.1006zM616.2 -78.4004c4.70001 0 9 3.4004 9.79999 8.3008l10.3 57.6992c0.799988 9.9004 -3.79999 15.5 -13.5 16.7002h-51.7c-12.9 0 -12.9 -20 0 -20h44.3l-9.10004 -50.8994
c-1.09998 -6.2002 3.79999 -11.8008 9.90002 -11.8008zM704.2 -78.4004c4.89996 0 9.20001 3.6006 9.89996 8.6006l8.10004 57.7002c0.399963 9.69921 -4.20001 15.1992 -13.8 16.2998h-51.7c-12.9 0 -12.9 -20 0 -20h44.8l-7.20001 -51.2002
c-0.899963 -6.0996 4 -11.4004 9.90002 -11.4004zM1320.1 -78.4004c5.90002 0 10.7001 5.3008 9.90002 11.3008l-7.59998 57.6992c-1 7.70019 -7.5 13.6006 -15.1 13.6006h-51.7001c-12.9 0 -12.9 -20 0 -20h47.5l7.09998 -53.9004c0.700073 -5 5 -8.7002 9.90002 -8.7002z
M792.2 -78.4004c5 0 9.39996 3.9004 9.89996 8.9004l5.80005 57.7002c0.0999756 9.5996 -4.60004 14.8994 -14 16h-51.7c-12.9 0 -12.9 -20 0 -20h45.2l-5.20001 -51.6006c-0.600037 -5.8994 4.20001 -11 10 -11zM1232.1 -78.4004c5.80005 0 10.5 5.1006 9.90002 10.9004
l-5.30005 57.7002c-0.699951 7.7998 -7.29993 14 -15 14h-51.7c-12.9 0 -12.9 -20 0 -20h47.2l5 -53.5c0.400024 -5.2002 4.80005 -9.1006 9.90002 -9.1006zM1144.1 -78.4004c5.70007 0 10.3 4.8008 9.90002 10.6006l-3.09998 57.7002
c-0.400024 8.0996 -6.90002 14.3994 -14.8 14.3994h-51.7c-12.9 0 -12.9 -20 0 -20h46.7999l2.90002 -53.2002c0.300049 -5.3994 4.70007 -9.5 10 -9.5zM880.1 -78.4004c5.30005 0 9.70001 4.1006 9.90002 9.3008l3.59998 57.6992
c-0.199951 9.4004 -5 14.6006 -14.2 15.6006h-51.7c-12.9 0 -12.9 -20 0 -20h45.6l-3.20001 -52c-0.299988 -5.7002 4.30005 -10.6006 10 -10.6006zM968.1 -78.4004c5.40002 0 9.90002 4.3008 9.90002 9.7002l1.40002 57.7002c-0.5 9.2002 -5.40002 14.2998 -14.4 15.2002
h-51.7c-12.9 0 -12.9 -20 0 -20h46l-1.20001 -52.4004c-0.0999756 -5.59959 4.40002 -10.2002 10 -10.2002zM1056.1 -78.4004c5.59998 0 10.1 4.6006 10 10.1006l-0.900024 57.7002c-0.0999756 8.19921 -6.69995 14.7998 -14.6 14.7998h-51.7c-12.9 0 -12.9 -20 0 -20h46.4
l0.799927 -52.7998c0.0999756 -5.4004 4.5 -9.8008 10 -9.8008zM338.7 13.2998c4.29999 0 8.19998 2.7998 9.59998 6.9004l16.7 53.2002c1.89999 10.2998 -2.29999 16.1992 -12.5 17.5996h-92.4c-12.9 0 -12.9 -20 0 -20h83.1l-14 -44.7002c-2.10001 -6.5 3 -13 9.5 -13z
M423.1 13.2998c4.39999 0 8.5 3 9.79999 7.2998l14.6 53.2002c1.5 10.1006 -2.79999 15.7998 -12.8 17.2002h-49.7c-12.9 0 -12.9 -20 0 -20h40.9l-12.4 -45.0996c-1.79999 -6.3008 3.20001 -12.6006 9.60001 -12.6006zM507.6 13.4004
c4.49997 0 8.60001 3.0996 9.69998 7.5996l12.6 53.2002c1.19995 10 -3.10004 15.5996 -13 16.8994h-49.7c-12.9 0 -12.9 -20 0 -20h41.4l-10.7 -45.3994c-1.5 -6.2998 3.5 -12.2998 9.70001 -12.2998zM1436.3 13.4004c6.09998 0 11 5.5996 9.8999 11.7998l-10.1 53.2002
c-1.40002 7.1992 -7.90002 12.6992 -15.1 12.6992h-49.7c-12.9 0 -12.9 -20 0 -20h45.7999l9.40002 -49.5996c0.900024 -4.7998 5.09998 -8.0996 9.80005 -8.0996zM592 13.4004c4.70001 0 8.90002 3.2998 9.79999 8l10.5 53.1992
c0.799988 9.8008 -3.59998 15.3008 -13.3 16.5h-49.7c-12.9 0 -12.9 -20 0 -20h41.9l-9 -45.7998c-1.20001 -6.2002 3.70001 -11.8994 9.79999 -11.8994zM676.4 13.4004c4.89996 0 9.09998 3.5 9.79999 8.5l8.39996 53.1992c0.5 9.6006 -4 15 -13.5 16.1006h-49.7
c-12.9 0 -12.9 -20 0 -20h42.4l-7.29999 -46.2002c-1 -6.0996 3.90002 -11.5996 9.90002 -11.5996zM1351.8 13.4004c6 0 10.8999 5.3994 9.8999 11.3994l-8.09998 53.2002c-1.19995 7.5 -7.59998 13.0996 -15 13.0996h-49.7c-12.9 0 -12.9 -20 0 -20h45.5l7.5 -49.1992
c0.799927 -5 5 -8.5 9.90002 -8.5zM760.9 13.4004c5 0 9.29999 3.6992 10 8.6992l6.39996 53.2002c0.100037 9.5 -4.5 14.7002 -13.8 15.7998h-49.7c-12.9 0 -12.9 -20 0 -20h42.8l-5.59998 -46.5c-0.799988 -6 4 -11.1992 9.90002 -11.1992zM1267.4 13.4004
c5.90002 0 10.6 5.0996 10 11.0996l-6 53.2002c-0.800049 7.5 -7.30005 13.3994 -14.8 13.3994h-49.7c-12.9 0 -12.9 -20 0 -20h45.1l5.5 -48.7998c0.599976 -5.0996 4.90002 -8.8994 9.90002 -8.8994zM1183 13.4004c5.80005 0 10.4 4.8994 9.90002 10.7998
l-3.90002 53.2002c-0.599976 7.6992 -7 13.7998 -14.7 13.7998h-49.7001c-12.9 0 -12.9 -20 0 -20h44.8l3.59998 -48.5c0.400024 -5.2998 4.80005 -9.2998 10 -9.2998zM845.3 13.4004c5.10004 0 9.5 3.8994 10 9.0996l4.29999 53.2002
c-0.199951 9.2998 -4.79999 14.3994 -14 15.3994h-49.7c-12.9 0 -12.9 -20 0 -20h43.2l-3.79999 -46.8994c-0.5 -5.7998 4.20001 -10.7998 10 -10.7998zM1098.6 13.4004c5.59998 0 10.2001 4.5996 10 10.2998l-1.90002 53.2002c-0.199951 8 -6.59998 14.1992 -14.5 14.1992
h-49.7c-12.9 0 -12.9 -20 0 -20h44.4l1.69995 -48.0996c0.200073 -5.4004 4.59998 -9.5996 10 -9.5996zM929.7 13.4004c5.29999 0 9.79999 4.1992 10.1 9.5l2.20001 53.1992c-0.5 9.1006 -5.20001 14.1006 -14.2 15h-49.7c-12.9 0 -12.9 -20 0 -20h43.6l-2 -47.2998
c-0.200012 -5.7002 4.29999 -10.3994 10 -10.3994zM1014.1 13.4004c5.5 0 10 4.3994 10.1 9.8994l0.200073 53.2002c-0.800049 8.9004 -5.60004 13.7002 -14.4 14.5996h-49.7c-12.9 0 -12.9 -20 0 -20h44l-0.200012 -47.6992c0 -5.5 4.5 -10 10 -10zM1803.8 14.2998
c6.69995 0 11.7999 6.7998 9.5 13.4004l-19.1001 53.0996c-2.29993 6.5 -8.79993 11.2002 -15.3999 11.2002h-49.7001c-12.9 0 -12.9 -20 0 -20h47l18.3 -51.0996c1.5 -4.1006 5.29993 -6.6006 9.40002 -6.6006zM1719.4 14.2998c6.5 0 11.6 6.6006 9.59998 13l-17 53.1006
c-2.19995 6.6992 -8.59998 11.5 -15.4 11.5h-49.7c-12.9 0 -12.9 -20 0 -20h46.7l16.3 -50.7002c1.29993 -4.2002 5.29993 -6.9004 9.5 -6.9004zM1635 14.2998c6.40002 0 11.5 6.2998 9.69995 12.7002l-15 53.0996c-1.8999 6.9004 -8.3999 11.9004 -15.2999 11.9004
h-49.7001c-12.8999 0 -12.8999 -20 0 -20h46.5l14.2001 -50.4004c1.19995 -4.3994 5.19995 -7.2998 9.59998 -7.2998zM1550.6 14.2998c6.30005 0 11.3 6 9.70007 12.2998l-12.9 53.1006c-1.70007 7 -8.20007 12.2002 -15.2001 12.2002h-49.7c-12.9 0 -12.9 -20 0 -20h46.2
l12.2001 -50c1.09998 -4.5 5.19995 -7.6006 9.69995 -7.6006zM323.4 98.7998c4.20001 0 8.10001 2.7002 9.5 6.9002l16.4 49.1c2 10.2 -2.09998 16 -12.3 17.4h-47.8c-12.9 0 -12.9 -20 0 -20h38.1l-13.4 -40.2c-2.19998 -6.5 3 -13.2002 9.5 -13.2002zM1692.3 98.7998
c6.5 0 11.6 6.6002 9.5 13.0002l-15.7001 49.1c-2.09998 6.5 -8.40002 11.2 -15.1 11.2h-47.8c-12.8999 0 -12.8999 -20 0 -20h44.7001l14.9 -46.4c1.29993 -4.2 5.29993 -6.9002 9.5 -6.9002zM1773.5 98.7998c6.59998 0 11.7 6.8002 9.30005 13.4002l-17.6001 49.1
c-2.19995 6.2 -8.59998 10.8 -15.1 10.8h-47.7999c-12.9 0 -12.9 -20 0 -20h45l16.7999 -46.7c1.5 -4.1 5.30005 -6.6002 9.40002 -6.6002zM1611.2 98.7998c6.40002 0 11.5 6.3002 9.6001 12.7002l-13.8 49.1c-1.80005 6.7 -8.19995 11.5 -15 11.5h-47.8
c-12.8999 0 -12.8999 -20 0 -20h44.4l13 -46c1.20007 -4.4 5.20007 -7.3002 9.59998 -7.3002zM404.5 98.7998c4.29999 0 8.29999 2.8002 9.60001 7.2002l14.5 49.1c1.60001 10 -2.60001 15.7 -12.6 17h-47.7c-12.9 0 -12.9 -20 0 -20h38.6l-12 -40.5
c-1.89999 -6.4 3.20001 -12.8002 9.60001 -12.8002zM485.6 98.7998c4.5 0 8.5 3.00021 9.69998 7.6002l12.6 49.1c1.30002 9.89999 -3 15.4 -12.8 16.7h-47.8c-12.9 0 -12.9 -20 0 -20h39.1l-10.5 -40.9c-1.60001 -6.4 3.39999 -12.5002 9.70001 -12.5002zM1530.1 98.7998
c6.20007 0 11.3 6.00021 9.80005 12.3002l-11.9 49.1c-1.69995 6.90001 -8 11.9 -15 11.9h-47.8c-12.8999 0 -12.8999 -20 0 -20h44.1001l11.1 -45.7c1.09998 -4.5 5.19995 -7.6002 9.69995 -7.6002zM566.7 98.7998c4.59998 0 8.79999 3.2002 9.79999 7.9002l10.7 49.1
c0.899963 9.7 -3.40002 15.1 -13.1 16.3h-47.8c-12.9 0 -12.9 -20 0 -20h39.6l-9 -41.2c-1.30005 -6.2 3.59998 -12.1002 9.79999 -12.1002zM1420 98.7998c6.09998 0 11 5.7002 9.69995 11.8002l-9.29993 49.1c-1.30005 7.10001 -7.70007 12.4 -14.8 12.4h-88.7999
c-12.9 0 -12.9 -20 0 -20h84.7999l8.59998 -45.2c0.900024 -4.8 5.1001 -8.1002 9.80005 -8.1002zM647.9 98.7998c4.69995 0 8.89996 3.4002 9.79999 8.3002l8.79999 49.1c0.599976 9.60001 -3.79999 14.9 -13.3 16h-47.8c-12.9 0 -12.9 -20 0 -20h40l-7.40002 -41.6
c-1.09998 -6.2 3.79999 -11.8002 9.90002 -11.8002zM729 98.7998c4.90002 0 9.20001 3.6002 9.90002 8.7002l6.89996 49.1c0.299988 9.39999 -4.20001 14.6 -13.5 15.6h-47.8c-12.9 0 -12.9 -20 0 -20h40.5l-5.90002 -42c-0.899963 -6.1 4 -11.4002 9.90002 -11.4002z
M1296.8 98.7998c5.8999 0 10.7 5.3002 10 11.3002l-6.5 49.1c-1 7.3 -7.30005 12.9 -14.7001 12.9h-47.7999c-12.9 0 -12.9 -20 0 -20h43.2l5.90002 -44.6c0.699951 -5 5 -8.7002 9.90002 -8.7002zM810.1 98.7998c5.10004 0 9.40002 3.9002 9.90002 9.00021l5 49.1
c0 9.20001 -4.59998 14.2 -13.7 15.2h-47.8c-12.9 0 -12.9 -20 0 -20h40.9l-4.30005 -42.3c-0.599976 -5.9 4.20001 -11.0002 10 -11.0002zM1215.6 98.7998c5.90002 0 10.6 5.1002 10.1 11.0002l-4.59998 49.1c-0.699951 7.5 -7.09998 13.3 -14.6 13.3h-47.8
c-12.8999 0 -12.8999 -20 0 -20h42.9l4.09998 -44.3c0.400024 -5.2 4.80005 -9.1002 9.90002 -9.1002zM891.2 98.7998c5.20001 0 9.59998 4.1002 10 9.4002l3.09998 49.1c-0.299988 8.89999 -5 13.9 -13.9 14.8h-47.8c-12.9 0 -12.9 -20 0 -20h41.3l-2.70001 -42.7
c-0.299988 -5.7 4.29999 -10.6002 10 -10.6002zM1134.5 98.7998c5.69995 0 10.3 4.8002 9.90002 10.6002l-2.59998 49.1c-0.400024 7.7 -6.70007 13.7 -14.4 13.7h-47.8c-12.9 0 -12.9 -20 0 -20h42.5l2.40002 -43.9c0.300049 -5.4 4.69995 -9.50021 10 -9.50021z
M972.3 98.7998c5.40002 0 9.90002 4.3002 9.90002 9.7002l1.20001 49.1c-0.600037 8.79999 -5.30005 13.7 -14.1 14.5h-47.8c-12.9 0 -12.9 -20 0 -20h41.8l-1 -43.1c-0.0999756 -5.6 4.40002 -10.2002 10 -10.2002zM1053.4 98.7998c5.59998 0 10.1 4.6002 10 10.1002
l-0.700073 49.1c-0.0999756 7.8 -6.5 14.1 -14.2999 14.1h-47.8c-12.9 0 -12.9 -20 0 -20h42.1l0.700073 -43.5c0.0999756 -5.4 4.5 -9.8002 10 -9.8002zM1409.7 253.8c-2.8999 91 99.1001 198.9 383.1 166.9c108.8 -12.3 132.7 48 54.1 79.9
c-159.8 64.8 -1135.9 -207.4 -1183.5 51.4c-36.5 198.5 332.6 162.5 450.8 263.3c75.3 64.3 108.2 163.1 10.2001 366.7c141.5 -161.6 95.9 -340.2 24.6 -400c-153.2 -128.5 -476.1 -89.4 -425 -220.4c70.9 -181.9 963.2 61.9 1150.9 -15.5
c128.5 -53 87.6 -195.7 -89 -181.9c-187.1 14.6 -311.2 -10.4 -311.2 -110.4h-65z" />
    <glyph glyph-name="PS_Touch" unicode="&#xe02c;" 
d="M794.9 764.6c-25.1 10.3 -49.5 21.2 -72.8 32.4c27.4 207.5 -38.7 385.9 -166.1 420.3c-147.4 39.7999 -321.2 -128.5 -388 -375.9s-1.5 -480.3 146 -520.1c110.4 -29.8 235.6 57.1 319.6 206.6c22.4 -10.6 46.2 -21.1 71.2 -31.5
c-103.7 -193.9 -268.8 -307.6 -415.8 -267.9c-188.3 50.8 -275.5 334.2 -194.9 632.9c80.6004 298.6 298.7 499.6 487 448.7c169.8 -45.7999 257.4 -280.7 213.8 -545.5zM527.5 1139.2c92.2 -25 141.7 -152.7 128.9 -307.4c-21.3 12.5 -40.3 26.2 -58.3 38.5
c-169.5 115.7 -269.9 -66.6 -183.6 -185.8c11.6 -16.1 24.6 -32.4 40.6 -47.2c26.7 -24.7 65.6 -50.9 115.8 -77.9c-66.7 -112.7 -160.1 -177.4 -242 -155.3c-114.6 30.9 -163.1 220.6 -108.3 423.6c54.8 203 192.2 342.5 306.9 311.5zM1365.3 580.6
c129 -22.6 263 -149.1 447.4 -174.5c-17.3999 -49.4 -36.2999 -117.3 -53.2999 -192.4c-15.9 -70.6 -28 -137.7 -34.6 -191.1c-210.4 17.8008 -384.6 -54.6992 -513.8 -70.2998c-65.9 -7.8994 -197.8 -30.0996 -265.4 9.1006c-83.9 48.5996 -185.9 159.8 -97.4 207.4
c99.5 -79.0998 231.2 -44.2 312.9 51.1c36.4 42.6 79.4 181.5 -81.7 208.7c-149.2 25.2 -483.3 143.3 -591.9 243.7c-120.2 111.1 -30.6 244.9 81.7 159.9c149.6 -113.3 440 -199.9 604.2 -227.6c40.4 -6.79999 138.2 -14.6 191.9 -24zM1008.1 304.9
c16.5 -45.4 59.3 -62.8 102.9 -68.8c-135.8 -123.8 -246.9 -18.9 -246.9 -18.9c-25 25.9 -41.1 83.6 -41.4 114.9c-0.400024 34.7 20.9 75.6 40 105.3c68.4 -22.8 134.2 -41.1 185.7 -51.6c-21.7001 -30.3 -45.1 -67.5 -40.3 -80.9zM1868.7 419.9
c30.7001 73.6 123.1 76.5 114.8 -30.9c-9.5 -122.7 -62.2 -337.1 -106.6 -427.6c-39.1 -79.6004 -117 -61.4004 -110.7 18.5c9 114.899 61 340.6 102.5 440zM1086.6 378.4c70.3 -7.60001 70.3 -85.2 51.6 -104.2c-38.7999 3.29999 -78 17.3 -84.1 47.7
c-3.09998 15.8 12 37.2 32.5 56.5z" />
    <glyph glyph-name="Mod_Perfect" unicode="&#xe02d;" 
d="M1792.9 400.5c12.9 -117.5 -46.4 -483.8 -225.5 -718.2c-10.3 -13.5 -47.1 -41.3 -81.1 -21.2c-17.3 10.2 -41.5 37.9 -40.2001 60.2c112.2 159.4 246.1 485 223.2 746.5c10.6 18.6 74.7999 23.1 101.6 -4.29999c18.2999 -18.8 20.5 -49.2 22 -63zM1420.3 -203.4
c-174.2 56 -365.7 -31.7 -379.6 -36.7c-87.2999 -32.4 -288.1 -87.3 -445.6 -63.3c-62.2 9.29999 -141.7 117.8 -48.3 178.8c81.6 13 447.2 152.7 490.4 175.7c70.3 -29 47.5 -97.2998 9.30005 -131.699c-102.3 -91.9004 -291.5 -125.5 -295.8 -131.3
c-6.599 -10 17.8 -12.4 30.5 -12c30.5 1.5 225.1 57.2 298.5 119.3c28.2001 23.8998 105.4 117.8 22 189.2c119.7 50.6004 107.3 240.6 -42.1 247.1c21.2001 44 0.800049 163 -97.7 166c86.1 126.3 -67.2 221.8 -205.4 177.2c-47.8 -15.4 -207.399 -25.9 -212 -32.4
c-5 -7.29999 27 -14.3 52.9 -16.2c85.701 -12.5 228.1 13.3 263 8.5c71.9 -10 86.1 -94.5 32.4 -133.6c-84.9 -61.9 -345.6 -128.3 -558 -104.3c-54.4 6.20001 -72.199 68.1 -77.199 82.2c-17.701 49.6 25.099 122.3 42.899 148.299c28.4 41.601 126.7 100 147.101 110.801
c20.5 10.8 116.199 57.5 108.5 173.8c-8.10101 117.9 -111.301 253.6 -143.301 332.2c-29.2 71.8 -25.4 180.1 2.70001 238.2c26.1 54 67.6 77.6 95.8 87.7c28.2 10 52.8 0.400024 62.2 -26.2999c12.9 -36.8 0.299988 -85.8 9.70001 -139.8
c7.39996 -42.8 41.9 -128.4 70.3 -170.3c23.6 -37.1 67.2 -77.6 94.2 -110.8c27 -32.8 46.7 -73.7001 77.6 -103.1c48.3 -46 301.2 -187.7 337.9 -215.1c74.5 -56 114.7 -90.4 203.1 -250.6c42.8999 -77.6 181.1 -107.7 241.7 -130.1c28.5 -188.4 -97 -536.7 -187.7 -627.4z
M333.3 341.8c171.3 -9.09998 329.8 18.9 377.6 30.1c47.5 11.2 156.6 38 203.5 75.3c6.19995 0.399994 59.6 7.79999 84.2 -51.4c19 -45.8 4.10004 -74.3 -10.8 -83c-81.8 -47.6 -472.2 -173 -607 -173c-48.6 0 -88 58.7 -90.4 118.9c-1.5 39.8 35.5 76.5 42.9 83.1z
M403.6 85c203.3 16.5 592.3 153.6 625.9 190.8c38.8 7.10001 76.5 -9.89999 86.8 -36.8c15.2 -39.5 -1 -62.3 -3.40002 -69c-24.8 -68.2 -536.8 -238 -588.9 -241.7c-20.1 -1.3994 -52.6 -8 -90.2 14.5c-43.4 25.9004 -74.1 86.2998 -30.2 142.2z" />
    <glyph glyph-name="Bubble_Pop" unicode="&#xe02e;" 
d="M534.9 -121.5c78.9 -19.3 171.7 -75 140.7 -161c-21.6 -61.8 -141.5 -72.7 -201 -57.2c-51.8 13.2 -176.3 75.1 -159.3 135.4c24 87.4 145.4 100.6 219.6 82.8zM794 232c122.1 -30.2 146.1 -169.4 23.3 -255.3c-136.1 -95.9002 -375.8 -19.2998 -376.6 82.7998
c-0.800018 106 129.1 90.5 172.4 113.7c56.4 29.4 68 86.6 180.9 58.8zM847.1 567.4c201.5 0 8.80005 -190.5 -147 -174c-133.2 14.1 -188.4 129.3 -188.4 129.3s-181.7 -41 -302.3 109.1c-85.8 106.7 12.3 204.8 67.7 214.6c76.5 13.5 142.5 -9 130.5 -133.5
c29.9 55.8 133.5 48 161.7 -58.5c79.8 114 132.3 -87 277.8 -87zM1776.9 470c-75.8 -62.6 -318.6 -58.5 -489 198c-38.9 58.6 153 172.5 262.5 -46.5c-4.5 145.5 290.4 128.1 304.9 58.2c13.1 -62.7 8.79993 -137.7 -78.4 -209.7zM1574 1143
c-247.2 -69.8 -396.2 133.3 -295.2 215.3c-84 -59 -467.8 -141.4 -468.2 -2.6001c-0.199951 83 208.3 86.4 208.3 86.4c-59 17 -142.3 131.1 34.7999 131.1c153.1 0 227.3 -143.9 227.3 -143.9s168.6 126.8 349.5 0c106.7 -75 86.6 -208.1 86.6 -208.1
s238 -56.6 229.8 -225.4c-7.20007 -149.8 -557.9 29.2 -372.9 147.2zM431 1242c85 7 44 -430 -219 -318.5c-29.4 12.5 -179.1 115.7 -120.2 274.5c64.2002 171.7 278.4 141.5 278.4 141.5s17 206.5 219.6 232c173.2 21 255 -95.5 245.9 -117.9
c-43.3 -105.7 -211.7 55.4 -404.7 -211.6zM1229.6 504.4c81.4 -68.7 -24.2999 -141 -81 -141c-56.7 0 -134.9 21.5 -151.5 49.5c-40.5 68.5 165 148.5 232.5 91.5zM960 919.9c-130 77 -360.7 -9.40002 -308.2 -150.9c20 -54 -140 -4.20001 -113 96
c-73.8 -59 -100.8 10 -54 49.3c91.4 76.8 347.2 128.6 475.2 5.60004zM998 857c-107 -25.6 -136.3 -134.1 -138.6 -205.6c-1.40002 -44.7 -65.4 -7.40002 -46 63.6c9.59998 35.3 60.2 129.9 184.6 142zM991.9 1003c-42 176 -266.3 294.1 -381.4 146.4
c-54.3 -69.7001 -108.2 52.7 -13.5 72.2c-52.6 67.4 -0.799988 102.9 65.4 94.4c105.4 -13.6 311.5 -111 329.5 -313zM1293.9 1024.5c-46.5 10.8 -131.3 43.5 -251.4 -79.4c67.1 109.5 134 145.4 162.6 150.5c111.5 19.8 158.1 -87.3 88.8 -71.1zM1659.9 831.9
c43.5 -46.7 -22.5 -82.4 -55.5 -43.9c1.5 -38.5 -82.6 -62.3 -108 -16.1c-48 87.4 -220.4 131.3 -370.9 85.1c133.8 78 429.4 87.6 534.4 -25.1z" />
    <glyph glyph-name="List_Search" unicode="&#xe032;" 
d="M1063.8 628.7l-28.9 -147.7c-3.30005 -16.9 -23.3 -30.2 -44.4 -30l-190.4 2c-18.8 0.200012 -32.9 13 -31.6 28.7l11.1 136.7c1.5 17.9 19.2 33.4 39.7 34.3l209 9.5c23.2999 1 39.2999 -14.1 35.5 -33.5zM1113.1 948l-22.2 -176.8
c-2.80005 -22.5 -24.4 -41.9 -48 -43.1l-213.6 -10.9c-21.2 -1.10004 -35.2 15.3 -31.5 36.4l29.5 166.6c3.5 19.8 22.8 37.4 43.3 39.6l206 21.7c22.7001 2.40002 39.1 -12.6 36.5 -33.5zM1984 1061.4v-117.8c0 -14.4 -11.7 -26.2 -26.2 -26.2h-451.2
c-5.79993 23.6 -54.1 138.8 -75.1 170.2h526.3c14.5 0 26.2 -11.7999 26.2 -26.2zM1984 842.1v-117.8c0 -14.4 -11.7 -26.2 -26.2 -26.2h-443.2c8.40002 46.9 11.9 109.9 1.70007 170.2h441.5c14.5 0 26.2 -11.8 26.2 -26.2zM1957.8 649c14.5 0 26.2 -11.8 26.2999 -26.2
v-117.8c0 -14.5 -11.7 -26.2 -26.2 -26.2h-533.6c41.2 56.2 71.2 135.2 79.7 170.2h453.8zM1957.8 429.7c14.5 0 26.2 -11.8 26.2 -26.2v-117.8c0 -14.5 -11.7 -26.2 -26.2 -26.2h-874.8c160.5 32.5 247 110.5 302.1 170.2h572.7zM1957.8 210.4
c14.5 0 26.2 -11.8 26.2 -26.2v-117.8c0 -14.5 -11.7 -26.2002 -26.2 -26.2002h-934.1c-14.5 0 -26.2 11.7998 -26.2 26.2002v117.8c0 14.5 11.7 26.2 26.2 26.2h934.1zM924.7 209.1c14.5 0 26.2 -11.5 26.2 -25.8v-116.1c0 -14.2002 -11.7 -25.7998 -26.2 -25.7998h-138.4
c-14.5 0 -26.2 11.5996 -26.2 25.7998v116.1c0 14.3 11.7 25.8 26.2 25.8h138.4zM760 299.3c50 -23 96.7 -33 119 -38.6h-92.8c-14.5 0 -26.2 11.6 -26.2 25.8v12.8zM618.9 395.3c-127 -136.9 -422.5 -433 -485.4 -453c-53.5 -17 -81.9004 35.5 -64.2998 68.7998
c38.9998 73.9004 361.9 353.5 485.8 455.1c19.3 -26.9 37.4 -44.5 63.9 -70.9zM1485.1 788.7c0 -276.3 -224 -500.2 -500.2 -500.2c-276.3 0 -500.2 224 -500.2 500.2c0 276.3 224 500.2 500.2 500.2c276.2 0 500.2 -224 500.2 -500.2zM984.8 1230.4
c-244 0 -441.7 -197.8 -441.7 -441.7c0 -244 197.8 -441.7 441.7 -441.7c244 0 441.7 197.8 441.7 441.7c0.0999756 243.9 -197.7 441.7 -441.7 441.7zM1006.3 387c-32.7 -3.29999 -105 3.29999 -148.8 20.1h124.4c12.5 0 21.4 -8.20001 24.4 -20.1zM1213.5 457.9
c-42 -29.1 -89.7 -50.5 -141.2 -61.9c6.09998 19.5 26.7999 31.8 47.2999 35.3c28.2001 4.80002 60.6 12.4 93.9 26.6zM1381.6 722.4c-12.7 -76 -46.7 -144.8 -95.6 -200.1c-72.2 -44 -146.2 -47.4 -146.2 -47.4c-18.2001 0.5 -30.2001 15.6 -26.9 33.6l26.7 138.2
c3.09998 17.3 20 31.3 37.9 31.3c-0.199951 0 135.6 5.5 204.1 44.4zM1386.8 772.6c-105.1 -28.6 -192.7 -33.3 -192.7 -33.3c-21.9 0 -37.5 18 -34.9 40.2l20.5 177.7c2.5 21.5 21.8 38.8 43.3 38.7c0 0 65.4 1.09998 109.3 -4.70001
c34.7999 -59.5 57.7 -136.5 54.5 -218.6z" />
    <glyph glyph-name="Hot" unicode="&#xe031;" 
d="M745 745c76 24 89 129.1 75.1 176.7c-18.9 64.9 -94.6 116.9 -125.9 172.9c-65.2 116.4 -45.2 392.4 173.7 479.4c-100.9 -239 61.8 -301.6 100.1 -300.5c61.8 1.90002 108.2 47.1 132.7 94.7c31.6001 61.6001 -8.09998 135.3 -8.09998 135.3
s68.8 -5.80005 94.7001 -59.5c47.7 -99.1 -56.7001 -241.1 75.7999 -332.9c83.9 -58.1 251.9 -40.1 346.4 108.3c27.5 -226.4 136.5 -223.9 136.5 -374.1c0 -208.3 -234.7 -294.1 -299 -370.3c-238 -282 106 -390 -26 -630c-85.6 -155.7 -309.5 -179.6 -564 -172
c-182.5 5.39999 -428 54 -520 178c-65.3 88 -75 283.5 13.9 358.7c96.1 81.3 220.1 225.3 149.3 330.4c-33 48.9 -115.6 59.7 -146.6 116.3c-48.6 88.6 -25.1 183.7 36.6 243.5c92 89.3 132.8 99.1 182.7 216.6c-23.9 -215.5 -29.4 -435.1 172.1 -371.5z" />
    <glyph glyph-name="Heart1" unicode="&#xe02f;" 
d="M1024 -313.2c-17.3 0 -32 9.70001 -47 21.5c-337 264.7 -913 714.7 -913 1268c0 353.8 191.5 565.3 512.2 565c187.3 0 363 -166.9 447.8 -260.9c84.4 94.4 260.1 260.9 447.8 260.9c320.3 0 512.2 -211.2 512.2 -565c0 -551.2 -575 -1003.2 -913 -1267.9
c-15 -11.8 -30 -21.6 -47 -21.6z" />
    <glyph glyph-name="Heart1_Break" unicode="&#xe030;" 
d="M786.7 586l271.2 -412l-49 -312.3c-15.8 -1 -31.2 4 -44.9 12.1c-307.8 182.8 -833.7 493.3 -893.6 951.6c-38.3008 293.1 97.4996 489.1 363.2 523.5c155.2 20.2999 318.8 -99 399.2 -167.7l150.6 -359.8zM1604.5 1364.9c266.1 -28.6 406.7 -221.1 375.1 -515.1
c-49.1 -458 -567.1 -782.2 -871.5 -971.9c-12.2999 -7.7 -24.5 -14 -37.2999 -13.9l120.9 292.1l-167 464.1l246.5 182.8l-62 385.1c78.5 70.9 239.4 193.5 395.3 176.8z" />
    <glyph glyph-name="Edit" unicode="&#xe033;" horiz-adv-x="1824" 
d="M1824 614c0 -503.7 -408.3 -912 -912 -912s-912 408.3 -912 912s408.3 912 912 912s912 -408.3 912 -912zM911 1370.2c-417.6 0 -756.2 -338.601 -756.2 -756.2s338.601 -756.2 756.2 -756.2s756.2 338.601 756.2 756.2c0.0996094 417.6 -338.5 756.2 -756.2 756.2z
M1254.3 1085.4c29 -15 40.4004 -50.8008 25.4004 -79.8008l-301.7 -602.1s7.7002 68.5996 -29.7998 106.1c-53.7002 53.7002 -105.8 29.8008 -105.8 29.8008l332.3 520.399c15 29.1006 50.5996 40.6006 79.5996 25.6006zM856.8 296.5
c5.10059 -15.7002 28.6006 -78 4.2002 -125.1c-80.9004 -155.301 -468.9 17.6992 -442.7 199.6c68.9004 -103.6 160.9 -96.5996 191.601 -74.0996c53.5 39.1992 82.7998 44.5 95.0996 44.2998c2.2998 16.7998 51.0996 106.5 58.2002 115.8
c32.2002 42.2002 98.2998 37.5 135.8 -0.0996094c37.5 -37.6006 42.2998 -103.9 0.0996094 -136.101c-9.5 -7.2002 -27.0996 -16.5 -42.2998 -24.2998z" />
    <glyph glyph-name="CirLeft" unicode="&#xe034;" horiz-adv-x="1824" 
d="M1824 614c0 -503.7 -408.3 -912 -912 -912s-912 408.3 -912 912s408.3 912 912 912s912 -408.3 912 -912zM911 1370.2c-417.6 0 -756.2 -338.601 -756.2 -756.2s338.601 -756.2 756.2 -756.2s756.2 338.601 756.2 756.2c0.0996094 417.6 -338.5 756.2 -756.2 756.2z
M1094.6 891.7l-277.699 -277.7l277.8 -277.6c37.0996 -37.1006 37.0996 -97.3008 0 -134.4c-37.1006 -37.0996 -97.2998 -37.0996 -134.4 0l-344.899 344.8c-37.1006 37.1006 -37.1006 97.2998 0 134.4l344.8 344.899c37.0996 37.1006 97.2998 37.1006 134.399 0
c37.1006 -37.0996 37.1006 -97.2998 0 -134.399z" />
    <glyph glyph-name="CirRight" unicode="&#xe035;" horiz-adv-x="1824" 
d="M1824 614c0 -503.7 -408.3 -912 -912 -912s-912 408.3 -912 912s408.3 912 912 912s912 -408.3 912 -912zM911 1370.2c-417.6 0 -756.2 -338.601 -756.2 -756.2s338.601 -756.2 756.2 -756.2s756.2 338.601 756.2 756.2c0.0996094 417.6 -338.5 756.2 -756.2 756.2z
M1007.1 614l-277.699 277.6c-37.1006 37.1006 -37.1006 97.3008 0 134.4c37.0996 37.0996 97.2998 37.0996 134.399 0l344.9 -344.9c37.0996 -37.0996 37.0996 -97.2998 0 -134.399l-344.9 -344.8c-37.0996 -37.1006 -97.2998 -37.1006 -134.399 0
c-37.1006 37.0996 -37.1006 97.2998 0 134.399z" />
    <glyph glyph-name="Charts" unicode="&#xe036;" 
d="M1473.5 1214l62.3 -11.7l-43.5 -46l60.2999 -19.4l-48.9 -40.2001l57.4 -26.7999l-53.6 -33.8l53.6 -33.8l-57.4 -26.8l48.9 -40.2l-60.2999 -19.4l43.5 -46l-62.3 -11.7l37.4 -51.1l-63.2001 -3.79999l30.7001 -55.4l-63.2001 4.09998l23.5 -58.8l-62.2 12l15.9 -61.3
l-60.2001 19.7l8.1001 -62.8l-57.2001 27.1l0.200073 -63.3l-53.4 34.1l-7.80005 -62.8l-48.7 40.5l-15.6 -61.4l-43.2001 46.3l-23.2 -58.9l-37.1 51.3l-30.4 -55.6l-30.4 55.6l-37.1 -51.3l-23.2 58.9l-43.2 -46.3l-15.6 61.4l-48.7 -40.5l-7.79999 62.8l-53.4 -34.1
l0.200012 63.3l-57.2 -27.1l8.10101 62.8l-59.901 -19.6l15.9 61.3l-62.2 -12.1l23.5 58.8l-63.2 -4.09998l30.7 55.4l-63.2 3.79999l37.4 51.1l-62.2 11.7l43.5 46l-60.3 19.4l48.9 40.2l-57.5 26.9l53.6 33.7999l-53.6 33.7001l57.4 26.7999l-48.9 40.2001l60.3 19.4
l-43.5 46l62.2 11.7l-37.4 51.1l63.2 3.80005l-30.7 55.4l63.2 -4.20007l-23.4 58.9l62.2 -12.1l-15.9 61.2999l60.2 -19.7l-8.10004 62.8l57.2 -27.1001l-0.200012 63.3l53.4 -34.1l7.79999 62.7999l48.7 -40.5l15.6 61.4l43.2 -46.2999l23.2 59l37.1 -51.3l30.2 55.5
l30.4 -55.6l37.1 51.2999l23.2 -59l43.2001 46.3l15.6 -61.4l48.7 40.5l7.80005 -62.7999l53.4 34.1l-0.200073 -63.3l57.2001 27.1l-8.09998 -62.7999l60.2 19.7l-15.9 -61.2999l62.2001 12.1l-23.5 -58.8l63.2 4.20007l-30.7 -55.4l63.2 -3.80005zM1024 1466.1
c-237.6 0 -430.1 -192.5 -430.1 -430s192.6 -430 430.1 -430s430.1 192.5 430.1 430s-192.6 430 -430.1 430zM1024 680.1c-196.7 0 -356.1 159.4 -356.1 356s159.4 356 356.1 356c196.7 0 356.1 -159.4 356.1 -356s-159.4 -356 -356.1 -356zM755.6 542.4
c7.30005 -3 15.5 -2.30005 22.2 2l21.1 13.4l3.09998 -24.8c1.09998 -8.79999 6.90002 -16.3 15.1 -19.6c8.20001 -3.20001 17.6 -1.80002 24.4 3.89996l15.5 12.9c12.4 -92.9 25.1 -194.5 28.5 -246.6c6.40002 -96.1 10.3 -187.6 12.7 -267.8l-15.3 34.2002l-272.8 -337.1
s67.1 257.6 112.8 568.2c14.8 99.7 25.3 188.3 32.7 261.3zM886.5 491.3c7.90002 -1.19998 15.8 1.5 21.3 7.40002l17.1 18.3l9.09998 -23.3c3.29999 -8.30002 10.7 -14.1 19.5 -15.1c8.79999 -1.10001 17.4 2.69998 22.6 9.79999l14.6 20.2l12 -21.9
c4.29999 -7.80002 12.4 -12.6 21.2 -12.6c8.79993 0 17 4.79999 21.2 12.6l12 21.9l14.6 -20.2c5.20007 -7.19998 13.9 -11 22.6001 -9.79999c8.79993 1.10001 16.2999 6.89999 19.5 15.1l9.09998 23.3l17.1 -18.3c6.09998 -6.5 15.1 -9.20001 23.7 -6.90002
c8.5 2.20001 15.2001 8.90002 17.4 17.5l6.20007 24.2l19.2 -16c6.80005 -5.70001 16.2 -7.10001 24.4 -3.90002c8.19995 3.30005 14 10.8 15.1 19.6l3.09998 24.8l21.1 -13.4c7.40002 -4.79999 16.9 -5.09998 24.7001 -0.799988c7.69995 4.29999 12.5 12.4 12.5 21.2
l-0.0999756 25l22.6 -10.7c2.09998 -1 4.40002 -1.70001 6.59998 -2c12.6 -91.9 25.1 -202.8 32.8 -321.4c23.7 -369.1 10.7 -495.6 10.7 -495.6l-252.6 353.3l-201.501 -390.9s4 256.6 -16.299 562.9c-3 44.7 -12.6 125.3 -23.1 205.7zM1133 64
c-32.5 -213 -72.7 -410 -72.7 -410l-66.2001 147.9l136.7 265.2z" />
    <glyph glyph-name="uniE037" unicode="&#xe037;" 
d="M1360 965c0 -187.2 -150.7 -339 -336.6 -339s-336.6 151.8 -336.6 339c0 187.2 150.7 339 336.6 339s336.6 -151.8 336.6 -339zM1403.2 -76h-758.4c-90 0 -150.8 56.4004 -185.1 121.7c-70.301 133.8 -5.10001 772.5 232.199 709.2
c21 -5.60004 103.601 -174.9 331.401 -174.9c230.5 0 311.7 169.3 332.7 174.9c237.3 63.2 302.6 -575.5 232.3 -709.2c-34.3 -65.2998 -104.1 -121.7 -185.1 -121.7z" />
    <glyph glyph-name="uniE038" unicode="&#xe038;" 
d="M439.7 1262.3c118.3 0 214.2 -96.6001 214.2 -215.7s-95.9 -215.7 -214.2 -215.7c-118.3 0 -214.2 96.6 -214.2 215.7s95.9 215.7 214.2 215.7zM691.3 793c-10.6 2.20001 -21.3 3.29999 -31.7 3.29999c-33.3 0 -64.8 -10.9 -93.5 -32.5
c-24.5 -18.4 -47.1 -44.7 -67.1 -78.2c-26 -43.5 -47.9 -99 -65.2 -165.1c-11.1 -42.4 -20.1 -88.8 -26.5 -136.4h-208.5c-57.3 0 -96 35.9 -117.8 77.4c-44.7002 85.1 -3.2002 491.6 147.8 451.3c13.4 -3.59998 66 -111.3 210.9 -111.3c146.7 0 198.4 107.7 211.7 111.3
c0.699951 0.200012 1.39996 0.400024 2.09998 0.5c4.40002 -32.5 13.1 -64.2 25.9 -94.7c3.69995 -8.69995 7.59998 -17.2 11.9 -25.6zM1607.5 1262.3c118.3 0 214.2 -96.6001 214.2 -215.7s-95.8999 -215.7 -214.2 -215.7s-214.2 96.6 -214.2 215.7
s95.8999 215.7 214.2 215.7zM1967 461.5c-21.8 -41.5 -66.3 -77.4 -117.8 -77.4h-208.6c-6.40002 47.6 -15.4 94 -26.5 136.4c-17.2999 66.1 -39.2 121.7 -65.2 165.1c-20 33.5 -42.6 59.8 -67.1 78.1c-28.8 21.6 -60.2001 32.5 -93.5 32.5
c-10.9 0 -21.9 -1.20001 -33.1001 -3.60004c4.30005 8.5 8.40002 17.1 12.1001 26c12.7999 30.5 21.5 62.3 25.8999 94.9c1.1001 -0.200012 2.20007 -0.5 3.30005 -0.799988c13.4 -3.60004 66 -111.3 210.9 -111.3c146.7 0 198.4 107.7 211.7 111.3
c151.1 40.4 192.6 -366.1 147.9 -451.2zM1360 965c0 -187.2 -150.7 -339 -336.6 -339s-336.6 151.8 -336.6 339c0 187.2 150.7 339 336.6 339s336.6 -151.8 336.6 -339zM1403.2 -76h-758.4c-90 0 -150.8 56.4004 -185.1 121.7c-70.301 133.8 -5.10001 772.5 232.199 709.2
c21 -5.60004 103.601 -174.9 331.401 -174.9c230.5 0 311.7 169.3 332.7 174.9c237.3 63.2 302.6 -575.5 232.3 -709.2c-34.3 -65.2998 -104.1 -121.7 -185.1 -121.7z" />
    <glyph glyph-name="uniE039" unicode="&#xe039;" 
d="M1934 789.4c12.9 -1.80005 34 -17.8 34 -35.8v-279.2c0 -18 -21.1 -34 -34 -35.8l-240.3 -22.1c-14.1 -47.9 -33.2 -93.7 -56.7 -136.7l154.2 -185.3c7.90002 -10.4004 11.5 -36.5996 -1.19995 -49.2998l-197.5 -197.5c-12.7 -12.7 -38.9 -9.09999 -49.3 -1.2
l-185.4 154.2c-42.9 -23.4004 -88.5 -42.4004 -136.2 -56.4004l-22.1 -240.3c-1.90002 -12.9 -17.9 -34 -35.8 -34h-279.3c-18 0 -34 21.1 -35.8 34l-22.1 240.3c-47.9 14.1006 -93.6 33.2002 -136.6 56.7002l-185.8 -154.5c-10.4 -7.89999 -36.6 -11.5 -49.3 1.2
l-197.5 197.5c-12.7 12.7002 -9.09999 38.8994 -1.19998 49.2998l154.6 185.8c-23.4 42.8 -42.4 88.4 -56.4 136.1l-240.3 22.1c-12.9 1.89999 -34 17.9 -34 35.8v279.3c0 18 21.1 34 34 35.8l240.4 22.1c14 47.7 33 93.2 56.4 136.1l-154.6 185.9
c-7.90001 10.4 -11.5 36.6 1.19998 49.3l197.5 197.5c12.7 12.6 38.9 9.09998 49.3 1.19995l185.6 -154.5c43.1 23.5 88.8 42.6 136.7 56.7l22.1 240.3c1.90002 12.9 17.9 34 35.8 34h279.2c18 0 34 -21.1 35.8 -34l22.1 -240.3c47.7 -14 93.3 -33 136.2 -56.3999
l185.5 154.2c10.4 7.90002 36.6001 11.5 49.3 -1.19995l197.5 -197.5c12.7 -12.7001 9.09998 -38.9 1.19995 -49.3l-154.2 -185.3c23.5 -43 42.6 -88.8 56.7 -136.7zM1024 614h-0.5l0.5 0.5v-0.5zM1342 614c0 175.6 -142.4 318 -318 318s-318 -142.4 -318 -318
c0 -175.6 142.4 -318 318 -318s318 142.4 318 318z" />
    <glyph glyph-name="Mod_AutoPilot" unicode="&#xe03a;" 
d="M1568 866.6l208.2 -905.6c3.89941 -15.7002 -2.5 -32.5 -15.6006 -42.9004l-166.5 -125c-15.1992 -11.3994 -46.3994 -12.6992 -61.0996 14.3008l-363.1 660.899l-336.9 -336.899l68.9004 -252.5c4 -14.3008 0 -28.6006 -10.4004 -40.4004l-124.9 -124.9
c-11.8994 -12.1992 -44.2998 -20.5996 -63.6992 5.30078l-245.9 327.8l-327.9 246c-20.0996 15.0996 -23.0996 44.2002 -5.19922 62.3994l124.899 126.2c7.7998 7.90039 23.1006 14.9004 40.2998 10.6006l252.4 -69l337 337l-661 363.1
c-25.0996 13.9004 -29.4004 47 -10.4004 66.2998l166.601 166.601c9.7998 9.7998 26 14.2998 39 10.3994l865.3 -206.899l208.3 208.199c124.9 124.9 333 208.2 416.3 124.9c83.2002 -83.2998 0 -291.5 -124.899 -416.4z" />
    <glyph glyph-name="Mod_Auto" unicode="&#xe03b;" 
d="M1305 730.9c13.4004 -2.90039 23 -15.4004 23 -28.8008v-177.399c0 -12.4004 -9.59961 -26.9004 -21.9004 -28.7002l-149.399 -21.5996c-8.30078 -26.2002 -18.9004 -51.5 -31.5 -75.6006l89.7998 -119.899c7.5 -11.5 5.40039 -27.2002 -4 -36.6006l-124.2 -125.6
c-8.7998 -8.90039 -25.5996 -12.2998 -35.7002 -4.7998l-120.699 91.5996c-23.9004 -12.5996 -49 -22.9004 -75.1006 -31.2002l-20.3994 -148.8c-2.90039 -13.5 -15.2002 -23 -28.5 -23h-175.801c-12.2998 0 -26.5996 9.59961 -28.5 22.0996l-21.1992 150.9
c-26 8.2998 -51.1006 18.9004 -74.8008 31.7998l-118.699 -90.7998c-11.4004 -7.5 -26.9004 -5.40039 -36.3008 4.09961l-124.199 125.601c-8.80078 8.7002 -12.1006 25.7002 -4.7002 35.8994l90.7002 121.9c-12.4004 24.2998 -22.8008 49.7002 -30.9004 76l-147.3 21.2998
c-13.2998 2 -22.7998 14.5 -22.7998 28v177.5c0 12.5 9.5 26.9004 21.7998 28.7998l149.399 21.5c8.30078 26.3008 18.9004 51.6006 31.5 75.6006l-89.0996 120.7c-8 10.8994 -6 26.5 3.40039 36l124.3 125.8c8.7002 8.7998 25.5 12.2002 35.5996 4.7002l120.8 -91.7002
c23.8008 12.5996 48.9004 23.0996 75 31.2002l21.4004 148.899c1.90039 13.5 14.2998 23 27.5996 23h175.5c12.2998 0 26.6006 -9.5 28.5 -22l21.2002 -151c26 -8.39941 51 -19.0996 74.7998 -31.8994l119.4 90c10.7002 8.19922 26.2002 6.09961 35.5 -3.40039l124.3 -125.6
c8.7998 -8.80078 12.2002 -25.8008 4.7998 -36l-90.5996 -122c12.2998 -24.2002 22.7002 -49.5 30.7998 -75.9004zM720 369c133.9 0 243.2 110.4 243.2 245.7c0 135.5 -109.3 245.8 -243.2 245.8c-134 0 -243.2 -110.4 -243.2 -245.8c0 -135.3 109.2 -245.7 243.2 -245.7z
M1928.6 1179.8c4.7002 -2 7.40039 -3.7998 7.5 -9.89941v-127.301c0 -3.89941 -1.09961 -6.7998 -5.2998 -8.89941c-22.2002 -11.5 -107.6 -21.4004 -132.1 -24c-8.2002 -19.4004 -18.6006 -37.5 -31.1006 -54.1006c9.60059 -21.8994 42.1006 -97.8994 45.3008 -125.399
c0.599609 -5.10059 0.399414 -8.40039 -4.80078 -11.4004l-109.1 -63.5996c-3.2998 -2 -6.40039 -2.40039 -10.2002 0.0996094c-20.8994 13.7002 -72 83.2002 -86.5996 103.5c-21.4004 -2.7998 -41.2002 -2.59961 -62.1006 0
c-14.5996 -20.2998 -65.6992 -89.7998 -86.5 -103.5c-3.89941 -2.5 -7 -2.09961 -10.2998 -0.0996094l-109.1 63.5996c-5.2002 3 -5.2998 6.2998 -4.7002 11.4004c3.10059 27.3994 35.6006 103.1 45.2998 125.2c-12.5996 16.5996 -23.0996 34.7998 -31.2998 54.2998
c-24.7002 2.7002 -109.8 12.5996 -131.9 24c-4.09961 2.09961 -5.39941 5 -5.39941 8.89941v127.301c0 6.09961 3 7.89941 7.59961 9.89941c25.1006 11 106.4 20.5 130 23c8.2002 19.2002 18.7002 37.2002 31.2002 53.7002c-9.7002 21.9004 -44.4004 102.7 -45.7002 128.1
c-0.200195 4.60059 1.7002 7.10059 5 9.10059l109.101 63.5996c5.19922 3 8.19922 1.40039 12.2998 -1.59961c21.8994 -16.4004 70.3994 -82.4004 84.5 -102.101c20.0996 2.60059 41.7998 2.7002 62.0996 0c14.2998 19.6006 62.7002 85.7002 84.7002 102.101
c3.90039 3.09961 6.90039 4.59961 12.0996 1.59961l109 -63.5996c3.30078 -2 5.2002 -4.5 5 -9.10059c-1.2998 -25.3994 -36 -106.399 -45.5996 -128.199c12.2998 -16.5 22.7998 -34.4004 30.9004 -53.6006c23.3994 -2.39941 105 -11.8994 130.199 -23zM1571.2 981.2
c68.5996 0 123.7 56.7002 123.7 125c0 68.3994 -56.2002 125.1 -123.7 125.1c-67.7002 0 -123.8 -56.7002 -123.8 -125.1c0 -69.2998 56.0996 -125 123.8 -125zM1928.6 195.3c4.7002 -2.09961 7.40039 -3.89941 7.5 -9.7998v-127.3
c0 -3.90039 -1.09961 -6.7998 -5.2998 -8.90039c-22.2002 -11.5 -107.6 -21.3994 -132.1 -24.0996c-8.2002 -19.2998 -18.6006 -37.5 -31.1006 -54.1006c9.60059 -21.8994 42.1006 -97.7998 45.3008 -125.399c0.599609 -5.10059 0.399414 -8.40039 -4.80078 -11.4004
l-109.1 -63.5996c-3.2998 -2 -6.40039 -2.2998 -10.2002 0.200195c-20.8994 13.7998 -72 83.1992 -86.5996 103.5c-21.4004 -2.7002 -41.2002 -2.5 -62.1006 0c-14.5996 -20.3008 -65.6992 -89.7002 -86.5 -103.4c-3.89941 -2.5 -7 -2.2002 -10.2998 -0.200195
l-109.1 63.6006c-5.2002 2.89941 -5.2998 6.2998 -4.7002 11.3994c3.10059 27.5 35.6006 103.2 45.2998 125.2c-12.5996 16.5996 -23.0996 34.9004 -31.2998 54.2998c-24.7002 2.7002 -109.8 12.6006 -131.9 24c-4.09961 2.10059 -5.39941 5 -5.39941 8.90039v127.3
c0 6 3 7.7998 7.59961 9.90039c25.1006 10.8994 106.4 20.3994 130 22.8994c8.2002 19.2002 18.7002 37.2998 31.2002 53.7002c-9.7002 22 -44.4004 102.8 -45.7002 128.2c-0.200195 4.59961 1.7002 7 5 9l109.101 63.5996
c5.19922 2.90039 8.19922 1.40039 12.2998 -1.59961c21.8994 -16.2998 70.3994 -82.5 84.5 -102.101c20.0996 2.60059 41.7998 2.7002 62.0996 0c14.2998 19.6006 62.7002 85.7002 84.7002 102.101c3.90039 3 6.90039 4.59961 12.0996 1.59961l109 -63.5996
c3.30078 -2 5.2002 -4.40039 5 -9c-1.2998 -25.4004 -36 -106.5 -45.5996 -128.3c12.2998 -16.4004 22.7998 -34.4004 30.9004 -53.6006c23.3994 -2.5 105 -12 130.199 -23zM1571.2 -3.40039c68.5996 0 123.7 56.7002 123.7 125.101c0 68.3994 -56.2002 125 -123.7 125
c-67.7002 0 -123.8 -56.6006 -123.8 -125c0 -69.4004 56.0996 -125.101 123.8 -125.101z" />
    <glyph glyph-name="Mod_Cinema" unicode="&#xe03c;" 
d="M1936 1258.5v-1289.1c0 -84.5 -68.4004 -153.5 -152 -153.5h-1520c-83.5996 0 -152 69 -152 153.5v1289.1c0 84.5 68.4004 153.5 152 153.5h1520c83.5996 0 152 -69.0996 152 -153.5zM1814.4 1105.1h0.0996094v122.801c0 33.5996 -27.7002 61.3994 -60.9004 61.3994
h-121.6c-33.2998 0 -60.7998 -27.8994 -60.7998 -61.3994v-122.801c0 -33.5996 27.5 -61.3994 60.7998 -61.3994h121.5c33.2998 0 60.9004 27.7998 60.9004 61.3994zM1814.4 736.8h0.0996094v122.7c0 33.5996 -27.7002 61.4004 -60.9004 61.4004h-121.6
c-33.2998 0 -60.7998 -27.8008 -60.7998 -61.4004v-122.7c0 -33.5996 27.5 -61.3994 60.7998 -61.3994h121.5c33.2998 0 60.9004 27.7998 60.9004 61.3994zM1814.4 368.5h0.0996094v122.8c0 33.5 -27.7002 61.4004 -60.9004 61.4004h-121.6
c-33.2998 0 -60.7998 -27.9004 -60.7998 -61.4004v-122.8c0 -33.5996 27.5 -61.2998 60.7998 -61.2998h121.5c33.2998 0 60.9004 27.7002 60.9004 61.2998zM1449.6 736.8v491.101c0 33.5996 -27.5 61.3994 -60.6992 61.3994h-729.7
c-33.2002 0 -60.7998 -27.8994 -60.7998 -61.3994v-491.101c0 -33.5996 27.5996 -61.3994 60.7998 -61.3994h729.7c33.2998 0 60.6992 27.7998 60.6992 61.3994zM1814.4 0.200195h0.0996094v122.7c0 33.5996 -27.7002 61.2998 -60.9004 61.2998h-121.6
c-33.2998 0 -60.7998 -27.7002 -60.7998 -61.2998v-122.7c0 -33.6006 27.5 -61.5 60.7998 -61.5h121.5c33.2998 0 60.9004 27.8994 60.9004 61.5zM476.8 1105.1v122.801c0 33.5996 -27.5 61.3994 -60.7998 61.3994h-121.6c-33.2002 0 -60.8008 -27.8994 -60.8008 -61.3994
v-122.801c0 -33.5996 27.5 -61.3994 60.8008 -61.3994h121.6c33.2998 0 60.7998 27.7998 60.7998 61.3994zM1449.6 0.200195v491.1c0 33.5 -27.5 61.4004 -60.6992 61.4004h-729.7c-33.2002 0 -60.7998 -27.9004 -60.7998 -61.4004v-491.1
c0 -33.6006 27.5996 -61.5 60.7998 -61.5h729.7c33.2998 0 60.6992 27.8994 60.6992 61.5zM476.8 736.8v122.7c0 33.5996 -27.5 61.4004 -60.7998 61.4004h-121.6c-33.2002 0 -60.8008 -27.8008 -60.8008 -61.4004v-122.7c0 -33.5996 27.5 -61.3994 60.8008 -61.3994h121.6
c33.2998 0 60.7998 27.7998 60.7998 61.3994zM476.8 368.5v122.8c0 33.5 -27.5 61.4004 -60.7998 61.4004h-121.6c-33.2002 0 -60.8008 -27.9004 -60.8008 -61.4004v-122.8c0 -33.5996 27.5 -61.2998 60.8008 -61.2998h121.6c33.2998 0 60.7998 27.7002 60.7998 61.2998z
M476.8 0.200195v122.7c0 33.5996 -27.5 61.2998 -60.7998 61.2998h-121.6c-33.2002 0 -60.8008 -27.7002 -60.8008 -61.2998v-122.7c0 -33.6006 27.5 -61.5 60.8008 -61.5h121.6c33.2998 0 60.7998 27.8994 60.7998 61.5z" />
    <glyph glyph-name="Mod_DoubleTime" unicode="&#xe03d;" 
d="M827.3 -148.9c-9.7998 -9.7998 -9.7998 -25.5 0 -35.2998l113.9 -113.8c-430.3 38.2002 -775.2 374.4 -826.7 800.7l126.9 127l146.6 -146.7c55.5 -270.5 280 -480 558 -513.1zM1218.7 1368.7c9.7998 9.7002 9.7998 25.5 0 35.2998l-121.9 122
c427.5 -34.0996 772.3 -362.3 832.2 -782.1l-139.4 -139.301l-129.5 129.601c-51.5996 273.2 -275 486.5 -553.399 522.5zM1772 421.3c9.7002 -9.7002 25.5 -9.7002 35.0996 0l128.801 128.8c-29.9004 -437.3 -367.301 -790.399 -797.5 -844.6l-128 127.9l145.5 145.6
c266.6 55.7998 473.399 275.7 509.699 548.8zM259 812.9c-9.7998 9.7998 -25.5 9.7998 -35.2998 0l-111.7 -111.7c40.2998 423.899 369.9 763.8 789.1 819.7l134.5 -134.601l-136.1 -136.2c-273.4 -52.8994 -486 -278.199 -520 -557.8zM1442.5 625.3
c8.7998 -4.7998 8.7998 -12.7998 0 -17.5l-377.2 -209.7c-8.7998 -4.7998 -15.8994 -0.5 -15.8994 9.40039v183.6l-347.101 -193c-8.89941 -4.7998 -15.8994 -0.5 -15.8994 9.40039v418.1c0 9.90039 7 14.2002 15.8994 9.40039l347 -193v183.6
c0 9.90039 7.10059 14.2002 15.9004 9.40039z" />
    <glyph glyph-name="Mod_Easy" unicode="&#xe03e;" 
d="M1917.9 864.6c25 -20.6992 19.2998 -50.5 11.1992 -63.1992c-22 -34.2002 -68.5996 -28.8008 -134.8 -10.9004c-144.1 38.7002 -214.399 9.2002 -239.5 -6.90039l51.9004 -90.3994c54.2002 -94.2002 22 -214.601 -71.7998 -269l-559.2 -324.101
c-93.7998 -54.2998 -213.8 -22.0996 -267.9 72.1006l-31.8994 55.3994c-26.6006 -29.3994 -68 -79.1992 -125.101 -158.6c-30.7002 -42.7002 -91.2998 -108 -146.399 -99.7998c-53.3008 7.89941 -83.5 94.2002 -98.3008 165.2c-25.5 -4.30078 -49.5 -3 -68.5996 10.2998
c-27.5 19.2002 -28.7002 50 -29.4004 70.3994c-0.199219 6.30078 -0.699219 19.1006 -2.59961 21.7002c-0.700195 1 -6.7998 4.60059 -23 5.90039c-50 4.2002 -69.0996 33.7002 -70.4004 60.2002c-2.19922 44.6992 45 85.5996 85 112
c43.1006 28.5996 152.9 82.3994 336.2 60.5996l-21.5996 37.5996c-54.1006 94.2002 -22 214.601 71.7998 268.9l559.2 323.9c89.5 50.5 212.6 32.5996 276.2 -86.4004c11.6992 68.0996 43.0996 167.3 104.3 211c49 35.0996 108.399 38.5 154.8 9.2002
c33.7002 -21.2998 55 -56.9004 59.4004 -96.5c58 -22.5 137.1 -49.7002 147 -99.9004c7.89941 -40 -29.3008 -72.2998 -29.6006 -86.5996c-0.200195 -12.2002 21.2998 -57.5 63.1006 -92.1006zM475 106.9c44.7002 63.3994 110.2 147.5 157.4 196.1l-47 81.7002
c-11.6006 5.09961 -90.8008 36.3994 -207.4 15.2998c-70.2002 -12.7002 -133.7 -50.7002 -164.4 -77.5c94.5 -25.5996 74.5 -92.5996 78 -104.4c2.5 -8.39941 19.3008 2.80078 37 8.7002c12.3008 4.10059 34.3008 5.40039 44.6006 -7
c8.2998 -10 9.09961 -17.0996 10.2002 -30c6.5 -73.5 34.2998 -135.7 38.5 -136.5c4.19922 -0.899414 21.6992 9.10059 53.0996 53.6006zM1512.8 856.3c43.9004 27.2002 133.101 57.9004 290.4 18.4004c-51.2002 53 -39.2002 119.3 -1.2002 148
c-40.5996 28.5996 -66.5 36.5996 -115.6 47c-22 4.7002 -36.4004 26 -32.6006 48.2002c3.7002 21.5 -4 40.5 -20.3994 50.8994c-17.7002 11.2002 -40.2002 8.90039 -61.8008 -6.5c-63 -45 -80.5 -206.8 -81.8994 -265.899z" />
    <glyph glyph-name="Mod_Flashlight" unicode="&#xe03f;" 
d="M1033.2 626.2c-0.200195 -59.7998 -48.4004 -108 -107.601 -108l-1 -265l-359.899 183.1l-357.601 1.2998c-52.6992 0.200195 -95.2998 43.5 -95.0996 96.6006l0.700195 190.7c0.200195 53.1992 43.0996 96.0996 95.7998 95.8994l357.6 -1.2998l361.2 180.5l-1 -265
c59.2002 -0.5 107 -49.0996 106.9 -108.8zM1932.8 -118.1c-6.5 -16.1006 -28.3994 -33.4004 -54.0996 -22.6006l-862.5 361.8c-21.2002 8.90039 -31.2002 33.4004 -22.4004 54.6006c8.7998 21.3994 33 31.5 54.2002 22.5996l862.4 -361.7
c21.1992 -8.89941 31.1992 -33.3994 22.3994 -54.6992zM1052 959.3c-25 -11.5996 -47.9004 4.40039 -55 20.6006c-9.2998 21.3994 -0.299805 45.7998 20.5 55.3994l720.7 333c20.7998 9.60059 45.2998 0.400391 54.8994 -20.5996
c9.5 -21 0.400391 -45.7998 -20.3994 -55.4004z" />
    <glyph glyph-name="Mod_HalfTime" unicode="&#xe040;" 
d="M1689.8 -91.2002c0.299805 -1.39941 -0.0996094 -2.5 -0.0996094 -3.59961c0.0996094 -10.7002 -7 -20.2998 -17.7002 -22.2002l-1008.1 -180.5c-10.7002 -2 -23.1006 5.2998 -25.5 18l-25.2002 144c-2.10059 12.0996 5.89941 23.5996 17.7998 25.7998l57.7998 10.2998
c-27.8994 257.4 41.9004 430.301 129 566l60.1006 96.2002c14.6992 25.1006 13.7998 30.2002 -8.10059 48.2002c0 0 -120.3 94.7998 -148.8 119.7c-115.1 100.6 -203.5 228.399 -253.8 436.7l-58.1006 -10.4004c-12 -2.2002 -23.3994 5.90039 -25.5 18
c0 0 -19.5996 110.8 -25.1992 144.101c-2 11.5 5.2998 23.5996 17.7998 25.7998l1008 180.7c10.7998 1.89941 23.3994 -6.5 25.5 -18.1006l25.2002 -144.2c2.19922 -12 -5.80078 -23.5996 -17.7002 -25.7998l-57.1006 -10.2002
c28.4004 -267.1 -53.8994 -438.199 -114.1 -536.899c-11.9004 -19.5 -64 -100.2 -77 -121.8c-18.4004 -30.3008 -17.7002 -33.9004 9.59961 -56.1006l148 -117.399c113.9 -98.4004 194.301 -224.801 238.9 -375.9c5.59961 -18.6006 10.5996 -37.7998 15.5996 -56.2998
l0.100586 -0.400391c0.200195 -0.599609 0.399414 -1.2998 0.5 -1.7998l57.2998 10.2002c12 2.19922 23.2998 -6 25.5 -18zM801.4 -79.2002l667.899 119.601c-52.3994 208 -156.5 326.399 -279.399 418.5l-96.3008 75.7998c-56.1992 48 -67.2998 112.899 -30.6992 177.8
l63.8994 103.1c89.5 135.9 142 284.5 120 491.5l-666.8 -119.5c40.2002 -168.5 120.2 -290.6 233.5 -384.8c20 -16.7002 138.3 -111.399 138.3 -111.399c55 -47.1006 66.2002 -110.9 30.7998 -174.9l-63.1992 -103.5c-88 -135.9 -139.9 -282.6 -118 -492.2zM1153.5 1121.4
c-62.5 -185.9 -161.5 -288.9 -161.5 -288.9c-169.4 78.7002 -254.9 207.2 -292.8 289z" />
    <glyph glyph-name="Mod_HardRock" unicode="&#xe041;" 
d="M1642.1 347.7h0.100586v769.2c0 27.3994 -24 50.5 -51.4004 50.5c-27.3994 0 -49.7002 -22.2002 -49.7002 -49.6006v-620.5c-2.19922 -155.7 -187.399 -244.8 -309.1 -135.399c-117 -106.5 -309.1 -24.7002 -309.1 137.5v841.3
c0 27.7002 -22.6006 50.2998 -50.4004 50.2998s-50.4004 -22.5996 -50.4004 -50.2998v-970.4h-0.399414c0 -36.8994 -30.7002 -67.5 -68.2002 -67.5c-35.7998 0 -64.9004 27.7998 -67.5 62.7002l-188 283.5c-15.2002 23.0996 -48.2998 28.7998 -68.2002 15.0996
c-24.8994 -17.1992 -31.0996 -47.8994 -15.2998 -71.1992l166 -245.2c9.7998 -285.2 244.9 -514.7 532.9 -514.7c287.899 0 518.899 229.1 528.699 514.7zM1059 758.4v-259.7c0 -28.2002 22.9004 -50.7002 50.7002 -50.7002c28.0996 0 50.7998 22.9004 50.7998 50.7002
v259.7c0 28.0996 -23.2002 50.6992 -50.7998 50.6992c-28.2002 0 -50.7002 -22.8994 -50.7002 -50.6992zM1306.8 758.4v-259.7c0 -28.2002 23 -50.7002 50.7998 -50.7002c28 0 50.7002 22.9004 50.7002 50.7002v259.7c0 28.0996 -23.0996 50.6992 -50.7002 50.6992
c-28.2998 0 -50.7998 -22.8994 -50.7998 -50.6992zM1776.8 1117.4l-0.299805 -770.2c-9.7002 -357.5 -303.6 -645.3 -663.8 -645.3c-341.2 0 -622.601 258.3 -659.101 590.3l-150.699 225.399c-57.3008 85.4004 -34.3008 199.9 50.6992 256.9
c77.2002 52 194.801 41.5 256.5 -51.0996l77.7002 -116.301v733.601c0 102.5 83.2002 185.3 185.4 185.3c102.5 0 185.399 -83.2002 185.399 -185.3v-403.9c81 21.4004 141.601 -11.2998 174.4 -40.8994c32.5 29.5996 92.2998 62.0996 174.4 40.8994v180.601
c0 101.8 82.7998 184.6 184.699 184.6c101.9 0 184.7 -82.7998 184.7 -184.6z" />
    <glyph glyph-name="Mod_Hidden" unicode="&#xe042;" 
d="M836.9 1446.7l-627 -1087.2l-98 169.8l529 917.4h196zM1023.8 1446.7h196l-818.399 -1419.1l-98 169.801zM1503.9 1446.7l49.2998 -85.6006l-911 -1579.8h-98.7998l-48.5 84.2002l911.8 1581.2h97.2002zM1646.6 1198.9l98 -169.801l-719.6 -1247.8h-195.8zM1838 867
l98 -169.9l-528.1 -915.8h-195.9z" />
    <glyph glyph-name="Mod_Nightcore" unicode="&#xe043;" 
d="M1803.8 174.6l3.40039 -151.6c1.2002 -49.4004 -17.6006 -103.4 -128.9 -92.7002l-11.5 -118.5c-4.89941 -49.2002 -48.8994 -85.0996 -98.0996 -80.3994l-178.8 17.5c-49.4004 4.89941 -85.5 48.6992 -80.7002 97.7998l61.5 623.899
c5 49.2002 48.7998 85.2002 98.0996 80.5l178.8 -17.5c49.4004 -4.89941 86.6006 -41.2998 79.5 -107.3c28.7002 -4.89941 47.3008 -17.2998 58.7002 -34.5c26.9004 80.5 47.2002 222.2 36.2002 348.9l-121.7 74.0996c-84.5996 300.601 -355.3 520.601 -676.399 520.601
c-321 0 -591.801 -220.101 -676.5 -520.601l-121.7 -74.0996c-11 -126.7 9.2998 -268.4 36.2002 -348.9c11.2998 17.1006 30.0996 29.5 58.6992 34.5c-7 66 30.1006 102.4 79.5 107.3l178.9 17.5c49.2998 4.7002 93.2002 -31.1992 98 -80.5l61.5 -623.899
c4.90039 -49.1006 -31.2002 -92.9004 -80.5996 -97.7998l-178.801 -17.5c-49.1992 -4.80078 -93.2998 31.1992 -98.0996 80.3994l-11.5996 118.5c-111.2 -10.7998 -130 43.2002 -128.801 92.7002l3.5 151.6c-83.8994 142.601 -132.1 310.4 -132.1 489.7
c0 157.9 37.4004 306.9 103.5 437.601l57.7002 -49.2002c150.8 265.2 436.1 444.3 750.8 444.3s600 -179.1 750.7 -444.3l57.7002 49.2002c66.2998 -130.7 103.6 -279.7 103.6 -437.601c0 -179.3 -48.0996 -347.1 -132.2 -489.7z" />
    <glyph glyph-name="Mod_NoFail" unicode="&#xe044;" 
d="M1516.7 444l197.5 -197.5c58 109.9 91.5 235.1 91.5 367.5s-33.5 257.5 -91.5 367.5l-197.5 -197.5c18.3994 -53.9004 28.5 -110.9 28.5 -170c0 -59 -10.1006 -116.1 -28.5 -170zM1024 223.1c215.8 0 390.9 175.101 390.9 390.9c0 215.9 -175.101 390.9 -390.9 390.9
c-215.9 0 -390.9 -175.101 -390.9 -390.9c0 -215.9 175.101 -390.9 390.9 -390.9zM1024 -167.7c132.3 0 257.6 33.5 367.5 91.5l-197.5 197.5c-53.9004 -18.3994 -109.9 -28.5 -170 -28.5c-59.0996 0 -116.1 10.1006 -170 28.5l-197.5 -197.5
c110 -58 235.2 -91.5 367.5 -91.5zM333.9 246.5l197.399 197.5c-18.2998 53.9004 -28.5 111 -28.5 170c0 60.0996 10.2002 116.1 28.5 170l-197.399 197.5c-58 -110 -91.6006 -235.1 -91.6006 -367.5s33.6006 -257.6 91.6006 -367.5zM1024 1395.7
c-132.3 0 -257.5 -33.6006 -367.5 -91.6006l197.5 -197.399c53.9004 18.2998 110.9 28.5 170 28.5c60.0996 0 116.1 -10.2002 170 -28.5l197.5 197.399c-109.9 58 -235.2 91.6006 -367.5 91.6006zM1024 1526c503.9 0 912 -408.2 912 -912c0 -503.9 -408.1 -912 -912 -912
c-503.8 0 -912 408.1 -912 912c0 503.8 408.2 912 912 912z" />
    <glyph glyph-name="Mod_Relax" unicode="&#xe045;" 
d="M563.4 1053.3h-84.6006l-206.2 417.7c-9.2998 18.7998 -1.69922 41.7002 17.1006 51.0996c18.7002 9.30078 41.5 1.7002 50.7002 -17.1992zM1434 1276.5c197.3 0 357.2 -160.9 357.2 -359.5c0 -198.5 -159.9 -359.5 -357.2 -359.5
c-56.2998 0 -109.7 13.2002 -157.1 36.5996l223.6 224.9c36.5 36.7002 54.7998 75 54.7998 113.7c0 60 -46.7002 120.6 -151 120.6h-300.899c53.5 131 181.3 223.2 330.6 223.2zM1479.7 932.7c0 -22.2998 -17.5 -44.5 -32.7998 -59.7998l-481.301 -484.2v-588.5h243.9
c26.5996 0 48.7002 -22.2998 48.7002 -49.1006c0 -26.7998 -22.1006 -49.0996 -48.7002 -49.0996h-682.4c-26.5996 0 -48.6992 22.2998 -48.6992 49.0996c0 26.8008 22.0996 49.1006 48.6992 49.1006h243.601v588.5l-481.2 484.2
c-15.2998 15.2998 -32.7998 37.5 -32.7998 59.7998c0 37.5996 47.2002 44.5 75.3994 44.5h1072.3c28.0996 0 75.2998 -7 75.2998 -44.5z" />
    <glyph glyph-name="Mod_SpunOut" unicode="&#xe046;" 
d="M556.3 -169c-266.2 159.3 -444.3 450.3 -444.3 783c0 63.7998 6.5 126.1 19 186.2c188.1 404 783.3 308.399 841.2 -134.4l0.200195 -3.2002c-380.101 -33.6992 -630.9 -464.899 -416.101 -831.6zM1240.6 1500.1c377.7 -199.5 277.301 -773.199 -157 -830
l-2.89941 -0.199219c-34 383.1 -471.5 634.699 -839.9 411.399h-0.0996094c159.2 266.4 450.5 444.7 783.3 444.7c74.7002 0 147.3 -9 216.6 -25.9004zM1507.6 1387.4c257.301 -161.301 428.4 -447.4 428.4 -773.301c0 -81.0996 -10.5996 -159.8 -30.5 -234.6
c-210 -351.1 -762 -245.9 -817.3 179.6l-0.200195 2.80078c378 33.5 627.9 460.199 419.6 825.5zM979.9 554.5c33.1992 -375.2 453.899 -624.2 817.5 -424.3c-161.301 -257.3 -447.4 -428.3 -773.4 -428.3c-71 0 -140.3 8.09961 -206.7 23.5996
c-374.899 200.6 -273.899 772.3 159.7 828.8z" />
    <glyph glyph-name="Mod_SuddenDeath" unicode="&#xe047;" 
d="M1025.3 1526c480.3 0 660.7 -414.9 660.9 -414.9c81.2998 -279.3 73.5 -684.9 60.5996 -727.1c-13 -42.2002 -20.0996 -79.4004 -18.7998 -80.4004s51.2998 -108 28.5 -161.8c-22.5996 -53.7998 -110.7 -157.8 -151.6 -183.101
c-40.9004 -25.1992 -142.3 -77.5 -190.601 -123.199c-48.1992 -45.7002 -105.6 -90.1006 -112.6 -92.6006c-7 -2.39941 -12.7998 8.5 -12.7998 24.3008c0 15.6992 -5.2002 28.6992 -11.4004 28.6992s-11.2998 -14.5 -11.2998 -32.1992
c0 -17.7002 -42.7002 -43 -59.7998 -46.2002c-17 -3 -31 13.4004 -31 36.4004c0 23.0996 -5.10059 42 -11.2002 42c-6.2998 0 -11.4004 -19.6006 -11.4004 -43.6006s-44.5996 -47.8994 -62.2998 -48.5996c-17.5 -0.700195 -31.7998 19.7002 -31.7998 45.5
s-5.10059 46.7998 -11.4004 46.7998c-6.2002 0 -11.2998 -21.0996 -11.2998 -47s-0.299805 -47 -0.599609 -47h-0.200195h-32.4004c-34.2002 2.5 -62.2002 24.5996 -62.2002 49.2998c0 24.5 -5 44.6006 -11.1992 44.6006c-6.2002 0 -11.3008 -19.6006 -11.3008 -43.6006
s-47.1992 -36.5 -64.2998 -32.7002c-17.0996 3.80078 -31.0996 22.6006 -31.0996 41.6006c0 19.2002 -5.10059 34.7002 -11.2998 34.7002c-6.2002 0 -11.3008 -14.2002 -11.3008 -31.6006c0 -17.3994 -26.7998 -23.0996 -36.5996 -19.3994
c-9.7998 3.69922 -53.7998 162.699 -109.2 158.399c-55.3994 -4.5 -188.8 40.4004 -218.899 68.2002c-30.1006 27.7998 -102.5 153.4 -93.4004 205.6c9 52.3008 -34 237.4 -50.9004 297.4c-16.8994 60 4.5 358.1 88.5 636.6c0 0 165.301 414.9 645.7 414.9zM927 446.7
c34.2998 62.0996 -115.1 291.2 -217.7 273.7c-102.8 -17.5 -260.1 -197.601 -206.8 -342.801c31.5996 -86.2998 195.7 -167.699 243.1 -119.3c47.3008 48.4004 147 126.5 181.4 188.4zM1100 176.5c-19 78.7998 -49.2998 171.3 -51.9004 173.7
c-2.5 2.2998 -8.69922 8.5 -10.5996 8.89941c-2 0.300781 -4.09961 0.600586 -4.09961 0.600586h-0.800781c-0.0996094 0 -5.39941 -0.799805 -7 -2.2998c-1.5 -1.5 -9.19922 -8.90039 -11.1992 -12.1006c-2 -2.89941 -29 -90 -48 -168.8
c-18.9004 -79.0996 -3.80078 -160.7 21.1992 -144.2c25 16.6006 90.2002 8.10059 110.301 5.40039c20.0996 -2.5 21.0996 59.7998 2.09961 138.8zM1571.9 400.6c59.6992 146.5 -142.9 363.5 -239.5 331.801c-97 -31.5 -203.4 -234.7 -164.9 -294.301
c38.4004 -59.5996 201.7 -170.699 257.4 -180.3c55.6992 -9.7002 112.3 57.9004 147 142.8z" />
    <glyph glyph-name="Mod_Target" unicode="&#xe048;" 
d="M1936 538c0 -41.5 -34.5 -76 -76 -76h-169.8c-58.2002 -255.4 -258.8 -456 -514.2 -514.2v-169.8c0 -41.5 -34.5 -76 -76 -76h-152c-41.5 0 -76 34.5 -76 76v169.8c-255.4 58.2002 -456 258.8 -514.2 514.2h-169.8c-41.5 0 -76 34.4004 -76 76v152c0 41.5 34.5 76 76 76
h169.8c58.2002 255.4 258.8 456 514.2 514.2v169.8c0 41.5 34.5 76 76 76h152c41.5 0 76 -34.5 76 -76v-169.8c255.3 -58.2002 456 -258.8 514.2 -514.2h169.8c41.5 0 76 -34.5 76 -76v-152zM1404 462c-41.5 0 -76 34.4004 -76 76v152c0 41.5 34.5 76 76 76h129.5
c-51 171 -186.4 306.3 -357.5 357.4v-129.4c0 -41.5 -34.5 -76 -76 -76h-152c-41.5 0 -76 34.5 -76 76v129.4c-171 -51.1006 -306.4 -186.4 -357.5 -357.4h129.5c41.5 0 76 -34.5 76 -76v-152c0 -41.5 -34.5 -76 -76 -76h-129.5c51.0996 -171 186.5 -306.4 357.5 -357.4
v129.4c0 41.5 34.5 76 76 76h152c41.5 0 76 -34.5 76 -76v-129.4c171 51 306.5 186.4 357.5 357.4h-129.5z" />
    <glyph glyph-name="Mod_BG" unicode="&#xe049;" 
d="M1463.9 1248c82.5 0 158.899 -40.2998 200.899 -111l238.5 -399.9c43.5 -73.1992 43.5 -163.5 0 -236.699l-238.5 -403.801c-42.0996 -70.7998 -118.399 -116.6 -200.899 -116.6h-880.801c-82.5 0 -158.3 46.2002 -200.3 116.9l-238.2 402.8
c-43.5 73.2002 -43.3994 165 0.200195 238.2l238.601 398.6c42.0996 70.7998 118.5 111.4 201 111.4h879.5v0.0996094z" />
  </font>
</defs>
</svg>
