<?xml version="1.0" encoding="utf-8"?>
<!-- Generator: Adobe Illustrator 16.0.4, SVG Export Plug-In . SVG Version: 6.00 Build 0)  -->
<!DOCTYPE svg PUBLIC "-//W3C//DTD SVG 1.1//EN" "http://www.w3.org/Graphics/SVG/1.1/DTD/svg11.dtd">
<svg version="1.1" id="Layer_1" xmlns="http://www.w3.org/2000/svg" xmlns:xlink="http://www.w3.org/1999/xlink" x="0px" y="0px"
	 width="1000px" height="1000px" viewBox="0 0 1000 1000" enable-background="new 0 0 1000 1000" xml:space="preserve" opacity="0.15">
<polygon fill="#818285" points="-960.471,853.004 -299.263,-292.208 361.894,853.004 "/>
<polygon fill="#818285" points="85.373,264.03 746.58,-881.183 1407.736,264.03 "/>
<polygon fill="#231F20" points="-299.289,561.812 361.919,-583.399 1023.078,561.812 "/>
<polygon fill="#595A5C" points="632.508,978.83 1293.715,-166.382 1954.871,978.83 "/>
<polygon fill="#595A5C" points="-161.082,1584.527 500.125,439.316 1161.283,1584.527 "/>
<polygon fill="#A8AAAD" points="-328.299,295.049 -77.204,-139.849 173.875,295.049 "/>
<polygon fill="#A8AAAD" points="-118.13,1266.971 132.958,832.064 384.036,1266.971 "/>
<polygon fill="#595A5C" points="406.134,506.237 657.225,71.336 908.301,506.237 "/>
<polygon fill="#A8AAAD" points="867.959,1168.555 1119.055,733.654 1370.133,1168.555 "/>
<polygon fill="#595A5C" points="376.862,1518.838 502.412,1301.396 627.951,1518.838 "/>
<polygon fill="#818285" points="-255.47,1139.488 -4.378,704.584 246.706,1139.488 "/>
<polygon fill="#231F20" points="816.34,704.582 941.885,487.144 1067.42,704.582 "/>
<polygon fill="#231F20" points="216.428,947.402 467.523,512.503 718.604,947.402 "/>
<polygon fill="#818285" points="377.979,-308.579 191.407,14.571 693.568,14.571 507.016,-308.579 "/>
<polygon fill="#818285" points="928.305,-308.579 867.279,-202.891 1118.365,-202.891 1057.348,-308.579 "/>
<polygon fill="#595A5C" points="222.458,760.283 473.549,325.383 724.621,760.283 "/>
<polygon fill="#818285" points="706.383,868 957.477,433.104 1208.559,868 "/>
<polygon fill="#595A5C" points="-36.802,1021.67 87.321,806.676 211.444,1021.67 "/>
<polygon fill="#A8AAAD" points="423.733,177.447 547.859,-37.548 671.979,177.447 "/>
<polygon fill="#231F20" points="827.541,147.808 951.668,-67.187 1075.785,147.808 "/>
<polygon fill="#818285" points="-62.491,770.746 -0.428,663.25 61.631,770.746 "/>
<polygon fill="#595A5C" points="439.052,1519.152 501.117,1411.66 563.18,1519.152 "/>
<polygon fill="#595A5C" points="656.309,1116.625 718.373,1009.133 780.432,1116.625 "/>
<polygon fill="#231F20" points="657.021,640.105 781.148,425.112 905.268,640.105 "/>
<polygon fill="#595A5C" points="827.539,532.613 951.668,317.622 1075.789,532.613 "/>
<polygon fill="#A8AAAD" points="-30.651,118.336 93.478,-96.656 217.594,118.336 "/>
<polygon fill="#A8AAAD" points="-155.588,496.644 -31.46,281.649 92.664,496.644 "/>
<polygon fill="#818285" points="840.939,-136.502 903.004,-243.994 965.062,-136.502 "/>
<polygon fill="#818285" points="258.139,539.996 320.206,432.508 382.265,539.996 "/>
<polygon fill="#818285" points="196.338,217.77 320.466,2.776 444.583,217.77 "/>
<polygon fill="#D2D3D4" points="347.372,775.516 471.498,560.521 595.617,775.516 "/>
<polygon fill="#A8AAAD" points="681.492,668.014 743.555,560.521 805.613,668.014 "/>
<polygon fill="#A8AAAD" points="681.492,296.827 743.555,189.335 805.613,296.827 "/>
<polygon fill="#A8AAAD" points="870.057,929.166 994.186,714.172 1118.303,929.166 "/>
<polygon fill="#A8AAAD" points="148.823,389.147 272.951,174.15 397.067,389.147 "/>
<polygon fill="#A8AAAD" points="-99.767,578.268 -37.709,470.776 24.35,578.268 "/>
<polygon fill="#818285" points="-99.767,578.268 -37.709,470.776 24.35,578.268 "/>
<polygon fill="#595A5C" points="133.251,617.484 180.556,535.553 227.859,617.484 "/>
<polygon fill="#A8AAAD" points="759.725,458.936 807.027,377.001 854.332,458.936 "/>
<polygon fill="#D2D3D4" points="568.055,183.007 615.359,101.073 662.662,183.007 "/>
<polygon fill="#D2D3D4" points="920.318,996.82 967.623,914.887 1014.924,996.82 "/>
<polygon fill="#A8AAAD" points="369.771,658.451 417.075,576.518 464.374,658.451 "/>
<polygon fill="#595A5C" points="46.354,142.04 93.661,60.106 140.959,142.04 "/>
<polygon fill="#595A5C" points="712.422,844.75 759.729,762.816 807.029,844.75 "/>
<polygon fill="#A8AAAD" points="-142.86,996.822 -95.551,914.889 -48.252,996.822 "/>
<polygon fill="#818285" points="890.693,264.942 938,183.007 985.303,264.942 "/>
<polygon fill="#818285" points="63.131,1124.111 110.437,1042.178 157.739,1124.111 "/>
<polygon fill="#595A5C" points="339.315,501.782 386.624,419.848 433.925,501.782 "/>
<polygon fill="#595A5C" points="400.837,282.56 424.489,241.592 448.14,282.56 "/>
<polygon fill="#231F20" points="275.163,844.75 322.467,762.816 369.771,844.75 "/>
<polygon fill="#595A5C" points="386.622,996.822 433.927,914.889 481.229,996.822 "/>
<polygon fill="#595A5C" points="1430.77,658.471 1478.076,576.537 1525.379,658.471 "/>
<polygon fill="#D2D3D4" points="569.549,417.971 616.854,336.037 664.156,417.971 "/>
<polygon fill="#595A5C" points="914.348,1520.453 937.998,1479.488 961.65,1520.453 "/>
<polygon fill="#A8AAAD" points="774.385,976.336 798.035,935.373 821.688,976.336 "/>
<polygon fill="#231F20" points="1137.707,1034.848 1185.012,952.914 1232.312,1034.848 "/>
<polygon fill="#595A5C" points="1587.68,932.836 1611.332,891.873 1634.982,932.836 "/>
<polygon fill="#595A5C" points="-41.895,444.109 5.413,362.174 52.711,444.109 "/>
<polygon fill="#818285" points="-154.184,792.375 -106.876,710.441 -59.575,792.375 "/>
<polygon fill="#818285" points="813.977,729.182 861.283,647.246 908.582,729.182 "/>
<polygon fill="#A8AAAD" points="941.309,688.211 964.961,647.248 988.611,688.211 "/>
<polygon fill="#A8AAAD" points="941.309,546.754 964.961,505.79 988.611,546.754 "/>
<polygon fill="#A8AAAD" points="837.631,608.201 861.281,567.238 884.932,608.201 "/>
<polygon fill="#818285" points="832.471,37.594 879.777,-44.339 927.076,37.594 "/>
<polygon fill="#818285" points="719.178,264.942 766.484,183.007 813.787,264.942 "/>
<polygon fill="#818285" points="412.97,33.926 460.277,-48.007 507.576,33.926 "/>
<polygon fill="#818285" points="342.015,-190.985 365.667,-231.95 389.317,-190.985 "/>
<polygon fill="#A8AAAD" points="913.658,147.756 960.965,65.822 1008.266,147.756 "/>
<polygon fill="#595A5C" points="1095.164,229.69 1142.471,147.756 1189.771,229.69 "/>
<polygon fill="#D2D3D4" points="930.512,486.13 977.818,404.196 1025.119,486.13 "/>
<polygon fill="#595A5C" points="1292.17,784.289 1315.82,743.326 1339.471,784.289 "/>
</svg>
