<svg width="160" height="160" viewBox="0 0 160 160" fill="none" xmlns="http://www.w3.org/2000/svg">
<g opacity="0.3">
<path d="M72.748 64.8735C74.2607 64.8735 75.778 65.0302 77.2471 65.2925C78.5916 65.5326 79.9824 65.9069 81.3789 66.4136C81.2742 67.3053 81.1237 68.2536 80.8545 69.1958C80.5924 70.1132 80.2929 70.9155 79.9609 71.6362C79.1057 71.3148 78.1767 70.9966 77.2061 70.7192L77.2002 70.7173L76.7363 70.6021C75.6513 70.3566 74.5383 70.2739 73.4414 70.2739C72.0671 70.274 70.9007 70.4911 70.0469 70.979C69.6088 71.2293 69.2569 71.5574 69.0186 71.9829C68.7814 72.4066 68.6748 72.8949 68.6748 73.4399C68.6748 74.3937 68.9773 75.2184 69.6885 75.7163C70.2847 76.1337 71.0894 76.4725 72.1182 76.7974L72.126 76.7993L75.5391 77.813L75.5449 77.814C76.644 78.128 77.6222 78.4902 78.4883 78.9487C79.3581 79.4092 80.055 79.9105 80.6475 80.5522C81.238 81.1919 81.6857 81.934 82.0391 82.8931C82.3847 83.8312 82.542 84.9938 82.542 86.3472C82.5419 87.7579 82.2417 89.0158 81.6875 90.23C81.0759 91.453 80.2682 92.5108 79.1631 93.3647L79.1523 93.3735C78.043 94.2811 76.6645 94.9493 75.041 95.5259C73.4492 96.0384 71.5854 96.3003 69.4951 96.3003C68.5532 96.3003 67.7141 96.2481 66.915 96.1948C66.1395 96.1431 65.4168 96.0393 64.6934 95.8843C63.9514 95.7253 63.2702 95.5678 62.5391 95.3589C61.9516 95.178 61.2876 94.9569 60.5791 94.6987C60.6557 93.7889 60.8476 92.842 61.1211 91.9302L61.123 91.9243C61.3931 90.9791 61.6992 90.08 62.0742 89.2241C63.262 89.6762 64.3705 90.0051 65.4375 90.2476C66.6559 90.5245 67.9214 90.6333 69.2285 90.6333C69.7921 90.6333 70.4597 90.577 71.124 90.4663C71.7839 90.3563 72.4807 90.1864 73.0791 89.8872C73.6453 89.6041 74.187 89.2491 74.6182 88.7563C75.0752 88.234 75.328 87.5819 75.3281 86.7739C75.3281 85.7249 75.0334 84.8454 74.2695 84.2896C73.6241 83.8201 72.7687 83.4256 71.7256 83.0962L71.7139 83.0933L71.7012 83.0894L67.8223 82.0796C65.6392 81.4559 63.9592 80.5309 62.8086 79.3804C61.6582 78.23 61.0889 76.5154 61.0889 74.0806C61.0889 71.18 62.0956 68.9833 64.1494 67.3276C66.222 65.71 69.0347 64.8736 72.748 64.8735ZM111.521 65.2466C112.751 65.2466 114.019 65.3324 115.288 65.5405V94.5151C114.077 94.8965 112.51 95.283 110.621 95.6704C108.577 96.0897 106.424 96.3003 104.162 96.3003C102.162 96.3003 100.216 96.1424 98.3799 95.8276C96.5855 95.52 95.0016 94.8544 93.623 93.8843C92.281 92.9399 91.2125 91.4809 90.4385 89.5718L90.4346 89.562L90.2861 89.1997C89.5677 87.3493 89.1953 84.8805 89.1953 81.813V65.5483C90.4524 65.3725 91.6623 65.2466 92.9082 65.2466C94.1375 65.2466 95.4058 65.3324 96.6748 65.5405V81.4937C96.6748 83.1621 96.7822 84.5433 97.0635 85.6685C97.3389 86.77 97.7386 87.7147 98.3516 88.3892C98.953 89.1041 99.7259 89.5725 100.591 89.8608C101.462 90.1511 102.481 90.2603 103.575 90.2603C105.104 90.2603 106.374 90.0963 107.436 89.8169L107.809 89.7192V65.5552C109.085 65.3752 110.306 65.2466 111.521 65.2466ZM40.0557 64.8198C42.5059 64.8199 44.6187 65.2376 46.4072 66.0552C48.2146 66.8814 49.7003 67.9586 50.9277 69.3901V69.3911C52.1004 70.7677 52.9772 72.4616 53.6016 74.3823H53.6025C54.1751 76.3083 54.4883 78.3939 54.4883 80.6401C54.4883 82.8852 54.1755 84.9171 53.6025 86.8442C53.0341 88.7564 52.16 90.3963 50.9346 91.7749L50.9277 91.7827C49.7505 93.1647 48.2676 94.2894 46.4229 95.0581L46.4121 95.063L46.4023 95.0679C44.6783 95.8792 42.5183 96.2465 40.0557 96.2466C37.6057 96.2466 35.4874 95.8293 33.6924 95.0601C31.8975 94.2908 30.4166 93.1659 29.2959 91.7905L29.2891 91.7827L29.0723 91.52C28.0031 90.1929 27.1945 88.6337 26.6104 86.8325C25.9902 84.9202 25.7285 82.8942 25.7285 80.6401C25.7285 78.3939 26.0417 76.3083 26.6143 74.3823C27.2386 72.4615 28.1164 70.7678 29.2891 69.3911C30.4662 68.0092 31.9525 66.8784 33.7021 66.0542L33.7031 66.0552C35.4918 65.2375 37.6052 64.8198 40.0557 64.8198ZM128.162 87.3804C129.461 87.3804 130.801 87.469 132.141 87.6851C132.327 89.0461 132.462 90.3844 132.462 91.6265C132.462 92.9742 132.371 94.2728 132.155 95.606C130.8 95.7912 129.466 95.9253 128.229 95.9263C126.875 95.8778 125.571 95.7841 124.233 95.6079C124.048 94.2587 123.915 92.9662 123.915 91.6802C123.915 90.3803 124.004 89.0402 124.221 87.6997C125.575 87.5138 126.872 87.3804 128.162 87.3804ZM40.0557 70.4868C37.7189 70.4868 35.9387 71.4124 34.876 73.2427C33.8521 75.0062 33.3682 77.5087 33.3682 80.6401C33.3682 83.7716 33.8521 86.2741 34.876 88.0376V88.0366C35.9426 89.9288 37.7297 90.7935 40.0557 90.7935C42.4427 90.7933 44.2232 89.8699 45.2871 88.0376C46.3111 86.2741 46.7949 83.7718 46.7949 80.6401C46.7949 77.5085 46.3111 75.0062 45.2871 73.2427C44.2232 71.4104 42.4427 70.4869 40.0557 70.4868ZM128.162 53.1401C129.547 53.1401 130.928 53.2276 132.347 53.4399L131.776 81.8589C130.55 82.0384 129.384 82.1665 128.269 82.1665C127.092 82.1665 125.879 82.081 124.705 81.8755L124.085 53.4517C125.472 53.2703 126.842 53.1401 128.162 53.1401Z" stroke="black"/>
<path d="M80 0.5C123.884 0.500001 159.5 36.1161 159.5 80C159.5 123.884 123.884 159.5 80 159.5C36.1161 159.5 0.500001 123.884 0.5 80C0.5 36.1161 36.1161 0.5 80 0.5ZM80 7.5C39.9372 7.5 7.5 39.9372 7.5 80C7.5 120.063 39.9372 152.5 80 152.5C120.063 152.5 152.5 120.063 152.5 80C152.5 39.9372 120.063 7.5 80 7.5Z" stroke="black"/>
</g>
</svg>
