<svg width="160" height="160" viewBox="0 0 160 160" fill="none" xmlns="http://www.w3.org/2000/svg">
<g opacity="0.5">
<path d="M129.804 88.7783C132.849 88.7783 135.27 91.1906 135.27 94.1797C135.27 97.229 132.853 99.6455 129.804 99.6455C126.754 99.6454 124.338 97.229 124.338 94.1797C124.338 91.1907 126.759 88.7784 129.804 88.7783ZM129.804 55.5C131.062 55.5 132.148 55.9698 132.917 56.7852C133.684 57.5981 134.109 58.7262 134.109 59.999V81.4746C134.109 82.7473 133.684 83.8746 132.917 84.6875C132.148 85.5029 131.062 85.9736 129.804 85.9736C128.516 85.9736 127.429 85.5049 126.665 84.6855C125.905 83.8698 125.499 82.7418 125.499 81.4746V59.999C125.499 58.7319 125.905 57.6039 126.665 56.7881C127.429 55.9686 128.516 55.5 129.804 55.5Z" stroke="#6B2E49"/>
<path d="M115.905 65.8835C117.192 65.8835 118.28 66.3512 119.043 67.1608C119.803 67.967 120.211 69.0789 120.211 70.317V84.57C120.211 89.9331 118.553 93.7266 115.819 96.1725C113.096 98.6094 109.375 99.6461 105.361 99.6461C101.317 99.6461 97.5786 98.6103 94.8467 96.1735C92.1045 93.7275 90.4473 89.9331 90.4473 84.57V70.317C90.4474 69.0789 90.8554 67.967 91.6152 67.1608C92.3782 66.3513 93.465 65.8835 94.752 65.8835C97.3071 65.8835 99.0574 67.8063 99.0576 70.317V84.0544C99.0576 86.8673 99.6522 88.7205 100.687 89.8708C101.711 91.0094 103.25 91.5514 105.361 91.5514C107.438 91.5514 108.962 91.0111 109.979 89.8727C111.006 88.722 111.601 86.8673 111.601 84.0544V70.317C111.601 67.8064 113.35 65.8835 115.905 65.8835Z" stroke="#6B2E49"/>
<path d="M74.4004 65.3677C78.1288 65.3677 82.4824 66.3434 85.2012 69.2544H85.2021C85.7783 69.8305 86.355 70.589 86.4814 71.5415C86.6112 72.5197 86.2525 73.5801 85.2188 74.7173L85.2139 74.7231L85.208 74.728C84.1833 75.7869 83.2175 76.2405 82.2617 76.2104C81.3342 76.1812 80.5361 75.6963 79.8438 75.1694C78.6296 74.2748 76.6144 72.8169 73.5625 72.8169C72.5064 72.8169 71.557 72.9904 70.8896 73.3657C70.2547 73.7229 69.8701 74.2593 69.8701 75.0903C69.8701 75.5294 69.9817 75.8742 70.1885 76.1694C70.4007 76.4724 70.7348 76.7537 71.2285 77.021C72.2315 77.564 73.7613 77.9862 75.8672 78.4722L75.874 78.4741C78.7564 79.1787 81.6889 79.9217 83.8896 81.4253C85.0013 82.1849 85.9371 83.1439 86.5918 84.396C87.2462 85.6475 87.6055 87.1655 87.6055 89.021C87.6054 92.6421 86.2556 95.3295 83.8984 97.0952C81.5635 98.8442 78.2987 99.6459 74.5303 99.646C68.3042 99.646 63.6928 97.4849 61.5068 94.8892L61.5049 94.8872C60.6501 93.8614 60.2214 92.8397 60.2695 91.8267C60.3179 90.8116 60.84 89.9081 61.6719 89.1108C62.7223 88.096 63.765 87.748 64.7373 87.8462C65.5653 87.9299 66.2725 88.3312 66.8281 88.7759L67.0566 88.9683L67.0664 88.9761L67.3916 89.2739C68.1615 89.9655 69.0007 90.6285 70.0498 91.1431C71.2435 91.7285 72.7322 92.1323 74.7236 92.1323C76.2287 92.1323 77.3834 91.8792 78.1445 91.4282C78.8752 90.9952 79.2539 90.3783 79.2539 89.5366C79.2539 89.1124 79.1507 88.7876 78.9434 88.5044C78.7278 88.2101 78.3734 87.9256 77.8135 87.6343C76.678 87.0436 74.8668 86.5087 72.1406 85.7622H72.1387C69.4833 85.0264 66.8592 84.2803 64.9111 82.8804C62.9139 81.4451 61.6475 79.3407 61.6475 75.9927C61.6476 72.2582 63.1717 69.5747 65.5625 67.8413C67.9317 66.1237 71.1092 65.3677 74.4004 65.3677Z" stroke="#6B2E49"/>
<path d="M41.2109 65.2601C50.8083 65.2601 57.6787 72.5596 57.6787 82.4535C57.6785 92.2811 50.8094 99.6458 41.2109 99.6458C31.6127 99.6456 24.7443 92.281 24.7441 82.4535C24.7441 72.5598 31.6138 65.2603 41.2109 65.2601ZM41.2109 73.3128C38.6592 73.3129 36.6106 74.3052 35.1943 75.9242C33.7724 77.5497 32.9629 79.8371 32.9629 82.4535C32.963 85.0695 33.7727 87.3398 35.1934 88.9486C36.6085 90.5509 38.6568 91.5286 41.2109 91.5287C43.7653 91.5287 45.8142 90.551 47.2295 88.9486C48.6502 87.3398 49.4599 85.0695 49.46 82.4535C49.46 79.837 48.6496 77.5497 47.2275 75.9242C45.8112 74.3052 43.7628 73.3128 41.2109 73.3128Z" stroke="#6B2E49"/>
<path d="M80 0.5C123.907 0.500001 159.5 36.0934 159.5 80C159.5 123.907 123.907 159.5 80 159.5C36.0934 159.5 0.500001 123.907 0.5 80C0.5 36.0934 36.0934 0.5 80 0.5ZM80 7.5C39.9594 7.5 7.5 39.9594 7.5 80C7.5 120.041 39.9594 152.5 80 152.5C120.041 152.5 152.5 120.041 152.5 80C152.5 39.9594 120.041 7.5 80 7.5Z" stroke="#6B2E49"/>
</g>
</svg>
