<?xml version="1.0" standalone="no"?>
<!DOCTYPE svg PUBLIC "-//W3C//DTD SVG 20010904//EN"
 "http://www.w3.org/TR/2001/REC-SVG-20010904/DTD/svg10.dtd">
<svg version="1.0" xmlns="http://www.w3.org/2000/svg"
 width="2000.000000pt" height="2000.000000pt" viewBox="0 0 2000.000000 2000.000000"
 preserveAspectRatio="xMidYMid meet">
<metadata>
Created by potrace 1.11, written by Peter Selinger 2001-2013
</metadata>
<g transform="translate(0.000000,2000.000000) scale(0.100000,-0.100000)"
fill="#000000" stroke="none">
<path d="M9505 17699 c-1507 -101 -2937 -630 -4133 -1529 -1053 -792 -1898
-1852 -2425 -3045 -348 -789 -547 -1568 -633 -2475 -22 -231 -30 -862 -15
-1104 112 -1742 760 -3321 1902 -4631 244 -280 667 -685 974 -931 1107 -889
2438 -1456 3840 -1633 374 -48 510 -55 985 -55 474 0 595 7 990 55 897 110
1817 404 2640 843 1442 770 2625 2005 3325 3470 403 844 635 1690 731 2661 21
218 30 883 15 1125 -61 970 -282 1865 -677 2736 -776 1715 -2180 3107 -3899
3867 -850 375 -1701 583 -2653 647 -175 11 -788 11 -967 -1z m5987 -4785 c84
-8 156 -19 161 -23 9 -8 -53 -3122 -62 -3133 -3 -4 -71 -14 -151 -24 -164 -18
-470 -15 -622 7 -78 11 -88 15 -88 33 0 104 -60 2962 -64 3028 -4 76 -2 88 12
92 15 4 147 20 242 29 106 11 437 5 572 -9z m-9630 -1244 c244 -18 449 -70
631 -162 452 -227 715 -631 803 -1233 25 -166 25 -524 0 -690 -97 -661 -428
-1099 -974 -1289 -263 -92 -649 -116 -962 -62 -322 57 -632 227 -820 451 -209
248 -330 532 -387 905 -24 162 -24 520 1 685 91 601 361 1013 813 1239 207
104 397 146 733 164 14 1 87 -3 162 -8z m3512 0 c239 -16 450 -55 701 -132
145 -44 134 -31 118 -140 -25 -174 -77 -354 -147 -510 l-25 -57 -78 31 c-110
42 -311 96 -423 113 -127 20 -330 19 -427 -1 -186 -38 -263 -116 -263 -266 1
-178 65 -222 516 -359 319 -96 401 -125 510 -183 196 -104 312 -230 387 -418
53 -131 61 -187 61 -403 0 -175 -3 -210 -22 -280 -25 -89 -94 -241 -144 -313
-60 -87 -190 -212 -289 -278 -312 -208 -680 -290 -1181 -264 -268 14 -447 47
-705 131 -120 39 -122 40 -118 67 2 15 9 65 15 112 20 147 79 352 148 511 l20
46 141 -48 c413 -141 804 -156 1046 -40 154 74 209 148 210 281 0 162 -66 236
-280 313 -39 14 -173 55 -298 91 -272 80 -346 106 -452 159 -170 85 -311 207
-378 327 -102 184 -131 515 -67 765 112 438 544 718 1155 748 33 2 74 4 90 5
17 1 97 -3 179 -8z m2351 -55 c61 -8 111 -15 112 -15 1 0 4 -456 6 -1012 3
-1116 2 -1091 67 -1269 51 -140 121 -225 238 -287 109 -58 164 -67 402 -67
195 0 265 7 353 31 16 5 17 76 17 1305 0 714 1 1299 3 1299 2 0 52 6 113 14
239 31 476 30 717 -5 l77 -11 -2 -1596 -3 -1596 -132 -37 c-173 -50 -433 -105
-605 -130 -445 -62 -1036 -33 -1338 67 -285 95 -496 275 -634 542 -83 162
-122 286 -158 507 -21 126 -22 161 -25 1186 l-4 1056 28 6 c31 6 201 25 278
31 90 7 378 -4 490 -19z m3825 -2375 c41 -7 78 -16 83 -19 15 -14 37 -291 37
-470 0 -149 -23 -456 -35 -469 -1 -1 -54 -9 -116 -16 -188 -23 -373 -29 -539
-17 -142 11 -280 28 -288 35 -1 2 -10 59 -19 127 -21 162 -21 518 0 688 9 68
17 125 19 127 2 2 58 10 123 18 142 18 615 15 735 -4z"/>
<path d="M5561 10945 c-167 -37 -292 -138 -375 -305 -55 -112 -99 -275 -116
-437 -17 -150 -8 -537 14 -658 70 -377 222 -575 487 -631 99 -21 277 -14 370
15 302 95 450 424 450 1001 0 613 -165 943 -509 1015 -84 18 -237 18 -321 0z"/>
</g>
</svg>
