<?xml version="1.0" encoding="UTF-8"?>
<!-- Generator: Adobe Illustrator 22.1.0, SVG Export Plug-In . SVG Version: 6.00 Build 0)  -->
<svg version="1.1" id="レイヤー_1" xmlns="http://www.w3.org/2000/svg" xmlns:xlink="http://www.w3.org/1999/xlink" x="0px" y="0px" viewBox="0 0 344.7 119.5" style="enable-background:new 0 0 344.7 119.5;" xml:space="preserve">
<style type="text/css">
	.st0{fill:#FFFFFF;}
	.st1{fill:#00388B;}
	.st2{fill:#ABCD03;}
	.st3{fill:#E62E8B;}
</style>
<g>
	<g>
		<g>
			<path class="st0" d="M157.5,58c2.8-1.9,4.3-4.9,4.3-8.6v-1.1c0-3.7-1.3-6.6-3.9-8.6l0,0c-2.9-2.2-7.3-3.3-13.4-3.3     c-3.3,0-6.5,0.2-9.1,0.6c-2.2,0.3-3,1.2-3,3.6v38.4c0,2.5,0.8,3.4,3.1,3.6c2.5,0.2,6.1,0.3,9.3,0.3c7.3,0,12.4-1.2,15.6-3.7     c2.8-2.2,4.2-5.5,4.2-9.9v-1C164.5,63.3,162,59.7,157.5,58z M142.3,45.1c0-0.2,0-0.3,0-0.3c0,0,0.1,0,0.1,0     c0.9-0.1,1.8-0.1,3.2-0.1c2.1,0,3.7,0.4,4.6,1.1s1.3,1.8,1.3,3.3v0.8c0,3.5-2.1,5.1-6.7,5.1h-2.6V45.1z M154.3,69.2     c0,1.8-0.6,3.2-1.7,4c-1.3,0.9-3.1,1.3-6.3,1.3c-1.6,0-2.6-0.1-3.5-0.2c-0.3,0-0.4-0.1-0.4-0.1c0,0-0.1-0.1-0.1-0.4V63h4.3     c2.7,0,4.5,0.4,5.8,1.3c1.2,0.9,1.9,2.3,1.9,4.1L154.3,69.2L154.3,69.2z"/>
			<path class="st0" d="M175.8,34.3h-0.3c-3.4,0-5.5,2.1-5.5,5.4v0.4c0,3.7,1.8,5.5,5.5,5.5h0.3c3.3,0,5.5-2.2,5.5-5.5v-0.4     C181.3,36.3,179.3,34.3,175.8,34.3z"/>
			<path class="st0" d="M177.8,47.8h-4.3c-1.6,0-2.6,0.4-2.6,2.4v30.3c0,2,1,2.4,2.6,2.4h4.3c1.6,0,2.6-0.4,2.6-2.4V50.2     C180.4,48.2,179.4,47.8,177.8,47.8z"/>
			<path class="st0" d="M206.4,74.6h-3.4c-1.8,0-2.3-0.2-2.7-0.7c-0.5-0.6-0.6-1.1-0.6-3.6V56h6.1c1.9,0,2.1-1.3,2.1-2.4v-3.4     c0-1.5-0.4-2.5-2.1-2.5h-6.1v-6.2c0-2-1-2.4-2.6-2.4h-4.3c-1.6,0-2.6,0.4-2.6,2.4v6.7l-3.8,0.7c-1.2,0.2-1.7,0.8-1.7,2.1v3     c0,1.4,0.6,2,2,2h3.4v15.7c0,4.2,0.9,7,2.8,8.8c1.8,1.7,4.3,2.4,8.5,2.4h4.9c2,0,2.3-0.8,2.3-2.4v-3.4     C208.7,75.5,208.4,74.6,206.4,74.6z"/>
			<path class="st0" d="M244.1,39.5c-3.4-2-8-3.2-12.6-3.2c-5.5,0-9.5,1.1-12.4,3.4c-4.6,3.7-6.2,8.6-6.2,18.8v2.8     c0,9.4,1.4,14.6,4.7,17.9c2.9,2.9,7,4.2,13.8,4.2c3.9,0,8-0.8,11.5-2.2c2-0.8,2.2-1.7,1.9-3.3l-0.8-3.3c-0.2-0.8-0.5-1.3-1.1-1.6     c-0.4-0.2-1-0.3-1.9,0c-2.6,1.1-5.8,1.8-8.5,1.8c-3.5,0-5.9-0.8-7.2-2.3c-1.6-1.9-2.2-5.3-2.2-12.2v-1.2c0-6.4,0.4-10.4,2.4-12.4     c1.2-1.2,2.6-1.9,6-1.9c2.8,0,5.7,0.8,8.6,2.4c0.7,0.4,1.4,0.5,2,0.3c0.4-0.1,0.8-0.4,1.1-1.1l1.6-4.1     C245.3,41.4,245.5,40.3,244.1,39.5z"/>
			<path class="st0" d="M274.1,49.5c-2.5-1.7-5.3-2.3-10.3-2.3c-3.7,0-8,0.8-10.5,1.7c-1.8,0.5-1.8,1.7-1.5,2.8l0.6,3.3     c0.1,0.5,0.3,1.2,0.9,1.5c0.4,0.3,1,0.3,1.6,0.1c2.6-0.8,5.8-1.3,8.2-1.3c2.4,0,3.5,0.2,4.3,0.8c0.7,0.6,0.9,1.4,0.9,3v1.1     c-1.3-0.1-2.3-0.1-3.2-0.1h-2.5c-4.9,0-8.2,0.9-10.4,2.7c-2.1,1.7-3.1,4.5-3.1,8.5v1.6c0,3.6,1.1,6.4,3.2,8.2     c2,1.7,4.2,2.4,8,2.4h2.5c3.5,0,5.8-0.8,7.4-2.7l0.1,0.3c0.3,1.2,1,1.8,2.3,1.8h3.1c1.3,0,2.1-0.7,2.1-2V59.1     C278,54.2,276.9,51.4,274.1,49.5z M268.5,71.6c0,2.8-1.1,3.9-3.8,3.9h-2.5c-1.5,0-2.2-0.4-2.6-0.7c-0.3-0.3-0.8-0.9-0.8-2.6v-0.8     c0-1.5,0.3-2.4,0.8-2.9c0.5-0.4,1.5-0.7,3.1-0.7h2.4c0.9,0,2,0,3.3,0.1L268.5,71.6L268.5,71.6z"/>
			<path class="st0" d="M300.5,61.3l-4.3-1c-2.3-0.5-3-1.1-3-2.4v-0.5c0-1,0.3-1.4,0.7-1.7c0.6-0.4,1.8-0.6,3.9-0.6     c2.1,0,4.9,0.5,6.5,1.1c0.7,0.2,1.3,0.2,1.7-0.1c0.4-0.3,0.7-0.7,0.8-1.3l0.8-3.9c0.3-1.4,0-2-1.3-2.4c-2-0.7-5.8-1.4-9.4-1.4     c-4.6,0-7.6,0.7-9.7,2.4c-2.2,1.8-3.3,4.3-3.3,8v0.6c0,2.9,0.8,5.2,2.2,6.8c1.5,1.7,3.2,2.6,6.4,3.3l4.1,1     c2.8,0.7,3.5,1.3,3.5,2.9v0.5c0,1.3-0.4,1.8-0.9,2.1c-0.7,0.5-1.9,0.7-4.1,0.7c-2.4,0-5.8-0.9-8-1.7c-0.7-0.3-1.3-0.3-1.8,0     c-0.5,0.3-0.9,0.8-1,1.5l-0.8,3.4c-0.4,1.5,0,2.3,1.5,2.8c3,1.3,7.1,2,10.7,2c4.8,0,8.3-1.1,10.6-3.3c2-1.9,3-4.6,3-7.9v-0.8     c0-2.7-0.5-4.5-1.6-6.1C306.4,63.4,304.1,62.1,300.5,61.3z"/>
			<path class="st0" d="M342.8,52.3c-2.1-3.4-5.5-5.1-10.3-5.1c-3.2,0-5.7,0.6-7.8,1.9V36.7c0-2-1-2.4-2.6-2.4h-4.3     c-1.6,0-2.6,0.4-2.6,2.4v43.7c0,2,1,2.4,2.6,2.4h4.3c1.6,0,2.6-0.4,2.6-2.4v-20c0-2.9,0.6-3.7,1.2-4.3c0.6-0.6,1.5-1.1,4.1-1.1     c1.9,0,3,0.4,3.9,1.3c0.9,0.9,1.2,2.2,1.2,4.9v19.2c0,2,1,2.4,2.6,2.4h4.3c1.6,0,2.6-0.4,2.6-2.4V61.6     C344.7,58.7,344.5,55,342.8,52.3z"/>
		</g>
		<path class="st1" d="M86.1,47.9L86.1,47.9c3-4.8,4.8-10.5,4.8-16.6c0-5.9-1.6-11.3-4.4-16C81.1,6.5,71.7,0.5,60.8,0    c-0.4,0-0.8,0-1.2,0C43.1,0,28.3,6.7,17.5,17.5c-0.1,0.1-0.2,0.2-0.2,0.3C11.3,23.8,6.7,31,3.7,39C1.3,45.5,0,52.4,0,59.7    C0,68.6,1.9,77,5.4,84.5c3,6.5,7.1,12.4,12.1,17.4c9.4,9.4,21.9,15.7,35.9,17.2c1.3,0.1,2.5,0.2,3.8,0.3c0.8,0,1.6,0.1,2.4,0.1    c0.5,0,1,0,1.5,0c3.1-0.1,6-0.6,8.8-1.3c14.1-3.7,25.2-14.9,28.9-29c0.9-3.3,1.3-6.8,1.3-10.3C100.2,66.4,94.7,55.4,86.1,47.9z     M60.4,94.9c-0.3,0-0.6,0-0.9,0c-0.6,0-1.2,0-1.8-0.1c-8.9-0.5-17-4.3-23-10.3c-1.6-1.6-2.9-3.3-4.2-5.1    c-3.8-5.6-6.1-12.4-6.1-19.7c0-1.6,0.2-3.3,0.4-4.8c1.1-7.7,4.6-14.7,9.9-20c5.6-5.6,13-9.3,21.3-10.1c0.6,0,1.1-0.1,1.7-0.2    c0.6,0,1.2,0,1.8,0c3.7,0,6.7,3,6.7,6.7s-3,6.7-6.7,6.7c-4.2,0-7.9,2.1-10.1,5.3c-1.4,2-2.2,4.4-2.2,7c0,6.8,5.5,12.3,12.3,12.3    c0.3,0,0.6,0,0.9,0c8.4,0.5,15.2,7.5,15.2,16.1S68.9,94.4,60.4,94.9z"/>
		<path class="st2" d="M60.4,62.7c-0.3,0-0.6,0-0.9,0c-6.8,0-12.3-5.5-12.3-12.3S52.8,38,59.6,38c-0.5,0-1,0-1.5,0    c-7.2,0.4-13.8,3.5-18.6,8.3c-5.1,5.2-8.3,12.3-8.3,20.1s3.2,14.9,8.3,20.1c4.8,4.8,11.3,7.9,18.6,8.3c0.5,0,1,0,1.5,0    c0.2,0,0.6,0,0.9,0c8.5-0.5,15.2-7.5,15.2-16.1C75.6,70.2,68.9,63.1,60.4,62.7z"/>
		<path class="st3" d="M59.6,94.9c-0.5,0-1,0-1.5,0c-7.2-0.4-13.8-3.5-18.6-8.3c-5.1-5.2-8.3-12.3-8.3-20.1s3.2-14.9,8.3-20.1    c4.8-4.8,11.3-7.9,18.6-8.3c0.5,0,1,0,1.5,0c3.7,0,6.7-3,6.7-6.7c0-3.7-3-6.7-6.7-6.7c-0.6,0-1.2,0-1.8,0c-8.9,0.5-17,4.3-23,10.3    c-6.3,6.4-10.3,15.1-10.3,24.8s3.9,18.4,10.3,24.8c5.9,6,14,9.8,23,10.3C58.4,94.9,59,94.9,59.6,94.9c0.3,0,0.6,0,0.9,0    C60.2,94.9,59.8,94.9,59.6,94.9z"/>
	</g>
</g>
</svg>