<svg width="100" height="100" viewBox="0 0 100 100" fill="none" xmlns="http://www.w3.org/2000/svg">
<g clip-path="url(#clip0)">
<path d="M65.0477 9.30786C70.2494 9.30786 75.0796 12.0945 77.6804 16.6062L92.7282 42.6677C95.329 47.1794 95.329 52.7527 92.7282 57.2643L77.6804 83.3259C75.0796 87.8376 70.2494 90.6242 65.0477 90.6242H34.9522C29.7505 90.6242 24.9203 87.8376 22.3195 83.3259L7.27172 57.2643C4.67088 52.7527 4.67088 47.1794 7.27172 42.6677L22.3195 16.6062C24.9203 12.0945 29.7505 9.30786 34.9522 9.30786H65.0477ZM65.0477 4H34.9522C27.8397 4 21.2579 7.79512 17.7017 13.9522L2.65389 40.0138C-0.902371 46.1709 -0.902371 53.7611 2.65389 59.9183L17.7017 85.9798C21.2579 92.1369 27.8397 95.9321 34.9522 95.9321H65.0477C72.1602 95.9321 78.742 92.1369 82.2982 85.9798L97.346 59.9183C100.902 53.7611 100.902 46.1709 97.346 40.0138L82.2717 13.9522C78.742 7.79512 72.1602 4 65.0477 4Z" fill="white"/>
<path d="M65.1274 76.2399C64.4904 76.2399 63.8535 76.0807 63.2696 75.7887L50 68.8089L36.7303 75.7887C35.3768 76.5053 33.7579 76.3726 32.5371 75.4968C31.3163 74.5945 30.7059 73.0817 30.9713 71.5955L33.8906 54.8758C34.2622 52.6996 36.3323 51.2664 38.5085 51.638C40.6847 52.0095 42.1178 54.0796 41.7463 56.2558L40.2335 64.9872L48.1953 60.794C49.363 60.1836 50.7431 60.1836 51.9108 60.794L59.8726 64.9872L58.3599 56.2558C58.121 54.9554 58.5722 53.655 59.501 52.7261L65.9235 46.4363L56.9533 45.1624C55.6263 44.9766 54.5117 44.1539 53.9278 42.9596L50.0796 34.9979L46.2314 42.9596C45.6475 44.1539 44.5064 44.9766 43.2059 45.1624L26.2208 47.5509C24.0446 47.8694 22.0276 46.3301 21.7357 44.1539C21.4172 41.9777 22.9565 39.9607 25.1327 39.6688L40.0212 37.5722L46.5233 24.0902C47.1868 22.7102 48.5934 21.8344 50.1061 21.8344C51.6189 21.8344 53.0255 22.7102 53.6889 24.0902L60.1911 37.5722L75.0796 39.6688C76.5923 39.8811 77.8397 40.9161 78.3174 42.3758C78.7951 43.8354 78.397 45.4013 77.3089 46.4628L66.587 56.9458L69.1348 71.5955C69.4002 73.0817 68.7898 74.5945 67.569 75.4968C66.7728 75.9745 65.9501 76.2399 65.1274 76.2399Z" fill="white"/>
</g>
<defs>
<clipPath id="clip0">
<rect width="100" height="91.9321" fill="white" transform="translate(0 4)"/>
</clipPath>
</defs>
</svg>
