<svg width="100" height="92" viewBox="0 0 100 92" fill="none" xmlns="http://www.w3.org/2000/svg">
<g clip-path="url(#clip0)">
<path d="M65.0477 5.30786C70.2494 5.30786 75.0796 8.09448 77.6804 12.6062L92.7282 38.6677C95.329 43.1794 95.329 48.7527 92.7282 53.2643L77.6804 79.3259C75.0796 83.8376 70.2494 86.6242 65.0477 86.6242H34.9522C29.7505 86.6242 24.9203 83.8376 22.3195 79.3259L7.27172 53.2643C4.67088 48.7527 4.67088 43.1794 7.27172 38.6677L22.3195 12.6062C24.9203 8.09448 29.7505 5.30786 34.9522 5.30786H65.0477ZM65.0477 0H34.9522C27.8397 0 21.2579 3.79512 17.7017 9.95223L2.65389 36.0138C-0.902371 42.1709 -0.902371 49.7611 2.65389 55.9183L17.7017 81.9798C21.2579 88.1369 27.8397 91.9321 34.9522 91.9321H65.0477C72.1602 91.9321 78.742 88.1369 82.2982 81.9798L97.346 55.9183C100.902 49.7611 100.902 42.1709 97.346 36.0138L82.2717 9.95223C78.742 3.79512 72.1602 0 65.0477 0Z" fill="white"/>
<path d="M65.1274 72.2399C64.4904 72.2399 63.8535 72.0807 63.2696 71.7887L50 64.8089L36.7303 71.7887C35.3768 72.5053 33.7579 72.3726 32.5371 71.4968C31.3163 70.5945 30.7059 69.0817 30.9713 67.5955L33.8906 50.8758C34.2622 48.6996 36.3323 47.2664 38.5085 47.638C40.6847 48.0095 42.1178 50.0796 41.7463 52.2558L40.2335 60.9872L48.1953 56.794C49.363 56.1836 50.7431 56.1836 51.9108 56.794L59.8726 60.9872L58.3599 52.2558C58.121 50.9554 58.5722 49.655 59.501 48.7261L65.9235 42.4363L56.9533 41.1624C55.6263 40.9766 54.5117 40.1539 53.9278 38.9596L50.0796 30.9979L46.2314 38.9596C45.6475 40.1539 44.5064 40.9766 43.2059 41.1624L26.2208 43.5509C24.0446 43.8694 22.0276 42.3301 21.7357 40.1539C21.4172 37.9777 22.9565 35.9607 25.1327 35.6688L40.0212 33.5722L46.5233 20.0902C47.1868 18.7102 48.5934 17.8344 50.1061 17.8344C51.6189 17.8344 53.0255 18.7102 53.6889 20.0902L60.1911 33.5722L75.0796 35.6688C76.5923 35.8811 77.8397 36.9161 78.3174 38.3758C78.7951 39.8354 78.397 41.4013 77.3089 42.4628L66.587 52.9458L69.1348 67.5955C69.4002 69.0817 68.7898 70.5945 67.569 71.4968C66.7728 71.9745 65.9501 72.2399 65.1274 72.2399Z" fill="white"/>
</g>
<defs>
<clipPath id="clip0">
<rect width="100" height="91.9321" fill="white"/>
</clipPath>
</defs>
</svg>
