<svg width="100" height="92" viewBox="0 0 100 92" fill="none" xmlns="http://www.w3.org/2000/svg">
<g clip-path="url(#clip0)">
<path d="M65.0477 5.30786C70.2494 5.30786 75.0796 8.09448 77.6804 12.6062L92.7282 38.6677C95.329 43.1794 95.329 48.7527 92.7282 53.2643L77.6804 79.3259C75.0796 83.8376 70.2494 86.6242 65.0477 86.6242H34.9522C29.7505 86.6242 24.9203 83.8376 22.3195 79.3259L7.27172 53.2643C4.67088 48.7527 4.67088 43.1794 7.27172 38.6677L22.3195 12.6062C24.9203 8.09448 29.7505 5.30786 34.9522 5.30786H65.0477ZM65.0477 0H34.9522C27.8397 0 21.2579 3.79512 17.7017 9.95223L2.65389 36.0138C-0.902371 42.1709 -0.902371 49.7611 2.65389 55.9183L17.7017 81.9798C21.2579 88.1369 27.8397 91.9321 34.9522 91.9321H65.0477C72.1602 91.9321 78.742 88.1369 82.2982 81.9798L97.346 55.9183C100.902 49.7611 100.902 42.1709 97.346 36.0138L82.2717 9.95223C78.742 3.79512 72.1602 0 65.0477 0Z" fill="white"/>
<path d="M45.8333 45.0106C45.4883 45.0106 45.1433 44.9575 44.8248 44.8248L25.3715 36.863C24.3365 36.4384 23.673 35.3768 23.7261 34.2622C23.7792 33.121 24.5488 32.1656 25.6369 31.8471L53.6093 23.8853C54.1932 23.7261 54.7771 23.7526 55.3344 23.9915L74.7877 31.9533C75.8227 32.3779 76.4862 33.4395 76.4331 34.5541C76.38 35.6953 75.6104 36.6507 74.5223 36.9692L46.5764 44.931C46.3376 44.9841 46.0987 45.0106 45.8333 45.0106ZM34.5011 34.8461L46.0191 39.5435L65.6847 33.9437L54.1667 29.2463L34.5011 34.8461Z" fill="white"/>
<path d="M45.8333 70.1698C45.4883 70.1698 45.1433 70.1168 44.8248 69.9841L25.3715 62.0223C24.3365 61.5977 23.673 60.5361 23.7261 59.4214C23.7792 58.2802 24.5488 57.3248 25.6369 57.0064L53.5828 49.0446C54.1667 48.8853 54.7505 48.9119 55.3079 49.1507L74.7612 57.1125C75.7962 57.5372 76.4597 58.5987 76.4066 59.7134C76.3535 60.8546 75.5839 61.81 74.4958 62.1284L46.5499 70.0902C46.3376 70.1433 46.0987 70.1698 45.8333 70.1698ZM34.5011 60.0053L46.0191 64.7028L65.6847 59.103L54.1667 54.4055L34.5011 60.0053Z" fill="white"/>
<path d="M26.4597 62.1285C25 62.1285 23.8057 60.9342 23.8057 59.4745V34.3153C23.8057 32.8556 25 31.6614 26.4597 31.6614C27.9193 31.6614 29.1136 32.8556 29.1136 34.3153V59.4745C29.1136 60.9342 27.9193 62.1285 26.4597 62.1285Z" fill="white"/>
<path d="M45.9395 70.1433C44.4799 70.1433 43.2856 68.949 43.2856 67.4894V42.3301C43.2856 40.8705 44.4799 39.6762 45.9395 39.6762C47.3992 39.6762 48.5934 40.8705 48.5934 42.3301V67.4894C48.5934 68.949 47.3992 70.1433 45.9395 70.1433Z" fill="white"/>
<path d="M54.4055 53.7421C52.9459 53.7421 51.7516 52.5478 51.7516 51.0881V26.4862C51.7516 25.0265 52.9459 23.8323 54.4055 23.8323C55.8652 23.8323 57.0594 25.0265 57.0594 26.4862V51.0881C57.0594 52.5478 55.8652 53.7421 54.4055 53.7421Z" fill="white"/>
<path d="M73.8854 62.1285C72.4257 62.1285 71.2314 60.9342 71.2314 59.4745V34.8726C71.2314 33.413 72.4257 32.2187 73.8854 32.2187C75.345 32.2187 76.5393 33.413 76.5393 34.8726V59.4745C76.5393 60.9342 75.345 62.1285 73.8854 62.1285Z" fill="white"/>
</g>
<defs>
<clipPath id="clip0">
<rect width="100" height="91.9321" fill="white"/>
</clipPath>
</defs>
</svg>
