<svg id="Layer_1" data-name="Layer 1" xmlns="http://www.w3.org/2000/svg" viewBox="0 0 500 500"><defs><style>.cls-1{fill:#fff;}</style></defs><title>Artboard 1 copy 39</title><path class="cls-1" d="M306.7,96.79a55.15,55.15,0,0,1,47.63,27.5L411,222.5a55.17,55.17,0,0,1,0,55l-56.7,98.21a55.15,55.15,0,0,1-47.63,27.5H193.3a55.15,55.15,0,0,1-47.63-27.5L89,277.5a55.17,55.17,0,0,1,0-55l56.7-98.21a55.15,55.15,0,0,1,47.63-27.5H306.7m0-20H193.3a75,75,0,0,0-65,37.5L71.65,212.5a75,75,0,0,0,0,75l56.7,98.21a75,75,0,0,0,65,37.5H306.7a75,75,0,0,0,64.95-37.5l56.7-98.21a75,75,0,0,0,0-75l-56.7-98.21a75,75,0,0,0-64.95-37.5Z"/><path class="cls-1" d="M340,265H314a15,15,0,0,1,0-30h26a15,15,0,0,1,0,30Z"/><path class="cls-1" d="M250,355a15,15,0,0,1-15-15V314a15,15,0,0,1,30,0v26A15,15,0,0,1,250,355Z"/><path class="cls-1" d="M313.64,328.64A15,15,0,0,1,303,324.25l-18.64-18.64a15,15,0,0,1,21.22-21.22L324.25,303a15,15,0,0,1-10.61,25.61Z"/><path class="cls-1" d="M186.36,328.64A15,15,0,0,1,175.75,303l18.64-18.64a15,15,0,0,1,21.22,21.22L197,324.25A15,15,0,0,1,186.36,328.64Z"/><path class="cls-1" d="M295,220a15,15,0,0,1-10.61-25.61L303,175.75A15,15,0,0,1,324.25,197l-18.64,18.64A15,15,0,0,1,295,220Z"/><path class="cls-1" d="M250,201a15,15,0,0,1-15-15V160a15,15,0,0,1,30,0v26A15,15,0,0,1,250,201Z"/><path class="cls-1" d="M186,265H160a15,15,0,0,1,0-30h26a15,15,0,0,1,0,30Z"/><path class="cls-1" d="M205,220a15,15,0,0,1-10.61-4.39L175.75,197A15,15,0,0,1,197,175.75l18.64,18.64A15,15,0,0,1,205,220Z"/></svg>