<svg id="Layer_1" data-name="Layer 1" xmlns="http://www.w3.org/2000/svg" viewBox="0 0 500 500"><defs><style>.cls-1{fill:#fff;}</style></defs><title>messages</title><path class="cls-1" d="M306.7,96.79a55.15,55.15,0,0,1,47.63,27.5L411,222.5a55.17,55.17,0,0,1,0,55l-56.7,98.21a55.15,55.15,0,0,1-47.63,27.5H193.3a55.15,55.15,0,0,1-47.63-27.5L89,277.5a55.17,55.17,0,0,1,0-55l56.7-98.21a55.15,55.15,0,0,1,47.63-27.5H306.7m0-20H193.3a75,75,0,0,0-65,37.5L71.65,212.5a75,75,0,0,0,0,75l56.7,98.21a75,75,0,0,0,65,37.5H306.7a75,75,0,0,0,64.95-37.5l56.7-98.21a75,75,0,0,0,0-75l-56.7-98.21a75,75,0,0,0-64.95-37.5Z"/><path class="cls-1" d="M235,352.23a15,15,0,0,1-11.67-24.42l29-36a45.72,45.72,0,0,1,35.78-17.13h20.24a6.56,6.56,0,0,0,6.54-6.57l-.23-55.81a6.55,6.55,0,0,0-6.54-6.52H191.86a6.57,6.57,0,0,0-6.55,6.52l-.22,55.55a6.54,6.54,0,0,0,1.93,4.67,6.75,6.75,0,0,0,4.69,1.9l15.11-.18H207a15,15,0,0,1,.18,30l-15.11.19a36.54,36.54,0,0,1-37-36.69l.22-55.55a36.63,36.63,0,0,1,36.55-36.4H308.14a36.61,36.61,0,0,1,36.54,36.4l.23,55.81a36.55,36.55,0,0,1-36.54,36.69H288.13a15.85,15.85,0,0,0-12.41,5.95l-29,36A15,15,0,0,1,235,352.23Z"/></svg>