<svg width="100" height="92" viewBox="0 0 100 92" fill="none" xmlns="http://www.w3.org/2000/svg">
<g clip-path="url(#clip0)">
<path d="M65.0478 5.30786C70.2495 5.30786 75.0796 8.09448 77.6804 12.6062L92.7282 38.6677C95.3291 43.1794 95.3291 48.7527 92.7282 53.2643L77.6804 79.3259C75.0796 83.8376 70.2495 86.6242 65.0478 86.6242H34.9522C29.7505 86.6242 24.9204 83.8376 22.3195 79.3259L7.27175 53.2643C4.67091 48.7527 4.67091 43.1794 7.27175 38.6677L22.3195 12.6062C24.9204 8.09448 29.7505 5.30786 34.9522 5.30786H65.0478ZM65.0478 0H34.9522C27.8397 0 21.258 3.79512 17.7017 9.95223L2.65392 36.0138C-0.902341 42.1709 -0.902341 49.7611 2.65392 55.9183L17.7017 81.9798C21.258 88.1369 27.8397 91.9321 34.9522 91.9321H65.0478C72.1603 91.9321 78.742 88.1369 82.2983 81.9798L97.346 55.9183C100.902 49.7611 100.902 42.1709 97.346 36.0138L82.2717 9.95223C78.742 3.79512 72.1603 0 65.0478 0Z" fill="white"/>
<path d="M50 72.7707C47.7972 72.7707 46.0191 70.9925 46.0191 68.7898V49.9469C46.0191 47.7441 47.7972 45.966 50 45.966C52.2028 45.966 53.9809 47.7441 53.9809 49.9469V68.7898C53.9809 70.9925 52.2028 72.7707 50 72.7707Z" fill="white"/>
<path d="M36.7304 67.9936C34.5276 67.9936 32.7495 66.2155 32.7495 64.0127V57.1125C32.7495 54.9098 34.5276 53.1316 36.7304 53.1316C38.9331 53.1316 40.7113 54.9098 40.7113 57.1125V64.0127C40.7113 66.2155 38.9331 67.9936 36.7304 67.9936Z" fill="white"/>
<path d="M36.7304 47.8238C36.5977 47.8238 36.465 47.8238 36.3323 47.7973C36.1996 47.7973 36.0669 47.7707 35.9342 47.7442C35.8015 47.7176 35.6688 47.6911 35.5626 47.638C35.4299 47.5849 35.3238 47.5584 35.1911 47.5053C35.0849 47.4522 34.9522 47.3992 34.8461 47.3461C34.7399 47.293 34.6072 47.2134 34.5011 47.1338C34.3949 47.0542 34.2887 46.9745 34.1826 46.8949C34.0764 46.8153 33.9703 46.7091 33.8906 46.6295C33.811 46.5234 33.7049 46.4438 33.6253 46.3376C33.5456 46.2314 33.466 46.1253 33.3864 46.0191C33.3068 45.913 33.2537 45.8068 33.1741 45.6741C33.121 45.568 33.0679 45.4353 33.0149 45.3291C32.9618 45.223 32.9087 45.0903 32.8822 44.9576C32.8556 44.8249 32.8025 44.6922 32.776 44.586C32.7495 44.4533 32.7229 44.3206 32.7229 44.2145C32.6964 44.0818 32.6964 43.9491 32.6964 43.8164C32.6964 43.6837 32.6964 43.551 32.7229 43.4183C32.7229 43.2856 32.7495 43.1529 32.776 43.0202C32.8025 42.8875 32.8291 42.7548 32.8822 42.6486C32.9087 42.5159 32.9618 42.4098 33.0149 42.2771C33.0679 42.1709 33.121 42.0382 33.1741 41.9321C33.2272 41.8259 33.3068 41.6932 33.3864 41.5871C33.466 41.4809 33.5456 41.3748 33.6253 41.2686C33.7049 41.1624 33.7845 41.0563 33.8906 40.9767C33.9968 40.897 34.0764 40.7909 34.1826 40.7113C34.2887 40.6317 34.3949 40.552 34.5011 40.4724C34.6072 40.3928 34.7134 40.3397 34.8461 40.2601C34.9522 40.207 35.0849 40.1539 35.1911 40.1009C35.3238 40.0478 35.4299 39.9947 35.5626 39.9682C35.6953 39.9416 35.828 39.8886 35.9342 39.862C36.0669 39.8355 36.1996 39.8089 36.3323 39.8089C36.5977 39.7824 36.8631 39.7824 37.1019 39.8089C37.2346 39.8089 37.3673 39.8355 37.5 39.862C37.6327 39.8886 37.7654 39.9151 37.8715 39.9682C38.0042 39.9947 38.1104 40.0478 38.2431 40.1009C38.3758 40.1539 38.4819 40.207 38.5881 40.2601C38.6943 40.3132 38.827 40.3928 38.9331 40.4724C39.0393 40.552 39.1454 40.6317 39.2516 40.7113C39.3577 40.7909 39.4639 40.8705 39.5435 40.9767C39.6231 41.0828 39.7293 41.1624 39.8089 41.2686C39.8885 41.3748 39.9681 41.4809 40.0478 41.5871C40.1274 41.6932 40.1805 41.7994 40.2601 41.9321C40.3132 42.0382 40.3662 42.1709 40.4193 42.2771C40.4724 42.4098 40.4989 42.5159 40.552 42.6486C40.5786 42.7813 40.6316 42.914 40.6582 43.0202C40.6847 43.1529 40.7112 43.2856 40.7112 43.4183C40.7378 43.551 40.7378 43.6837 40.7378 43.8164C40.7378 43.9491 40.7378 44.0818 40.7112 44.2145C40.7112 44.3472 40.6847 44.4799 40.6582 44.586C40.6316 44.7187 40.6051 44.8514 40.552 44.9576C40.4989 45.0903 40.4724 45.1964 40.4193 45.3291C40.3662 45.4618 40.3132 45.568 40.2601 45.6741C40.207 45.7803 40.1274 45.913 40.0478 46.0191C39.9681 46.1253 39.8885 46.2314 39.8089 46.3376C39.7293 46.4438 39.6231 46.5499 39.5435 46.6295C39.4374 46.7091 39.3577 46.8153 39.2516 46.8949C39.1454 46.9745 39.0393 47.0542 38.9331 47.1338C38.827 47.2134 38.7208 47.2665 38.5881 47.3461C38.4819 47.3992 38.3493 47.4522 38.2431 47.5053C38.1369 47.5584 38.0042 47.5849 37.8715 47.638C37.7388 47.6646 37.6327 47.7176 37.5 47.7442C37.3673 47.7707 37.2346 47.7973 37.1019 47.7973C36.9957 47.8238 36.863 47.8238 36.7304 47.8238Z" fill="white"/>
<path d="M63.2696 67.9936C61.0669 67.9936 59.2887 66.2155 59.2887 64.0127V57.1125C59.2887 54.9098 61.0669 53.1316 63.2696 53.1316C65.4724 53.1316 67.2505 54.9098 67.2505 57.1125V64.0127C67.2505 66.2155 65.4724 67.9936 63.2696 67.9936Z" fill="white"/>
<path d="M63.2696 47.8238C63.1369 47.8238 63.0043 47.8238 62.8716 47.7973C62.7389 47.7973 62.6062 47.7707 62.4735 47.7442C62.3408 47.7176 62.2081 47.6911 62.1019 47.638C61.9692 47.5849 61.8631 47.5584 61.7304 47.5053C61.6242 47.4522 61.4915 47.3992 61.3854 47.3461C61.2792 47.293 61.1465 47.2134 61.0403 47.1338C60.9342 47.0542 60.828 46.9745 60.7219 46.8949C60.6157 46.8153 60.5096 46.7091 60.4299 46.6295C60.3503 46.5234 60.2442 46.4438 60.1645 46.3376C60.0849 46.2314 60.0053 46.1253 59.9257 46.0191C59.8461 45.913 59.793 45.8068 59.7134 45.6741C59.6603 45.568 59.6072 45.4353 59.5541 45.3291C59.5011 45.223 59.448 45.0903 59.4214 44.9576C59.3949 44.8249 59.3418 44.6922 59.3153 44.586C59.2888 44.4533 59.2622 44.3206 59.2622 44.2145C59.2622 44.0818 59.2357 43.9491 59.2357 43.8164C59.2357 43.6837 59.2357 43.551 59.2622 43.4183C59.2622 43.2856 59.2888 43.1529 59.3153 43.0202C59.3418 42.8875 59.3684 42.7548 59.4214 42.6486C59.448 42.5159 59.5011 42.4098 59.5541 42.2771C59.6072 42.1709 59.6603 42.0382 59.7134 41.9321C59.7665 41.8259 59.8461 41.6932 59.9257 41.5871C60.0053 41.4809 60.0849 41.3748 60.1645 41.2686C60.2442 41.1624 60.3238 41.0563 60.4299 40.9767C60.5361 40.897 60.6157 40.7909 60.7219 40.7113C60.828 40.6317 60.9342 40.552 61.0403 40.4724C61.1465 40.3928 61.2527 40.3397 61.3854 40.2601C61.4915 40.207 61.6242 40.1539 61.7304 40.1009C61.8631 40.0478 61.9692 39.9947 62.1019 39.9682C62.2346 39.9416 62.3673 39.8886 62.4735 39.862C62.6062 39.8355 62.7389 39.8089 62.8716 39.8089C63.1369 39.7824 63.4023 39.7824 63.6677 39.8089C63.8004 39.8089 63.9331 39.8355 64.0393 39.862C64.172 39.8886 64.3047 39.9151 64.4108 39.9682C64.5435 39.9947 64.6497 40.0478 64.7824 40.1009C64.9151 40.1539 65.0212 40.207 65.1274 40.2601C65.2336 40.3132 65.3663 40.3928 65.4724 40.4724C65.5786 40.552 65.6847 40.6317 65.7909 40.7113C65.897 40.7909 66.0032 40.8705 66.0828 40.9767C66.1624 41.0828 66.2686 41.1624 66.3482 41.2686C66.4278 41.3748 66.5074 41.4809 66.5871 41.5871C66.6667 41.6932 66.7198 41.7994 66.7994 41.9321C66.8525 42.0382 66.9055 42.1709 66.9586 42.2771C67.0117 42.4098 67.0382 42.5159 67.0913 42.6486C67.1178 42.7813 67.1709 42.914 67.1975 43.0202C67.224 43.1529 67.2505 43.2856 67.2505 43.4183C67.2771 43.551 67.2771 43.6837 67.2771 43.8164C67.2771 43.9491 67.2771 44.0818 67.2505 44.2145C67.2505 44.3472 67.224 44.4799 67.1975 44.586C67.1709 44.7187 67.1444 44.8514 67.0913 44.9576C67.0382 45.0903 67.0117 45.1964 66.9586 45.3291C66.9055 45.4618 66.8525 45.568 66.7994 45.6741C66.7463 45.7803 66.6667 45.913 66.5871 46.0191C66.5074 46.1253 66.4278 46.2314 66.3482 46.3376C66.2686 46.4438 66.1624 46.5499 66.0828 46.6295C65.9767 46.7091 65.897 46.8153 65.7909 46.8949C65.6847 46.9745 65.5786 47.0542 65.4724 47.1338C65.3663 47.2134 65.2601 47.2665 65.1274 47.3461C65.0212 47.3992 64.8885 47.4522 64.7824 47.5053C64.6762 47.5584 64.5435 47.5849 64.4108 47.638C64.2781 47.6646 64.172 47.7176 64.0393 47.7442C63.9066 47.7707 63.7739 47.7973 63.6677 47.7973C63.535 47.8238 63.4023 47.8238 63.2696 47.8238Z" fill="white"/>
<path d="M50 40.7909C44.1348 40.7909 39.3843 36.0403 39.3843 30.1752C39.3843 24.31 44.1348 19.5594 50 19.5594C55.8652 19.5594 60.6157 24.31 60.6157 30.1752C60.6157 36.0403 55.8652 40.7909 50 40.7909ZM50 27.5212C48.5403 27.5212 47.3461 28.7155 47.3461 30.1752C47.3461 31.6348 48.5403 32.8291 50 32.8291C51.4597 32.8291 52.6539 31.6348 52.6539 30.1752C52.6539 28.7155 51.4597 27.5212 50 27.5212Z" fill="white"/>
</g>
<defs>
<clipPath id="clip0">
<rect width="100" height="91.9321" fill="white"/>
</clipPath>
</defs>
</svg>
