<svg width="100" height="100" viewBox="0 0 100 100" fill="none" xmlns="http://www.w3.org/2000/svg">
<g clip-path="url(#clip0)">
<path d="M65.0478 9.30786C70.2495 9.30786 75.0796 12.0945 77.6804 16.6062L92.7282 42.6677C95.3291 47.1794 95.3291 52.7527 92.7282 57.2643L77.6804 83.3259C75.0796 87.8376 70.2495 90.6242 65.0478 90.6242H34.9522C29.7505 90.6242 24.9204 87.8376 22.3195 83.3259L7.27175 57.2643C4.67091 52.7527 4.67091 47.1794 7.27175 42.6677L22.3195 16.6062C24.9204 12.0945 29.7505 9.30786 34.9522 9.30786H65.0478ZM65.0478 4H34.9522C27.8397 4 21.258 7.79512 17.7017 13.9522L2.65392 40.0138C-0.902341 46.1709 -0.902341 53.7611 2.65392 59.9183L17.7017 85.9798C21.258 92.1369 27.8397 95.9321 34.9522 95.9321H65.0478C72.1603 95.9321 78.742 92.1369 82.2983 85.9798L97.346 59.9183C100.902 53.7611 100.902 46.1709 97.346 40.0138L82.2717 13.9522C78.742 7.79512 72.1603 4 65.0478 4Z" fill="white"/>
<path d="M50 36.2983C52.1986 36.2983 53.9809 34.516 53.9809 32.3174C53.9809 30.1188 52.1986 28.3365 50 28.3365C47.8014 28.3365 46.0191 30.1188 46.0191 32.3174C46.0191 34.516 47.8014 36.2983 50 36.2983Z" fill="white"/>
<path d="M68.8429 68.9416C71.0415 68.9416 72.8238 67.1593 72.8238 64.9607C72.8238 62.7621 71.0415 60.9798 68.8429 60.9798C66.6443 60.9798 64.862 62.7621 64.862 64.9607C64.862 67.1593 66.6443 68.9416 68.8429 68.9416Z" fill="white"/>
<path d="M31.1571 68.9416C33.3557 68.9416 35.138 67.1593 35.138 64.9607C35.138 62.7621 33.3557 60.9798 31.1571 60.9798C28.9585 60.9798 27.1762 62.7621 27.1762 64.9607C27.1762 67.1593 28.9585 68.9416 31.1571 68.9416Z" fill="white"/>
<path d="M64.172 61.7229C62.792 61.7229 61.465 61.0064 60.7219 59.7325L53.8747 47.896C52.7866 45.9851 53.4236 43.5701 55.3344 42.4554C57.2452 41.3673 59.6603 42.0042 60.775 43.9151L67.5956 55.7516C68.6837 57.6624 68.0467 60.0775 66.1359 61.1921C65.5255 61.5371 64.8355 61.7229 64.172 61.7229Z" fill="white"/>
<path d="M38.8535 55.9374C38.19 55.9374 37.5 55.7781 36.8896 55.4066C34.9787 54.3185 34.3153 51.8769 35.4034 49.966L42.2505 37.9968C43.3386 36.086 45.7802 35.4225 47.6911 36.5106C49.6019 37.5987 50.2654 40.0403 49.1773 41.9512L42.3301 53.9204C41.587 55.2208 40.2335 55.9374 38.8535 55.9374Z" fill="white"/>
<path d="M53.7155 68.9416H39.915C37.7123 68.9416 35.9341 67.1635 35.9341 64.9607C35.9341 62.758 37.7123 60.9798 39.915 60.9798H53.7155C55.9182 60.9798 57.6964 62.758 57.6964 64.9607C57.6964 67.1635 55.9182 68.9416 53.7155 68.9416Z" fill="white"/>
</g>
<defs>
<clipPath id="clip0">
<rect width="100" height="91.9321" fill="white" transform="translate(0 4)"/>
</clipPath>
</defs>
</svg>
