<svg width="100" height="92" viewBox="0 0 100 92" fill="none" xmlns="http://www.w3.org/2000/svg">
<g clip-path="url(#clip0)">
<path d="M65.0482 5.31178C70.2499 5.31178 75.08 8.10046 77.6809 12.6155L92.7287 38.6963C95.3295 43.2113 95.3295 48.7887 92.7287 53.3037L77.6809 79.3845C75.08 83.8995 70.2499 86.6882 65.0482 86.6882H34.9526C29.7509 86.6882 24.9208 83.8995 22.3199 79.3845L7.27217 53.3037C4.67132 48.7887 4.67132 43.2113 7.27217 38.6963L22.3199 12.6155C24.9208 8.10046 29.7509 5.31178 34.9526 5.31178H65.0482ZM65.0482 0H34.9526C27.8401 0 21.2584 3.79792 17.7021 9.95958L2.65433 36.0404C-0.901929 42.2021 -0.901929 49.7979 2.65433 55.9596L17.7021 82.0404C21.2584 88.2021 27.8401 92 34.9526 92H65.0482C72.1607 92 78.7425 88.2021 82.2987 82.0404L97.3465 55.9596C100.903 49.7979 100.903 42.2021 97.3465 36.0404L82.2722 9.95958C78.7424 3.79792 72.1607 0 65.0482 0Z" fill="white"/>
<path d="M50 44.3799C44.1348 44.3799 39.3843 39.6259 39.3843 33.7563C39.3843 27.8868 44.1348 23.1328 50 23.1328C55.8652 23.1328 60.6157 27.8868 60.6157 33.7563C60.6157 39.6259 55.8652 44.3799 50 44.3799ZM50 31.1005C48.5403 31.1005 47.3461 32.2956 47.3461 33.7563C47.3461 35.2171 48.5403 36.4122 50 36.4122C51.4596 36.4122 52.6539 35.2171 52.6539 33.7563C52.6539 32.2956 51.4596 31.1005 50 31.1005Z" fill="white"/>
<path d="M38.7208 68.8672C37.7123 68.8672 36.6773 68.4688 35.9076 67.6986L24.7611 56.5439C23.1953 54.9769 23.1953 52.4538 24.7611 50.9134C26.327 49.3464 28.8482 49.3464 30.3875 50.9134L38.7208 59.2529L47.0807 50.8868C48.6465 49.3198 51.1677 49.3198 52.707 50.8868L61.0138 59.1997L69.4267 50.7806C70.9925 49.2136 73.5138 49.2136 75.053 50.7806C76.6189 52.3476 76.6189 54.8706 75.053 56.4111L63.8004 67.672C62.2346 69.239 59.7134 69.239 58.1741 67.672L49.8673 59.3591L41.5074 67.7251C40.7643 68.4688 39.7558 68.8672 38.7208 68.8672Z" fill="white"/>
</g>
<defs>
<clipPath id="clip0">
<rect width="100" height="92" fill="white"/>
</clipPath>
</defs>
</svg>
