<svg width="100" height="100" viewBox="0 0 100 100" fill="none" xmlns="http://www.w3.org/2000/svg">
<g clip-path="url(#clip0)">
<path d="M65.0474 9.31178C70.2491 9.31178 75.0792 12.1005 77.6801 16.6155L92.7278 42.6963C95.3287 47.2113 95.3287 52.7887 92.7278 57.3037L77.6801 83.3845C75.0792 87.8995 70.2491 90.6882 65.0474 90.6882H34.9518C29.7501 90.6882 24.92 87.8995 22.3191 83.3845L7.27133 57.3037C4.67048 52.7887 4.67048 47.2113 7.27133 42.6963L22.3191 16.6155C24.92 12.1005 29.7501 9.31178 34.9518 9.31178H65.0474V9.31178ZM65.0474 4H34.9518C27.8393 4 21.2575 7.79792 17.7013 13.9596L2.6535 40.0404C-0.902768 46.2021 -0.902768 53.7979 2.6535 59.9596L17.7013 86.0404C21.2575 92.2021 27.8393 96 34.9518 96H65.0474C72.1599 96 78.7416 92.2021 82.2979 86.0404L97.3457 59.9596C100.902 53.7979 100.902 46.2021 97.3457 40.0404L82.2713 13.9596C78.7416 7.79792 72.1599 4 65.0474 4Z" fill="white"/>
<path fill-rule="evenodd" clip-rule="evenodd" d="M50 30.3125C51.933 30.3125 53.5 31.8795 53.5 33.8125V50.8125C53.5 52.7455 51.933 54.3125 50 54.3125C48.067 54.3125 46.5 52.7455 46.5 50.8125V33.8125C46.5 31.8795 48.067 30.3125 50 30.3125Z" fill="white"/>
<path fill-rule="evenodd" clip-rule="evenodd" d="M50 59.6875C51.933 59.6875 53.5 61.2545 53.5 63.1875V66.1875C53.5 68.1205 51.933 69.6875 50 69.6875C48.067 69.6875 46.5 68.1205 46.5 66.1875V63.1875C46.5 61.2545 48.067 59.6875 50 59.6875Z" fill="white"/>
</g>
<defs>
<clipPath id="clip0">
<rect width="100" height="92" fill="white" transform="translate(0 4)"/>
</clipPath>
</defs>
</svg>
