<svg id="Layer_1" data-name="Layer 1" xmlns="http://www.w3.org/2000/svg" viewBox="0 0 500 500"><defs><style>.cls-1{fill:#fff;}</style></defs><title>profile</title><path class="cls-1" d="M306.7,96.79a55.15,55.15,0,0,1,47.63,27.5L411,222.5a55.17,55.17,0,0,1,0,55l-56.7,98.21a55.15,55.15,0,0,1-47.63,27.5H193.3a55.15,55.15,0,0,1-47.63-27.5L89,277.5a55.17,55.17,0,0,1,0-55l56.7-98.21a55.15,55.15,0,0,1,47.63-27.5H306.7m0-20H193.3a75,75,0,0,0-65,37.5L71.65,212.5a75,75,0,0,0,0,75l56.7,98.21a75,75,0,0,0,65,37.5H306.7a75,75,0,0,0,64.95-37.5l56.7-98.21a75,75,0,0,0,0-75l-56.7-98.21a75,75,0,0,0-64.95-37.5Z"/><path class="cls-1" d="M300,332h-.08l-100-.5a15,15,0,0,1,.08-30h.08l100,.5a15,15,0,0,1-.08,30Z"/><path class="cls-1" d="M250,288a65,65,0,1,1,65-65A65.08,65.08,0,0,1,250,288Zm0-100a35,35,0,1,0,35,35A35,35,0,0,0,250,188Z"/></svg>