<svg width="100" height="100" viewBox="0 0 100 100" fill="none" xmlns="http://www.w3.org/2000/svg">
<g clip-path="url(#clip0)">
<path d="M65.0469 9.31178C70.2486 9.31178 75.0788 12.1005 77.6796 16.6155L92.7274 42.6963C95.3282 47.2113 95.3282 52.7887 92.7274 57.3037L77.6796 83.3845C75.0788 87.8995 70.2486 90.6882 65.0469 90.6882H34.9514C29.7497 90.6882 24.9195 87.8995 22.3187 83.3845L7.27093 57.3037C4.67008 52.7887 4.67008 47.2113 7.27093 42.6963L22.3187 16.6155C24.9195 12.1005 29.7497 9.31178 34.9514 9.31178H65.0469ZM65.0469 4H34.9514C27.8389 4 21.2571 7.79792 17.7009 13.9596L2.6531 40.0404C-0.903165 46.2021 -0.903165 53.7979 2.6531 59.9596L17.7009 86.0404C21.2571 92.2021 27.8389 96 34.9514 96H65.0469C72.1595 96 78.7412 92.2021 82.2975 86.0404L97.3452 59.9596C100.901 53.7979 100.901 46.2021 97.3452 40.0404L82.2709 13.9596C78.7412 7.79792 72.1595 4 65.0469 4Z" fill="white"/>
<path d="M63.2696 71.7783C63.2696 71.7783 63.2431 71.7783 63.2696 71.7783L36.7038 71.6455C34.501 71.6455 32.7229 69.8395 32.7494 67.6351C32.7494 65.4307 34.5276 63.6778 36.7303 63.6778H36.7569L63.2962 63.8106C65.4989 63.8106 67.277 65.6166 67.2505 67.821C67.2505 69.9988 65.4458 71.7783 63.2696 71.7783Z" fill="white"/>
<path d="M50 60.0924C40.4989 60.0924 32.7495 52.3372 32.7495 42.8291C32.7495 33.321 40.4989 25.5658 50 25.5658C59.501 25.5658 67.2505 33.321 67.2505 42.8291C67.2505 52.3372 59.501 60.0924 50 60.0924ZM50 33.5335C44.8779 33.5335 40.7112 37.7032 40.7112 42.8291C40.7112 47.955 44.8779 52.1247 50 52.1247C55.1221 52.1247 59.2887 47.955 59.2887 42.8291C59.2887 37.7032 55.1221 33.5335 50 33.5335Z" fill="white"/>
</g>
<defs>
<clipPath id="clip0">
<rect width="100" height="92" fill="white" transform="translate(0 4)"/>
</clipPath>
</defs>
</svg>
