<svg width="100" height="92" viewBox="0 0 100 92" fill="none" xmlns="http://www.w3.org/2000/svg">
<g clip-path="url(#clip0)">
<path d="M65.0475 5.31178C70.2492 5.31178 75.0794 8.10046 77.6802 12.6155L92.728 38.6963C95.3288 43.2113 95.3288 48.7887 92.728 53.3037L77.6802 79.3845C75.0794 83.8995 70.2492 86.6882 65.0475 86.6882H34.952C29.7503 86.6882 24.9201 83.8995 22.3193 79.3845L7.27153 53.3037C4.67068 48.7887 4.67068 43.2113 7.27153 38.6963L22.3193 12.6155C24.9201 8.10046 29.7503 5.31178 34.952 5.31178H65.0475ZM65.0475 0H34.952C27.8395 0 21.2577 3.79792 17.7015 9.95958L2.65369 36.0404C-0.90257 42.2021 -0.90257 49.7979 2.65369 55.9596L17.7015 82.0404C21.2577 88.2021 27.8395 92 34.952 92H65.0475C72.1601 92 78.7418 88.2021 82.2981 82.0404L97.3458 55.9596C100.902 49.7979 100.902 42.2021 97.3458 36.0404L82.2715 9.95958C78.7418 3.79792 72.1601 0 65.0475 0Z" fill="white"/>
<path d="M35.9342 62.8118C34.9257 62.8118 33.8907 62.4134 33.121 61.6432L24.0977 52.6132C22.5318 51.0462 22.5318 48.5231 24.0977 46.9827C25.6635 45.4157 28.1847 45.4157 29.724 46.9827L35.9342 53.1975L42.1444 46.9827C43.7102 45.4157 46.2314 45.4157 47.7707 46.9827C49.3365 48.5496 49.3365 51.0727 47.7707 52.6132L38.7473 61.6432C37.9777 62.44 36.9427 62.8118 35.9342 62.8118Z" fill="white"/>
<path d="M35.9342 48.045C34.9257 48.045 33.8907 47.6466 33.121 46.8764L24.0977 37.8464C22.5318 36.2794 22.5318 33.7564 24.0977 32.2159C25.6635 30.649 28.1847 30.649 29.724 32.2159L35.9342 38.4307L42.1444 32.2159C43.7102 30.649 46.2314 30.649 47.7707 32.2159C49.3365 33.7829 49.3365 36.306 47.7707 37.8464L38.7473 46.8764C37.9777 47.6466 36.9427 48.045 35.9342 48.045Z" fill="white"/>
<path d="M72.5584 48.045C71.5499 48.045 70.5149 47.6467 69.7452 46.8764L63.535 40.6617L57.3248 46.8764C55.759 48.4434 53.2378 48.4434 51.6985 46.8764C50.1327 45.3095 50.1327 42.7864 51.6985 41.246L60.7219 32.2159C62.2877 30.649 64.8089 30.649 66.3482 32.2159L75.3716 41.246C76.9374 42.8129 76.9374 45.336 75.3716 46.8764C74.6019 47.6467 73.5669 48.045 72.5584 48.045Z" fill="white"/>
<path d="M72.5584 62.8118C71.5499 62.8118 70.5149 62.4134 69.7452 61.6432L63.535 55.4284L57.3248 61.6432C55.759 63.2101 53.2378 63.2101 51.6985 61.6432C50.1327 60.0762 50.1327 57.5531 51.6985 56.0127L60.7219 46.9827C62.2877 45.4157 64.8089 45.4157 66.3482 46.9827L75.3716 56.0127C76.9374 57.5797 76.9374 60.1028 75.3716 61.6432C74.6019 62.4399 73.5669 62.8118 72.5584 62.8118Z" fill="white"/>
</g>
<defs>
<clipPath id="clip0">
<rect width="100" height="92" fill="white"/>
</clipPath>
</defs>
</svg>
