<svg width="100" height="92" viewBox="0 0 100 92" fill="none" xmlns="http://www.w3.org/2000/svg">
<g clip-path="url(#clip0)">
<path d="M65.0481 5.31178C70.2498 5.31178 75.08 8.10046 77.6808 12.6155L92.7286 38.6963C95.3295 43.2113 95.3295 48.7887 92.7286 53.3037L77.6808 79.3845C75.08 83.8995 70.2498 86.6882 65.0481 86.6882H34.9526C29.7509 86.6882 24.9208 83.8995 22.3199 79.3845L7.27214 53.3037C4.67129 48.7887 4.67129 43.2113 7.27214 38.6963L22.3199 12.6155C24.9208 8.10046 29.7509 5.31178 34.9526 5.31178H65.0481ZM65.0481 0H34.9526C27.8401 0 21.2583 3.79792 17.7021 9.95958L2.6543 36.0404C-0.90196 42.2021 -0.90196 49.7979 2.6543 55.9596L17.7021 82.0404C21.2583 88.2021 27.8401 92 34.9526 92H65.0481C72.1607 92 78.7424 88.2021 82.2987 82.0404L97.3464 55.9596C100.903 49.7979 100.903 42.2021 97.3464 36.0404L82.2721 9.95958C78.7424 3.79792 72.1607 0 65.0481 0Z" fill="white"/>
<path d="M67.0382 67.0612C66.0297 67.0612 64.9947 66.6628 64.225 65.8926L54.2728 55.933C52.707 54.3661 52.707 51.843 54.2728 50.3025C55.8386 48.7356 58.3599 48.7356 59.8991 50.3025L69.8514 60.2621C71.4172 61.8291 71.4172 64.3522 69.8514 65.8926C69.0817 66.6628 68.0732 67.0612 67.0382 67.0612Z" fill="white"/>
<path d="M46.2049 59.4919C36.7038 59.4919 28.9544 51.7367 28.9544 42.2286C28.9544 32.7206 36.7038 24.9654 46.2049 24.9654C55.706 24.9654 63.4554 32.7206 63.4554 42.2286C63.4554 51.7367 55.7325 59.4919 46.2049 59.4919ZM46.2049 32.933C41.0828 32.933 36.9162 37.1028 36.9162 42.2286C36.9162 47.3545 41.0828 51.5243 46.2049 51.5243C51.327 51.5243 55.4937 47.3545 55.4937 42.2286C55.4937 37.1028 51.327 32.933 46.2049 32.933Z" fill="white"/>
</g>
<defs>
<clipPath id="clip0">
<rect width="100" height="92" fill="white"/>
</clipPath>
</defs>
</svg>
