<svg width="100" height="92" viewBox="0 0 100 92" fill="none" xmlns="http://www.w3.org/2000/svg">
<g clip-path="url(#clip0)">
<path d="M65.0479 5.31178C70.2496 5.31178 75.0797 8.10046 77.6806 12.6155L92.7283 38.6963C95.3292 43.2113 95.3292 48.7887 92.7283 53.3037L77.6806 79.3845C75.0797 83.8995 70.2496 86.6882 65.0479 86.6882H34.9523C29.7506 86.6882 24.9205 83.8995 22.3196 79.3845L7.27184 53.3037C4.67099 48.7887 4.67099 43.2113 7.27184 38.6963L22.3196 12.6155C24.9205 8.10046 29.7506 5.31178 34.9523 5.31178H65.0479ZM65.0479 0H34.9523C27.8398 0 21.258 3.79792 17.7018 9.95958L2.65401 36.0404C-0.902257 42.2021 -0.902257 49.7979 2.65401 55.9596L17.7018 82.0404C21.258 88.2021 27.8398 92 34.9523 92H65.0479C72.1604 92 78.7421 88.2021 82.2984 82.0404L97.3462 55.9596C100.902 49.7979 100.902 42.2021 97.3462 36.0404L82.2719 9.95958C78.7421 3.79792 72.1604 0 65.0479 0Z" fill="white"/>
<path d="M69.3737 58.5889H35.828C33.6253 58.5889 31.8471 56.8095 31.8471 54.6051V32.8799L26.1412 27.7009C24.5223 26.2136 24.3896 23.7171 25.8758 22.0704C27.362 20.4503 29.8567 20.3175 31.5021 21.8048L38.5085 28.1524C39.3312 28.8961 39.8089 29.985 39.8089 31.1005V50.6212H65.3928V39.1478L49.2038 36.97C47.0276 36.6778 45.4883 34.6593 45.7803 32.4815C46.0722 30.3037 48.0626 28.7633 50.2654 29.0554L69.9045 31.6847C71.8684 31.9503 73.3546 33.6501 73.3546 35.642V54.5785C73.3546 56.8095 71.5764 58.5889 69.3737 58.5889Z" fill="white"/>
<path d="M65.1274 71.2309C67.326 71.2309 69.1083 69.4473 69.1083 67.2471C69.1083 65.0469 67.326 63.2633 65.1274 63.2633C62.9288 63.2633 61.1465 65.0469 61.1465 67.2471C61.1465 69.4473 62.9288 71.2309 65.1274 71.2309Z" fill="white"/>
<path d="M39.1189 71.2309C41.3175 71.2309 43.0998 69.4473 43.0998 67.2471C43.0998 65.0469 41.3175 63.2633 39.1189 63.2633C36.9203 63.2633 35.138 65.0469 35.138 67.2471C35.138 69.4473 36.9203 71.2309 39.1189 71.2309Z" fill="white"/>
</g>
<defs>
<clipPath id="clip0">
<rect width="100" height="92" fill="white"/>
</clipPath>
</defs>
</svg>
