<svg width="24" height="24" viewBox="0 0 24 24" fill="none" xmlns="http://www.w3.org/2000/svg">
<path d="M21.168 8C20.3895 6.21623 19.1074 4.6984 17.4789 3.63262C15.8504 2.56684 13.9463 1.99945 12 2C6.81505 2 2.55005 5.947 2.05005 11M17 8H21.4C21.4788 8 21.5569 7.98448 21.6297 7.95433C21.7025 7.92418 21.7686 7.87998 21.8243 7.82426C21.88 7.76855 21.9242 7.70241 21.9544 7.62961C21.9845 7.55682 22 7.47879 22 7.4V3M2.88105 16C4.42505 19.532 7.94905 22 12.049 22C17.235 22 21.499 18.053 22 13M7.05005 16H2.65005C2.49092 16 2.33831 16.0632 2.22578 16.1757C2.11326 16.2883 2.05005 16.4409 2.05005 16.6V21" stroke="black" stroke-width="2" stroke-linecap="round" stroke-linejoin="round"/>
</svg>
