<svg width="197" height="71" viewBox="0 0 197 70" fill="none" xmlns="http://www.w3.org/2000/svg">
<rect x="0.113281" y="0.0566406" width="197" height="70" rx="35" fill="black" fill-opacity="0.3"/>
<path d="M51.4575 53.4996L61.5809 52.5892C51.8977 67.2072 32.1989 71.2075 17.5809 61.5243C2.96286 51.8412 -1.03742 32.1424 8.64572 17.5244C11.3653 13.4137 15.0055 9.99343 19.2774 7.53499C23.5494 5.07655 28.3355 3.64759 33.256 3.36151M61.5324 17.44C59.1902 13.9265 56.1687 10.9172 52.6457 8.58919C50.8259 7.38883 48.9445 6.39645 47.0015 5.61206" stroke="#FFE599" stroke-width="6.72308" stroke-linecap="round" stroke-linejoin="round"/>
<path d="M19.2957 40.9591C16.0078 40.9591 13.5208 38.6829 13.5208 35.5004C13.5208 32.339 16.0078 30.0417 19.2957 30.0417C22.5624 30.0417 25.0494 32.339 25.0494 35.5004C25.0494 38.6829 22.5624 40.9591 19.2957 40.9591ZM19.2957 38.0085C20.8131 38.0085 21.7194 36.8915 21.7194 35.5004C21.7194 34.1305 20.8131 32.9713 19.2957 32.9713C17.7571 32.9713 16.8508 34.1305 16.8508 35.5004C16.8508 36.8915 17.7571 38.0085 19.2957 38.0085ZM19.2957 36.2803C18.832 36.2803 18.5158 35.943 18.5158 35.5004C18.5158 35.0578 18.832 34.7206 19.2957 34.7206C19.7383 34.7206 20.0755 35.0578 20.0755 35.5004C20.0755 35.943 19.7383 36.2803 19.2957 36.2803ZM29.6784 33.1188C29.6784 33.5614 30.2264 33.7722 31.3223 34.0462C33.2192 34.5731 35.2425 35.1632 35.2425 37.587C35.2425 39.8843 33.4299 40.9591 30.8376 40.9591C28.6878 40.9591 27.1282 40.2425 26.5381 39.6524C25.8636 39.0412 25.9479 38.3036 26.4116 37.7134C26.9596 37.0601 27.5919 37.0601 28.1609 37.4816C28.7511 37.9453 29.6995 38.43 30.8165 38.43C31.5753 38.43 31.9968 38.2192 31.9968 37.7556C31.9968 37.2919 31.3856 37.0811 30.0367 36.7228C28.4349 36.2803 26.4748 35.7744 26.4748 33.435C26.4748 30.948 28.5192 30.0417 30.7744 30.0417C31.9757 30.0417 33.2824 30.2736 34.1255 30.9691C34.821 31.4328 34.9685 32.0229 34.4837 32.7395C33.9779 33.4771 33.4089 33.5825 32.6712 33.1821C32.2497 32.9292 31.4277 32.5287 30.6479 32.5287C30.0367 32.5287 29.6784 32.7184 29.6784 33.1188ZM45.4938 30.2103C46.4844 30.2103 47.1589 30.9269 47.1589 31.9175V35.8166C47.1589 39.252 44.9669 40.9591 41.8898 40.9591C38.7917 40.9591 36.6208 39.252 36.6208 35.8166V31.9175C36.6208 30.9269 37.2953 30.2103 38.2648 30.2103C39.2343 30.2103 39.9087 30.9269 39.9087 31.9175V35.6901C39.9087 37.2287 40.5831 37.9663 41.8898 37.9663C43.1755 37.9663 43.8499 37.2287 43.8499 35.6901V31.9175C43.8499 30.9269 44.5243 30.2103 45.4938 30.2103ZM51.2708 26.7328C52.2403 26.7328 52.9148 27.4494 52.9148 28.461V34.1305C52.9148 35.1421 52.2403 35.8587 51.2708 35.8587C50.3013 35.8587 49.6269 35.1421 49.6269 34.1305V28.461C49.6269 27.4494 50.3013 26.7328 51.2708 26.7328ZM51.2708 41.0013C50.1327 41.0013 49.2475 40.095 49.2475 38.9569C49.2475 37.8399 50.1327 36.9336 51.2708 36.9336C52.4089 36.9336 53.2941 37.8399 53.2941 38.9569C53.2941 40.095 52.4089 41.0013 51.2708 41.0013Z" fill="white"/>
<path d="M66.2677 40.8538C64.8346 40.8538 63.6332 39.9896 63.2117 39.0201C62.7902 39.9896 61.5889 40.8538 60.1346 40.8538C58.3853 40.8538 56.2355 39.9686 56.2355 36.8704V31.1588C56.2355 30.6108 56.5517 30.2525 57.0786 30.2525C57.6055 30.2525 57.9216 30.6108 57.9216 31.1588V36.7018C57.9216 38.8094 59.2073 39.2309 60.1346 39.2309C61.083 39.2309 62.3476 38.8094 62.3476 36.7018V31.1588C62.3476 30.6108 62.6848 30.2525 63.2117 30.2525C63.7386 30.2525 64.0548 30.6108 64.0548 31.1588V36.7018C64.0548 38.8094 65.3404 39.2309 66.2677 39.2309C67.2162 39.2309 68.4807 38.8094 68.4807 36.7018V31.1588C68.4807 30.6108 68.8179 30.2525 69.3448 30.2525C69.8717 30.2525 70.1879 30.6108 70.1879 31.1588V36.8704C70.1879 39.9686 68.0381 40.8538 66.2677 40.8538ZM78.7426 30.3157C79.2695 30.4422 79.5014 30.8005 79.396 31.3063C79.2906 31.7911 78.9323 32.0229 78.3843 31.9175C78.1736 31.8332 77.8574 31.7278 77.5202 31.7278C75.792 31.7278 74.696 33.3507 74.696 36.2592V39.8843C74.696 40.4322 74.3799 40.7905 73.853 40.7905C73.3261 40.7905 73.0099 40.4322 73.0099 39.8843V31.1588C73.0099 30.6108 73.3261 30.2525 73.853 30.2525C74.3799 30.2525 74.696 30.6108 74.696 31.1588V31.9807H74.7803C75.2018 31.0745 76.2135 30.105 77.6256 30.105C78.1103 30.105 78.4686 30.2314 78.7426 30.3157ZM85.9948 39.2731C86.5427 39.2731 86.8589 39.5681 86.8589 40.095C86.8589 40.6219 86.5427 40.8959 85.9948 40.8959C82.6015 40.8959 80.3464 38.6408 80.3464 35.5004C80.3464 32.339 82.6647 30.105 85.9315 30.105C88.9665 30.105 90.9266 31.8543 90.9266 34.8892V39.8632C90.9266 40.4112 90.6104 40.7905 90.0835 40.7905C89.5355 40.7905 89.2194 40.4112 89.2194 39.8632V35.2264C89.2194 32.9081 88.1445 31.7067 85.9105 31.7067C83.571 31.7067 82.0746 33.3507 82.0746 35.5004C82.0746 37.6713 83.571 39.2731 85.9948 39.2731ZM98.562 39.1677C100.585 39.1677 102.503 37.8188 102.503 35.4161C102.503 33.2242 100.923 31.7067 98.7306 31.7067C96.6441 31.7067 95.4428 33.0767 95.4428 35.3108V42.2026C95.4428 42.7506 95.1266 43.1089 94.5997 43.1089C94.0728 43.1089 93.7567 42.7506 93.7567 42.2026V35.1421C93.7567 31.9807 95.8011 30.105 98.7306 30.105C101.829 30.105 104.189 32.1704 104.189 35.3951C104.189 38.7883 101.576 40.7905 98.562 40.7905C98.014 40.7905 97.6979 40.4955 97.6979 39.9896C97.6979 39.4627 98.014 39.1677 98.562 39.1677ZM111.364 39.1677C113.387 39.1677 115.305 37.8188 115.305 35.4161C115.305 33.2242 113.725 31.7067 111.533 31.7067C109.446 31.7067 108.245 33.0767 108.245 35.3108V42.2026C108.245 42.7506 107.929 43.1089 107.402 43.1089C106.875 43.1089 106.559 42.7506 106.559 42.2026V35.1421C106.559 31.9807 108.603 30.105 111.533 30.105C114.631 30.105 116.991 32.1704 116.991 35.3951C116.991 38.7883 114.378 40.7905 111.364 40.7905C110.816 40.7905 110.5 40.4955 110.5 39.9896C110.5 39.4627 110.816 39.1677 111.364 39.1677ZM126.885 38.6829C127.391 38.4089 127.812 38.4722 128.086 38.9358C128.339 39.3574 128.276 39.7367 127.77 40.095C127.117 40.5798 125.894 40.9381 124.503 40.9381C120.941 40.9381 118.876 38.6197 118.876 35.5426C118.876 32.339 121.131 30.105 124.229 30.105C127.054 30.105 129.014 31.9175 129.014 34.7206C129.014 35.648 128.466 36.2381 127.58 36.2381H123.955C123.428 36.2381 123.091 35.9641 123.091 35.4583C123.091 34.9314 123.428 34.6785 123.955 34.6785H127.391C127.391 32.9292 126.042 31.6857 124.229 31.6857C122.08 31.6857 120.604 33.3296 120.604 35.5215C120.604 37.6713 121.974 39.3574 124.44 39.3574C125.515 39.3574 126.358 39.0201 126.885 38.6829ZM136.312 31.8754C134.077 31.8754 132.665 33.4139 132.665 35.4794C132.665 37.4394 133.93 39.3363 136.459 39.3363C138.609 39.3363 139.81 38.0296 139.81 35.8798V26.9014C139.81 26.3534 140.147 25.9951 140.674 25.9951C141.201 25.9951 141.517 26.3534 141.517 26.9014V36.0484C141.517 38.9148 139.515 40.9381 136.438 40.9381C133.129 40.9381 130.937 38.5986 130.937 35.5004C130.937 32.4655 133.087 30.2525 136.312 30.2525H136.986C137.513 30.2525 137.829 30.5476 137.829 31.0534C137.829 31.5803 137.513 31.8754 136.986 31.8754H136.312Z" fill="white"/>
<path d="M152.408 39.822C152.692 39.822 152.858 39.9886 152.858 40.2553C152.858 40.5052 152.692 40.6719 152.408 40.6719H146.209C146.109 40.6719 145.926 40.6385 145.809 40.4386C145.709 40.2719 145.692 40.0386 145.892 39.8886L150.292 36.2557C151.308 35.3891 152.042 34.6226 152.042 33.3394C152.042 31.6562 150.858 30.5397 149.192 30.5397C147.509 30.5397 146.226 31.7062 146.226 33.3394C146.226 34.0393 146.442 34.6226 146.892 35.1225C147.076 35.3391 147.076 35.5558 146.926 35.7224C146.742 35.9057 146.526 35.9057 146.309 35.7224C145.676 35.1725 145.359 34.2226 145.359 33.406C145.359 31.3563 146.959 29.7064 149.209 29.7064C151.408 29.7064 152.908 31.2896 152.908 33.3727C152.908 34.8225 152.125 35.7891 150.692 37.0056L147.276 39.822H152.408ZM160.296 40.7719C157.163 40.7719 154.78 38.4721 154.78 35.2558C154.78 32.0395 157.163 29.7064 160.296 29.7064C163.429 29.7064 165.812 32.0395 165.812 35.2558C165.812 38.4721 163.429 40.7719 160.296 40.7719ZM160.296 39.9386C162.895 39.9386 164.912 38.0555 164.912 35.2558C164.912 32.4561 162.895 30.5397 160.296 30.5397C157.696 30.5397 155.679 32.4561 155.679 35.2558C155.679 38.0555 157.696 39.9386 160.296 39.9386ZM160.296 35.8391C159.946 35.8391 159.696 35.5725 159.696 35.2392C159.696 34.9059 159.946 34.6392 160.296 34.6392C160.646 34.6392 160.896 34.9059 160.896 35.2392C160.896 35.5725 160.646 35.8391 160.296 35.8391ZM174.72 39.822C175.004 39.822 175.17 39.9886 175.17 40.2553C175.17 40.5052 175.004 40.6719 174.72 40.6719H168.521C168.421 40.6719 168.238 40.6385 168.121 40.4386C168.021 40.2719 168.004 40.0386 168.204 39.8886L172.604 36.2557C173.62 35.3891 174.354 34.6226 174.354 33.3394C174.354 31.6562 173.17 30.5397 171.504 30.5397C169.821 30.5397 168.538 31.7062 168.538 33.3394C168.538 34.0393 168.754 34.6226 169.204 35.1225C169.388 35.3391 169.388 35.5558 169.238 35.7224C169.054 35.9057 168.838 35.9057 168.621 35.7224C167.988 35.1725 167.671 34.2226 167.671 33.406C167.671 31.3563 169.271 29.7064 171.521 29.7064C173.72 29.7064 175.22 31.2896 175.22 33.3727C175.22 34.8225 174.437 35.7891 173.004 37.0056L169.587 39.822H174.72ZM180.841 33.3727C182.841 33.3727 184.324 34.7559 184.324 36.9723C184.324 39.3054 182.641 40.7719 180.558 40.7719C179.025 40.7719 177.825 39.972 177.325 39.272C177.125 39.0054 177.175 38.8387 177.358 38.6721C177.541 38.5055 177.775 38.4555 178.025 38.7221C178.508 39.2887 179.325 39.9553 180.541 39.9553C182.058 39.9553 183.457 38.9054 183.457 36.9723C183.457 35.1892 182.291 34.1893 180.708 34.1893C179.375 34.1893 178.725 35.0225 178.491 35.3225C178.291 35.5558 177.991 35.6058 177.775 35.4891C177.558 35.3891 177.491 35.2392 177.541 34.8559L178.191 30.2397C178.241 29.9564 178.441 29.8064 178.691 29.8064H183.091C183.357 29.8064 183.524 29.9731 183.524 30.2231C183.524 30.4564 183.357 30.623 183.091 30.623H178.941L178.341 34.6226C178.608 34.2559 179.308 33.3727 180.841 33.3727Z" fill="#FFE599"/>
</svg>
