<svg width="259" height="118" viewBox="0 0 259 118" fill="none" xmlns="http://www.w3.org/2000/svg">
<path d="M80.2397 83.03L93.7008 81.8195C80.8251 101.257 54.6316 106.576 35.194 93.7006C15.7564 80.8249 10.4372 54.6314 23.3129 35.1937C26.9291 29.7278 31.7694 25.1799 37.4498 21.9109C43.1302 18.6419 49.4944 16.7418 56.0372 16.3614M93.6364 35.0816C90.522 30.4097 86.5042 26.4082 81.8197 23.3126C79.3999 21.7165 76.8982 20.397 74.3146 19.354" stroke="#FFE599" stroke-width="8.93968" stroke-linecap="round" stroke-linejoin="round"/>
<path d="M37.5524 65.7403C33.1805 65.7403 29.8736 62.7136 29.8736 58.4819C29.8736 54.2781 33.1805 51.2234 37.5524 51.2234C41.8962 51.2234 45.2032 54.2781 45.2032 58.4819C45.2032 62.7136 41.8962 65.7403 37.5524 65.7403ZM37.5524 61.8168C39.5702 61.8168 40.7752 60.3315 40.7752 58.4819C40.7752 56.6603 39.5702 55.1189 37.5524 55.1189C35.5066 55.1189 34.3015 56.6603 34.3015 58.4819C34.3015 60.3315 35.5066 61.8168 37.5524 61.8168ZM37.5524 59.5188C36.9358 59.5188 36.5155 59.0704 36.5155 58.4819C36.5155 57.8934 36.9358 57.445 37.5524 57.445C38.1409 57.445 38.5893 57.8934 38.5893 58.4819C38.5893 59.0704 38.1409 59.5188 37.5524 59.5188ZM51.3583 55.3151C51.3583 55.9036 52.087 56.1838 53.5443 56.5482C56.0665 57.2488 58.7569 58.0335 58.7569 61.2563C58.7569 64.311 56.3468 65.7403 52.8997 65.7403C50.0412 65.7403 47.9673 64.7875 47.1826 64.0028C46.2858 63.19 46.3979 62.2092 47.0145 61.4245C47.7431 60.5557 48.5839 60.5557 49.3405 61.1162C50.1252 61.7328 51.3864 62.3773 52.8717 62.3773C53.8806 62.3773 54.4411 62.0971 54.4411 61.4805C54.4411 60.864 53.6284 60.5837 51.8348 60.1073C49.7049 59.5188 47.0986 58.8462 47.0986 55.7354C47.0986 52.4285 49.817 51.2234 52.8156 51.2234C54.413 51.2234 56.1506 51.5317 57.2716 52.4565C58.1964 53.0731 58.3926 53.8578 57.748 54.8106C57.0754 55.7915 56.3187 55.9316 55.3379 55.3991C54.7774 55.0628 53.6844 54.5304 52.6475 54.5304C51.8348 54.5304 51.3583 54.7826 51.3583 55.3151ZM72.3881 51.4476C73.7053 51.4476 74.6021 52.4005 74.6021 53.7176V58.9022C74.6021 63.4703 71.6875 65.7403 67.5959 65.7403C63.4762 65.7403 60.5897 63.4703 60.5897 58.9022V53.7176C60.5897 52.4005 61.4865 51.4476 62.7756 51.4476C64.0648 51.4476 64.9616 52.4005 64.9616 53.7176V58.7341C64.9616 60.7799 65.8584 61.7608 67.5959 61.7608C69.3054 61.7608 70.2022 60.7799 70.2022 58.7341V53.7176C70.2022 52.4005 71.099 51.4476 72.3881 51.4476ZM80.0698 46.8235C81.3589 46.8235 82.2557 47.7764 82.2557 49.1216V56.6603C82.2557 58.0055 81.3589 58.9583 80.0698 58.9583C78.7807 58.9583 77.8839 58.0055 77.8839 56.6603V49.1216C77.8839 47.7764 78.7807 46.8235 80.0698 46.8235ZM80.0698 65.7964C78.5565 65.7964 77.3794 64.5913 77.3794 63.078C77.3794 61.5926 78.5565 60.3876 80.0698 60.3876C81.5831 60.3876 82.7602 61.5926 82.7602 63.078C82.7602 64.5913 81.5831 65.7964 80.0698 65.7964Z" fill="white"/>
<path d="M99.7621 65.6002C97.8564 65.6002 96.259 64.4512 95.6985 63.162C95.138 64.4512 93.5406 65.6002 91.6069 65.6002C89.2808 65.6002 86.4223 64.4231 86.4223 60.3035V52.7088C86.4223 51.9801 86.8426 51.5037 87.5433 51.5037C88.2439 51.5037 88.6642 51.9801 88.6642 52.7088V60.0793C88.6642 62.8818 90.3738 63.4423 91.6069 63.4423C92.868 63.4423 94.5495 62.8818 94.5495 60.0793V52.7088C94.5495 51.9801 94.9979 51.5037 95.6985 51.5037C96.3991 51.5037 96.8195 51.9801 96.8195 52.7088V60.0793C96.8195 62.8818 98.529 63.4423 99.7621 63.4423C101.023 63.4423 102.705 62.8818 102.705 60.0793V52.7088C102.705 51.9801 103.153 51.5037 103.854 51.5037C104.554 51.5037 104.975 51.9801 104.975 52.7088V60.3035C104.975 64.4231 102.116 65.6002 99.7621 65.6002ZM116.35 51.5878C117.051 51.7559 117.359 52.2323 117.219 52.9049C117.079 53.5495 116.602 53.8578 115.874 53.7176C115.593 53.6055 115.173 53.4654 114.725 53.4654C112.426 53.4654 110.969 55.6233 110.969 59.4908V64.311C110.969 65.0397 110.549 65.5161 109.848 65.5161C109.148 65.5161 108.727 65.0397 108.727 64.311V52.7088C108.727 51.9801 109.148 51.5037 109.848 51.5037C110.549 51.5037 110.969 51.9801 110.969 52.7088V53.8017H111.081C111.642 52.5967 112.987 51.3075 114.865 51.3075C115.509 51.3075 115.986 51.4757 116.35 51.5878ZM125.993 63.4983C126.722 63.4983 127.142 63.8907 127.142 64.5913C127.142 65.2919 126.722 65.6562 125.993 65.6562C121.481 65.6562 118.482 62.6576 118.482 58.4819C118.482 54.2781 121.565 51.3075 125.909 51.3075C129.945 51.3075 132.551 53.6336 132.551 57.6692V64.283C132.551 65.0117 132.131 65.5161 131.43 65.5161C130.701 65.5161 130.281 65.0117 130.281 64.283V58.1176C130.281 55.0348 128.852 53.4374 125.881 53.4374C122.77 53.4374 120.781 55.6233 120.781 58.4819C120.781 61.3684 122.77 63.4983 125.993 63.4983ZM142.704 63.3582C145.394 63.3582 147.944 61.5646 147.944 58.3698C147.944 55.4552 145.843 53.4374 142.928 53.4374C140.154 53.4374 138.556 55.259 138.556 58.2296V67.3938C138.556 68.1224 138.136 68.5988 137.435 68.5988C136.735 68.5988 136.314 68.1224 136.314 67.3938V58.0055C136.314 53.8017 139.033 51.3075 142.928 51.3075C147.048 51.3075 150.186 54.0539 150.186 58.3417C150.186 62.8538 146.711 65.5161 142.704 65.5161C141.975 65.5161 141.555 65.1238 141.555 64.4512C141.555 63.7505 141.975 63.3582 142.704 63.3582ZM159.727 63.3582C162.417 63.3582 164.967 61.5646 164.967 58.3698C164.967 55.4552 162.866 53.4374 159.951 53.4374C157.176 53.4374 155.579 55.259 155.579 58.2296V67.3938C155.579 68.1224 155.159 68.5988 154.458 68.5988C153.757 68.5988 153.337 68.1224 153.337 67.3938V58.0055C153.337 53.8017 156.055 51.3075 159.951 51.3075C164.071 51.3075 167.209 54.0539 167.209 58.3417C167.209 62.8538 163.734 65.5161 159.727 65.5161C158.998 65.5161 158.578 65.1238 158.578 64.4512C158.578 63.7505 158.998 63.3582 159.727 63.3582ZM180.365 62.7136C181.037 62.3493 181.598 62.4334 181.962 63.0499C182.299 63.6104 182.215 64.1149 181.542 64.5913C180.673 65.2359 179.048 65.7123 177.198 65.7123C172.462 65.7123 169.715 62.6296 169.715 58.5379C169.715 54.2781 172.714 51.3075 176.834 51.3075C180.589 51.3075 183.195 53.7176 183.195 57.445C183.195 58.678 182.467 59.4627 181.29 59.4627H176.469C175.769 59.4627 175.32 59.0984 175.32 58.4258C175.32 57.7252 175.769 57.3889 176.469 57.3889H181.037C181.037 55.0628 179.244 53.4094 176.834 53.4094C173.975 53.4094 172.013 55.5953 172.013 58.5099C172.013 61.3684 173.835 63.6104 177.114 63.6104C178.543 63.6104 179.664 63.162 180.365 62.7136ZM192.899 53.6616C189.929 53.6616 188.051 55.7074 188.051 58.4538C188.051 61.0602 189.733 63.5824 193.096 63.5824C195.954 63.5824 197.552 61.8449 197.552 58.9863V47.0477C197.552 46.3191 198 45.8427 198.701 45.8427C199.401 45.8427 199.822 46.3191 199.822 47.0477V59.2105C199.822 63.0219 197.159 65.7123 193.068 65.7123C188.668 65.7123 185.753 62.6015 185.753 58.4819C185.753 54.4463 188.612 51.5037 192.899 51.5037H193.796C194.497 51.5037 194.917 51.896 194.917 52.5686C194.917 53.2692 194.497 53.6616 193.796 53.6616H192.899Z" fill="white"/>
<path d="M214.715 64.2239C215.092 64.2239 215.314 64.4455 215.314 64.8C215.314 65.1324 215.092 65.354 214.715 65.354H206.472C206.339 65.354 206.095 65.3097 205.94 65.0438C205.807 64.8222 205.785 64.512 206.051 64.3125L211.901 59.4818C213.253 58.3295 214.228 57.3102 214.228 55.604C214.228 53.3659 212.654 51.8812 210.438 51.8812C208.2 51.8812 206.494 53.4324 206.494 55.604C206.494 56.5346 206.782 57.3102 207.381 57.975C207.624 58.2631 207.624 58.5511 207.425 58.7727C207.181 59.0165 206.893 59.0165 206.605 58.7727C205.763 58.0415 205.342 56.7784 205.342 55.6926C205.342 52.967 207.469 50.7733 210.461 50.7733C213.386 50.7733 215.38 52.8784 215.38 55.6483C215.38 57.5761 214.339 58.8614 212.433 60.479L207.89 64.2239H214.715ZM225.203 65.487C221.037 65.487 217.868 62.429 217.868 58.1523C217.868 53.8755 221.037 50.7733 225.203 50.7733C229.369 50.7733 232.538 53.8755 232.538 58.1523C232.538 62.429 229.369 65.487 225.203 65.487ZM225.203 64.379C228.66 64.379 231.341 61.875 231.341 58.1523C231.341 54.4295 228.66 51.8812 225.203 51.8812C221.746 51.8812 219.065 54.4295 219.065 58.1523C219.065 61.875 221.746 64.379 225.203 64.379ZM225.203 58.9278C224.738 58.9278 224.405 58.5733 224.405 58.1301C224.405 57.6869 224.738 57.3324 225.203 57.3324C225.668 57.3324 226.001 57.6869 226.001 58.1301C226.001 58.5733 225.668 58.9278 225.203 58.9278ZM244.383 64.2239C244.76 64.2239 244.982 64.4455 244.982 64.8C244.982 65.1324 244.76 65.354 244.383 65.354H236.14C236.007 65.354 235.764 65.3097 235.608 65.0438C235.475 64.8222 235.453 64.512 235.719 64.3125L241.569 59.4818C242.921 58.3295 243.896 57.3102 243.896 55.604C243.896 53.3659 242.323 51.8812 240.107 51.8812C237.869 51.8812 236.162 53.4324 236.162 55.604C236.162 56.5346 236.45 57.3102 237.049 57.975C237.292 58.2631 237.292 58.5511 237.093 58.7727C236.849 59.0165 236.561 59.0165 236.273 58.7727C235.431 58.0415 235.01 56.7784 235.01 55.6926C235.01 52.967 237.137 50.7733 240.129 50.7733C243.054 50.7733 245.048 52.8784 245.048 55.6483C245.048 57.5761 244.007 58.8614 242.101 60.479L237.558 64.2239H244.383ZM252.522 55.6483C255.181 55.6483 257.154 57.4875 257.154 60.4347C257.154 63.537 254.915 65.487 252.146 65.487C250.107 65.487 248.511 64.4233 247.847 63.4926C247.581 63.1381 247.647 62.9165 247.891 62.6949C248.135 62.4733 248.445 62.4068 248.777 62.7614C249.42 63.5148 250.506 64.4012 252.123 64.4012C254.14 64.4012 256.001 63.0051 256.001 60.4347C256.001 58.0636 254.45 56.7341 252.345 56.7341C250.572 56.7341 249.708 57.842 249.398 58.2409C249.132 58.5511 248.733 58.6176 248.445 58.4625C248.157 58.3295 248.068 58.1301 248.135 57.6204L248.999 51.4824C249.065 51.1056 249.331 50.9062 249.664 50.9062H255.514C255.868 50.9062 256.09 51.1278 256.09 51.4602C256.09 51.7704 255.868 51.992 255.514 51.992H249.996L249.198 57.3102C249.553 56.8227 250.484 55.6483 252.522 55.6483Z" fill="#FFE599"/>
</svg>
